<svg width="125" height="126" viewBox="0 0 125 126" fill="none" xmlns="http://www.w3.org/2000/svg">
<g id="fluent:arrow-exit-20-filled">
<g id="Vector">
<path d="M79.8817 110.059C81.1274 110.059 81.9595 109.471 82.8403 108.588C83.7211 107.706 84.3196 106.895 84.3196 105.647C84.3196 104.399 83.7211 102.853 82.8403 101.971C81.9595 101.088 81.1274 100.5 79.8817 100.5H40.6806C37.3589 100.5 34.1536 99.1769 31.8048 96.8235C29.456 94.4701 28.1066 91.3282 28.1066 88V38C28.1066 34.6718 29.456 31.5299 31.8048 29.1765C34.1536 26.8231 37.3589 25.5 40.6806 25.5H79.8817C81.1274 25.5 81.9595 24.9119 82.8403 24.0294C83.7211 23.1469 84.3196 21.601 84.3196 20.3529C84.3196 19.1048 83.7211 18.2943 82.8403 17.4118C81.9595 16.5292 81.1274 15.9412 79.8817 15.9412H40.6806C34.8676 15.9412 29.2584 18.4404 25.148 22.5588C21.0376 26.6773 18.4912 32.1756 18.4912 38V88C18.4912 93.8243 21.0376 99.3227 25.148 103.441C29.2584 107.56 34.8676 110.059 40.6806 110.059H79.8817ZM85.7989 39.4706C86.252 39.0511 86.6994 38.2138 87.2782 38C87.857 37.7862 88.8807 37.9755 89.4971 38C90.1136 38.0245 90.4163 37.741 90.9764 38C91.5366 38.259 92.0372 39.0165 92.4557 39.4706L110.947 60.0588C111.749 60.9283 112.426 61.8161 112.426 63C112.426 64.1839 111.749 65.0717 110.947 65.9412L92.4557 86.5294C91.6095 87.4455 90.0023 87.9517 88.7575 88C87.5126 88.0482 86.7132 87.3773 85.7989 86.5294C84.8846 85.6815 84.3678 84.8355 84.3196 83.5882C84.2715 82.3409 84.9527 80.8278 85.7989 79.9118L96.8936 67.4118H48.077C46.8314 67.4118 45.9992 67.559 45.1184 66.6765C44.2376 65.7939 43.6391 64.2481 43.6391 63C43.6391 61.7519 44.2376 60.206 45.1184 59.3235C45.9992 58.441 46.8314 58.5882 48.077 58.5882H96.8936L85.7989 46.0882C85.3802 45.6343 84.533 44.4623 84.3196 43.8823C84.1062 43.3024 84.2952 43.0294 84.3196 42.4118C84.344 41.7941 84.0611 41.5024 84.3196 40.9412C84.5781 40.3799 85.3457 39.8899 85.7989 39.4706Z" fill="#192965"/>
</g>
</g>
</svg>
