<svg width="192" height="59" viewBox="0 0 192 59" fill="none" xmlns="http://www.w3.org/2000/svg">
<path d="M19.378 38.9327C25.6154 33.2025 31.8831 27.497 38.3329 21.9964C46.4609 15.0657 61.4949 1.15682 72.9775 0.98135C80.6367 0.864517 82.0363 4.3301 79.3834 10.3042C77.8658 13.7219 75.4442 18.235 74.8019 19.5416C68.8603 31.6389 60.3543 48.6692 59.4768 50.4933C57.362 58.4759 81.8457 35.1703 81.9875 35.0369C91.6877 25.8832 113.098 5.29296 127.93 1.41242L127.93 1.41332L127.951 1.40795C134.164 -0.0799906 138.954 1.97868 135.26 9.54146C129.167 21.9342 123.572 34.5476 117.766 47.0675C115.069 53.9132 125.157 53.0443 128.802 52.5958C142.871 50.8639 178.729 40.6628 184.541 23.3277C190.073 6.82611 163.943 4.00109 151.07 2.52032C142.092 1.48762 147.804 0.981798 157.006 0.981798C176.952 0.981798 186.314 6.28358 189.952 12.7053C199.392 29.3676 163.346 58.4424 121.855 58.2826C101.82 58.206 108.411 47.1409 113.391 36.4259C117.816 26.9043 122.524 17.4852 126.855 7.93669C112.958 14.7564 98.9149 28.8448 88.7933 38.5638C80.0262 46.9829 70.3171 58.2637 56.7846 58.2826C53.192 58.2875 50.354 57.0372 49.8754 53.1741C49.5274 50.3679 56.1906 35.8203 61.8241 24.445C64.4036 19.2363 67.4129 13.0079 70.2527 7.66363C57.9793 12.9766 44.6172 23.4195 31.808 34.3041C29.3045 36.4317 11.1879 52.6039 3.38774 57.4916C2.89037 57.8031 1.71357 58.2821 1.25064 58.2821C-3.64933 58.2821 18.0031 40.1954 19.378 38.9322V38.9327Z" fill="#2E355C"/>
</svg>
