<svg width="21" height="19" viewBox="0 0 21 19" fill="none" xmlns="http://www.w3.org/2000/svg">
<path d="M20.0032 3.83928C19.9331 3.76102 19.8455 3.69808 19.7465 3.65489C19.6475 3.6117 19.5395 3.58933 19.4303 3.58935H4.3784L3.92214 1.25025C3.85965 0.929199 3.67841 0.638802 3.41003 0.429687C3.14164 0.220572 2.80314 0.106004 2.45353 0.105957H0.769384C0.571418 0.105957 0.381559 0.179357 0.241575 0.310009C0.101591 0.440662 0.0229492 0.617864 0.0229492 0.802635C0.0229492 0.987405 0.101591 1.16461 0.241575 1.29526C0.381559 1.42591 0.571418 1.49931 0.769384 1.49931H2.44886L4.83372 13.7164C4.90397 14.0787 5.07553 14.4173 5.33104 14.6979C4.97839 15.0053 4.72386 15.3979 4.59567 15.8321C4.46747 16.2663 4.47063 16.7251 4.60478 17.1577C4.73894 17.5904 4.99885 17.9799 5.35569 18.283C5.71254 18.5862 6.15238 18.7912 6.62644 18.8753C7.10049 18.9594 7.59025 18.9193 8.04139 18.7595C8.49253 18.5997 8.88743 18.3264 9.18231 17.9699C9.47718 17.6134 9.66051 17.1876 9.71195 16.7398C9.76339 16.292 9.68095 15.8396 9.47375 15.4329H13.7116C13.5446 15.7592 13.4582 16.1163 13.4588 16.4779C13.4588 16.9601 13.612 17.4316 13.8991 17.8326C14.1861 18.2336 14.5942 18.5461 15.0715 18.7306C15.5489 18.9152 16.0742 18.9635 16.581 18.8694C17.0878 18.7753 17.5533 18.5431 17.9186 18.2021C18.284 17.8611 18.5328 17.4266 18.6336 16.9536C18.7344 16.4806 18.6827 15.9903 18.485 15.5448C18.2872 15.0992 17.9524 14.7184 17.5227 14.4504C17.0931 14.1825 16.588 14.0395 16.0713 14.0395H7.03664C6.86184 14.0395 6.69258 13.9822 6.55839 13.8776C6.4242 13.7731 6.33358 13.6279 6.30234 13.4674L6.00656 11.9495H16.8299C17.3543 11.9494 17.862 11.7776 18.2646 11.4639C18.6672 11.1502 18.939 10.7146 19.0328 10.233L20.1674 4.41055C20.1866 4.30992 20.1818 4.20657 20.1534 4.10784C20.1251 4.00911 20.0738 3.91743 20.0032 3.83928ZM8.23374 16.4779C8.23374 16.6846 8.16807 16.8866 8.04504 17.0585C7.92201 17.2303 7.74715 17.3643 7.54256 17.4433C7.33797 17.5224 7.11284 17.5431 6.89565 17.5028C6.67846 17.4625 6.47896 17.363 6.32237 17.2168C6.16578 17.0707 6.05915 16.8845 6.01594 16.6818C5.97274 16.479 5.99492 16.2689 6.07966 16.078C6.1644 15.887 6.30791 15.7238 6.49204 15.609C6.67616 15.4942 6.89264 15.4329 7.11408 15.4329C7.41103 15.4329 7.69582 15.543 7.9058 15.7389C8.11577 15.9349 8.23374 16.2007 8.23374 16.4779ZM17.191 16.4779C17.191 16.6846 17.1253 16.8866 17.0023 17.0585C16.8792 17.2303 16.7044 17.3643 16.4998 17.4433C16.2952 17.5224 16.0701 17.5431 15.8529 17.5028C15.6357 17.4625 15.4362 17.363 15.2796 17.2168C15.123 17.0707 15.0164 16.8845 14.9732 16.6818C14.93 16.479 14.9521 16.2689 15.0369 16.078C15.1216 15.887 15.2651 15.7238 15.4493 15.609C15.6334 15.4942 15.8499 15.4329 16.0713 15.4329C16.3683 15.4329 16.653 15.543 16.863 15.7389C17.073 15.9349 17.191 16.2007 17.191 16.4779ZM17.5642 9.98397C17.5328 10.1449 17.4418 10.2905 17.307 10.3951C17.1723 10.4997 17.0024 10.5567 16.8271 10.5561H5.73504L4.64991 4.9827H18.5355L17.5642 9.98397Z" fill="#192965"/>
</svg>
