<svg width="111" height="45" viewBox="0 0 111 45" fill="none" xmlns="http://www.w3.org/2000/svg">
<g id="MaxDekor 1">
<g id="&#208;&#161;&#208;&#187;&#208;&#190;&#208;&#185;_x0020_1">
<g id="_2105539644832">
<path id="Vector" d="M31.4487 11.7114C33.0954 10.1781 34.7502 8.65142 36.4531 7.17956C38.599 5.325 42.5683 1.60319 45.5999 1.55623C47.622 1.52497 47.9915 2.45231 47.2911 4.0509C46.8905 4.96542 46.2511 6.17304 46.0816 6.52268C44.5128 9.75974 42.2671 14.3168 42.0354 14.8049C41.4771 16.9409 47.9412 10.7047 47.9787 10.669C50.5397 8.21961 56.1924 2.70995 60.1082 1.67158L60.1083 1.67182L60.1139 1.67038C61.7542 1.27223 63.0187 1.8231 62.0434 3.84679C60.4348 7.16291 58.9577 10.5381 57.4249 13.8882C56.7128 15.72 59.3762 15.4875 60.3386 15.3675C64.0531 14.9041 73.5201 12.1744 75.0546 7.53578C76.5152 3.1202 69.6163 2.36427 66.2177 1.96804C63.8472 1.6917 65.3554 1.55635 67.7848 1.55635C73.0511 1.55635 75.5226 2.97503 76.4832 4.6934C78.9754 9.15198 69.4586 16.9319 58.5044 16.8892C53.2149 16.8687 54.955 13.9079 56.2696 11.0407C57.4379 8.49283 58.6809 5.97241 59.8245 3.41738C56.1555 5.24223 52.4478 9.01208 49.7755 11.6127C47.4608 13.8656 44.8975 16.8842 41.3247 16.8892C40.3762 16.8905 39.6269 16.556 39.5005 15.5223C39.4086 14.7714 41.1678 10.8786 42.6552 7.83475C43.3362 6.44099 44.1307 4.77437 44.8805 3.34431C41.6401 4.76598 38.1123 7.56034 34.7304 10.4729C34.0694 11.0422 29.2863 15.3697 27.227 16.6775C27.0956 16.7609 26.7849 16.8891 26.6627 16.8891C25.369 16.8891 31.0857 12.0493 31.4487 11.7113V11.7114Z" fill="#2E355C"/>
<path id="Vector_2" d="M96.6413 26.8236C96.786 26.8414 96.9319 26.8554 97.0793 26.8653C97.2503 26.8768 97.4239 26.8825 97.6004 26.8825C98.0834 26.8825 98.5043 26.8283 98.8638 26.7202C99.2191 26.613 99.5147 26.4531 99.751 26.2404L99.7513 26.2399C99.9483 26.0647 100.096 25.8591 100.194 25.6235C100.293 25.3867 100.342 25.1175 100.342 24.8164C100.342 24.135 100.143 23.626 99.7446 23.2896C99.3412 22.9489 98.7298 22.7786 97.9112 22.7786C97.5952 22.7786 97.343 22.7999 97.1548 22.8426C96.9801 22.8823 96.8643 22.9383 96.8078 23.0105L96.8067 23.0118C96.7562 23.0808 96.7162 23.2411 96.6874 23.4937C96.6569 23.7595 96.6413 24.1201 96.6413 24.576V26.8236ZM97.0682 27.0449C96.8951 27.0333 96.7217 27.0159 96.5478 26.9926C96.5008 26.9903 96.4633 26.9508 96.4633 26.9026V24.5759C96.4633 24.1145 96.4793 23.7469 96.5107 23.4732C96.5434 23.1886 96.5951 22.9989 96.665 22.9032L96.6688 22.8981C96.7511 22.7931 96.9004 22.716 97.1166 22.667C97.3193 22.6208 97.5843 22.5979 97.9112 22.5979C98.772 22.5979 99.421 22.7823 99.8578 23.1514C100.299 23.5242 100.52 24.0792 100.52 24.8163C100.52 25.1407 100.466 25.4329 100.358 25.693C100.249 25.9543 100.085 26.1817 99.868 26.375C99.612 26.6056 99.2942 26.7781 98.9137 26.8926C98.5371 27.0062 98.0995 27.0627 97.6003 27.0627C97.4234 27.0627 97.2462 27.0569 97.0681 27.0448L97.0682 27.0449ZM96.6413 27.4761V29.6282C96.6413 30.0014 96.6441 30.3022 96.6498 30.5313C96.6556 30.7662 96.6642 30.9385 96.6759 31.0492C96.6848 31.1328 96.6985 31.2061 96.7172 31.2686C96.7351 31.328 96.7576 31.378 96.7853 31.4179L96.788 31.4221C96.8304 31.4915 96.9313 31.5508 97.0904 31.6001C97.2641 31.6542 97.501 31.6928 97.8002 31.7155H97.8013C97.877 31.7222 97.9363 31.7487 97.9788 31.7957C98.0213 31.8423 98.0427 31.9048 98.0427 31.9828C98.0427 32.0646 98.0248 32.1288 97.9895 32.1757C97.9483 32.2302 97.89 32.2574 97.8149 32.2574C97.8112 32.2574 97.8076 32.2571 97.804 32.2567C97.434 32.2386 97.101 32.2256 96.805 32.2169C96.4954 32.2078 96.2176 32.2035 95.973 32.2035C95.7052 32.2035 95.4205 32.2077 95.1197 32.2168C94.8287 32.2256 94.5143 32.2387 94.1758 32.2569L94.1713 32.2571V32.2574C94.0986 32.2574 94.0436 32.2289 94.0055 32.1717C94.0041 32.1695 94.0027 32.1672 94.0015 32.1649C93.9737 32.1195 93.96 32.0591 93.96 31.9828C93.96 31.9095 93.9753 31.8505 94.0066 31.8051C94.0424 31.7531 94.094 31.7236 94.1617 31.716L94.1687 31.7153C94.4634 31.6879 94.6964 31.6473 94.8674 31.5935C95.0231 31.5442 95.1208 31.4872 95.1599 31.423C95.2099 31.3324 95.249 31.1403 95.2763 30.8466C95.3045 30.5454 95.3189 30.1399 95.3189 29.6306V24.4968C95.3189 24.1853 95.3161 23.9342 95.3104 23.7438C95.3046 23.5484 95.296 23.4064 95.2847 23.3182C95.2761 23.2515 95.2626 23.1916 95.2439 23.1382C95.2262 23.0878 95.2038 23.0433 95.176 23.0053L95.1729 23.0004C95.1456 22.9613 95.1085 22.9265 95.0621 22.8968C95.0121 22.865 94.9516 22.839 94.8809 22.8193L94.8808 22.8196C94.7987 22.797 94.689 22.7767 94.5513 22.7582C94.4132 22.7396 94.243 22.7222 94.0417 22.7057L94.0379 22.7054C93.9735 22.6974 93.9251 22.6686 93.8918 22.6189C93.863 22.5762 93.8491 22.5208 93.8491 22.4524C93.8491 22.3631 93.861 22.2934 93.8856 22.2427C93.9202 22.1712 93.9741 22.1359 94.0486 22.1359C94.0523 22.1359 94.056 22.1362 94.0595 22.1365C94.4316 22.1545 94.7667 22.1677 95.0648 22.1763C95.377 22.1854 95.6574 22.1895 95.9045 22.1895C95.9781 22.1895 96.0898 22.1872 96.2415 22.1833C96.3971 22.179 96.6032 22.1725 96.8573 22.1642V22.1641C97.0579 22.1504 97.2734 22.1399 97.5041 22.1327C97.738 22.1256 97.9773 22.122 98.2222 22.122C98.847 22.122 99.3927 22.1886 99.8596 22.3218C100.33 22.4562 100.721 22.6587 101.032 22.9293C101.294 23.152 101.49 23.4143 101.621 23.717C101.751 24.0181 101.816 24.3572 101.816 24.7347C101.816 25.0535 101.761 25.351 101.652 25.627C101.544 25.9014 101.381 26.1532 101.164 26.3815L101.163 26.3834C100.963 26.5899 100.727 26.769 100.455 26.9211C100.211 27.057 99.9371 27.1715 99.6337 27.2643C99.9086 27.8049 100.197 28.3406 100.499 28.8711C100.82 29.4347 101.156 29.9906 101.505 30.5387L101.507 30.5417C101.677 30.8074 101.832 31.0236 101.973 31.1901C102.111 31.3526 102.233 31.466 102.339 31.5295L102.343 31.5319C102.412 31.5737 102.512 31.6099 102.643 31.6405C102.781 31.6726 102.95 31.6978 103.15 31.7161H103.152C103.22 31.7237 103.272 31.7531 103.308 31.805C103.34 31.8502 103.356 31.9095 103.356 31.9829C103.356 32.0613 103.342 32.1228 103.315 32.1679C103.279 32.2279 103.226 32.2575 103.157 32.2575C103.153 32.2575 103.149 32.2572 103.145 32.2568C102.827 32.2388 102.564 32.2259 102.355 32.2174C102.129 32.2082 101.961 32.2036 101.852 32.2036C101.653 32.2036 101.487 32.2047 101.352 32.2063C101.185 32.2084 101.032 32.2114 100.895 32.215C100.857 32.216 100.825 32.193 100.811 32.1598H100.811C100.763 32.0417 100.695 31.8936 100.606 31.717C100.52 31.5439 100.415 31.3441 100.291 31.1188C99.9857 30.5932 99.6599 30.0215 99.3138 29.4041C98.9753 28.8006 98.6223 28.1613 98.2544 27.4869C98.1542 27.4939 98.0538 27.4995 97.9533 27.5037C97.8325 27.5086 97.7194 27.511 97.6144 27.511C97.4273 27.511 97.2426 27.5074 97.0597 27.5002C96.9134 27.4944 96.7738 27.4864 96.6411 27.4763L96.6413 27.4761ZM96.4635 29.6282V27.3786L96.4638 27.3712C96.4678 27.3217 96.5108 27.2846 96.5597 27.2887C96.7257 27.3031 96.8946 27.3135 97.0663 27.3204C97.2373 27.327 97.42 27.3306 97.6147 27.3306C97.7264 27.3306 97.8372 27.3283 97.9467 27.3239C98.0574 27.3192 98.1747 27.3124 98.2982 27.3027C98.3319 27.3003 98.3654 27.3176 98.3827 27.3494C98.7655 28.0517 99.1275 28.707 99.4684 29.3151C99.81 29.9246 100.135 30.4953 100.445 31.0269H100.444L100.446 31.0289C100.572 31.2598 100.678 31.462 100.765 31.6358C100.842 31.79 100.904 31.923 100.951 32.0337C101.072 32.0307 101.205 32.028 101.35 32.0265C101.522 32.0243 101.691 32.023 101.852 32.023C101.955 32.023 102.124 32.0276 102.363 32.0374C102.577 32.0462 102.842 32.0592 103.156 32.0768H103.157C103.16 32.0768 103.163 32.0758 103.164 32.0741C103.174 32.058 103.179 32.0276 103.179 31.9826C103.179 31.9471 103.174 31.9225 103.164 31.909C103.159 31.9012 103.148 31.8964 103.133 31.8947L103.133 31.8946C102.924 31.8754 102.748 31.8492 102.604 31.8158C102.455 31.7809 102.338 31.7377 102.252 31.6856L102.25 31.6845C102.126 31.6104 101.989 31.4845 101.838 31.307C101.693 31.1348 101.533 30.9124 101.358 30.6399L101.356 30.6357C101.006 30.0862 100.669 29.528 100.346 28.9612C100.027 28.4014 99.7216 27.8322 99.4293 27.2532C99.4256 27.2468 99.4227 27.2398 99.4206 27.2322C99.4076 27.1842 99.4352 27.1348 99.4824 27.1214C99.8137 27.0277 100.109 26.9083 100.37 26.7631C100.628 26.6195 100.85 26.4507 101.036 26.257L101.037 26.2567C101.238 26.0451 101.388 25.8128 101.488 25.56C101.588 25.3062 101.638 25.0309 101.638 24.7347C101.638 24.3817 101.578 24.0662 101.458 23.7887C101.339 23.5126 101.159 23.2722 100.919 23.0675L100.918 23.0668C100.626 22.8131 100.258 22.6224 99.8118 22.495C99.3614 22.3666 98.8318 22.3022 98.2224 22.3022C97.9658 22.3022 97.7281 22.3057 97.5092 22.3124C97.287 22.3194 97.0737 22.3298 96.8693 22.344V22.3437L96.8663 22.344C96.6156 22.3521 96.4093 22.3585 96.2458 22.363C96.0778 22.3675 95.9634 22.37 95.9048 22.37C95.67 22.37 95.3887 22.3655 95.0602 22.356C94.7565 22.3473 94.42 22.3341 94.0512 22.3162H94.0489C94.0481 22.3162 94.0467 22.3182 94.0449 22.3222C94.0329 22.3467 94.0271 22.3902 94.0271 22.4523C94.0271 22.4842 94.0309 22.5061 94.0386 22.5174C94.0416 22.5218 94.0482 22.5247 94.0587 22.5261C94.2565 22.5424 94.4283 22.56 94.5745 22.5796C94.7219 22.5996 94.8394 22.6214 94.9269 22.6454L94.9268 22.6456L94.9272 22.6459C95.0157 22.6702 95.0923 22.7034 95.1567 22.7446C95.2235 22.7872 95.2775 22.8386 95.3185 22.8974L95.3193 22.8986C95.3574 22.9513 95.388 23.0111 95.4115 23.0783C95.4341 23.1427 95.4503 23.2146 95.4605 23.2949C95.4727 23.3889 95.4818 23.5367 95.4877 23.7386C95.4938 23.9445 95.4969 24.1973 95.4969 24.4967V29.6305C95.4969 30.1413 95.482 30.5523 95.453 30.8635C95.4231 31.1829 95.3767 31.3988 95.3146 31.5112L95.3117 31.5161C95.2494 31.6196 95.1189 31.7024 94.9203 31.7651C94.7384 31.8226 94.4933 31.8657 94.185 31.8942L94.1811 31.8947C94.1665 31.8964 94.1567 31.9007 94.1519 31.9078C94.1425 31.9214 94.1379 31.9463 94.1379 31.9826C94.1379 32.0238 94.1423 32.0525 94.1511 32.0684L94.1529 32.0708C94.1556 32.0749 94.1618 32.0768 94.1715 32.0768C94.5047 32.0589 94.8193 32.0456 95.115 32.0369C95.4317 32.0274 95.7174 32.023 95.9732 32.023C96.2054 32.023 96.4842 32.0274 96.8099 32.0371C97.1115 32.0459 97.446 32.0591 97.8128 32.0768H97.815C97.8321 32.0768 97.8433 32.0734 97.8487 32.0664C97.8595 32.0519 97.865 32.0242 97.865 31.9826C97.865 31.9511 97.8594 31.9295 97.8483 31.9172C97.8373 31.9053 97.8164 31.8977 97.7862 31.8952C97.475 31.8712 97.2255 31.8303 97.0383 31.7722C96.8384 31.71 96.7046 31.6255 96.6385 31.5182C96.6008 31.4632 96.5708 31.3973 96.5478 31.3206C96.5255 31.246 96.5095 31.1619 96.4996 31.0681C96.4877 30.9547 96.4787 30.7773 96.4727 30.5355C96.4665 30.2879 96.4636 29.9854 96.4636 29.6281L96.4635 29.6282ZM96.5524 26.9028C96.8985 26.9493 97.2472 26.9728 97.6004 26.9728C98.5827 26.9728 99.3173 26.751 99.8097 26.3077C100.224 25.9391 100.431 25.4419 100.431 24.8164C100.431 23.3979 99.5906 22.6883 97.9112 22.6883C97.2684 22.6883 96.8774 22.7769 96.7383 22.9543C96.616 23.1153 96.5523 23.6543 96.5523 24.576V26.9028H96.5524ZM96.5524 27.3786V29.6282C96.5524 30.3587 96.5641 30.8348 96.5877 31.0587C96.6066 31.2359 96.6466 31.3737 96.7125 31.4693C96.8209 31.6467 97.1836 31.7588 97.7935 31.8054C97.8996 31.8147 97.9536 31.8732 97.9536 31.9828C97.9536 32.1064 97.9065 32.1671 97.8148 32.1671C97.0517 32.1296 96.4369 32.1134 95.9729 32.1134C95.4618 32.1134 94.8615 32.1296 94.1712 32.1671C94.0888 32.1671 94.0488 32.1064 94.0488 31.9828C94.0488 31.873 94.0889 31.8147 94.1712 31.8054C94.7788 31.7493 95.1346 31.6373 95.2357 31.4693C95.3488 31.2686 95.4076 30.6551 95.4076 29.6306V24.4968C95.4076 23.8853 95.3958 23.4885 95.3724 23.3066C95.3534 23.1596 95.3134 23.043 95.2475 22.9519C95.1792 22.8517 95.0639 22.7769 94.9039 22.7326C94.7343 22.686 94.4491 22.6485 94.0488 22.6159C93.9734 22.6066 93.938 22.5529 93.938 22.4527C93.938 22.3012 93.9734 22.2264 94.0488 22.2264C94.8167 22.2639 95.436 22.2801 95.9047 22.2801C96.0366 22.2801 96.3569 22.2707 96.8633 22.2543C97.2685 22.2264 97.7206 22.2123 98.2223 22.2123C99.4566 22.2123 100.373 22.4739 100.976 22.9989C101.477 23.426 101.727 24.0047 101.727 24.735C101.727 25.3485 101.52 25.8784 101.101 26.3193C100.714 26.7208 100.182 27.0171 99.5059 27.2084C100.09 28.3659 100.733 29.4929 101.43 30.5873C101.776 31.1288 102.064 31.4693 102.295 31.6072C102.45 31.703 102.733 31.7681 103.143 31.8054C103.225 31.8147 103.267 31.8732 103.267 31.9828C103.267 32.1064 103.23 32.1671 103.157 32.1671C102.49 32.1296 102.054 32.1134 101.852 32.1134C101.475 32.1134 101.155 32.118 100.893 32.1251C100.797 31.8894 100.622 31.5372 100.368 31.0727C99.7533 30.0156 99.0655 28.7881 98.3047 27.3928C98.0621 27.4113 97.8313 27.4207 97.6146 27.4207C97.2329 27.4207 96.8796 27.4068 96.5524 27.3786ZM85.8094 22.5686C85.2414 22.5686 84.7303 22.687 84.2762 22.9244C83.8217 23.1618 83.4229 23.5185 83.0804 23.9942L83.0803 23.9944L83.0804 23.9945C82.7757 24.4143 82.5469 24.8881 82.3945 25.4158C82.2416 25.9449 82.1651 26.5292 82.1651 27.1685C82.1651 28.6694 82.5531 29.8485 83.3289 30.7132C83.6585 31.0795 84.0294 31.354 84.4419 31.5368C84.8545 31.7195 85.3102 31.8108 85.8094 31.8108C86.3799 31.8108 86.893 31.6928 87.3481 31.4568C87.8033 31.2207 88.2025 30.8658 88.5453 30.3918L88.5475 30.3888C88.8513 29.971 89.0792 29.4984 89.2313 28.9708C89.3841 28.4406 89.4606 27.8539 89.4606 27.2107C89.4606 26.4632 89.3614 25.7936 89.1634 25.2025C88.9661 24.6136 88.6702 24.1017 88.2759 23.6664L88.2719 23.6615C87.9388 23.2978 87.5681 23.0246 87.1592 22.8427C86.7489 22.6601 86.299 22.5687 85.8094 22.5687V22.5686ZM84.1949 22.7643C84.675 22.5134 85.2134 22.388 85.8094 22.388C86.3231 22.388 86.7965 22.4848 87.23 22.6776C87.6612 22.8695 88.0514 23.1569 88.4016 23.5391L88.4067 23.5444C88.8178 23.9983 89.1263 24.5317 89.3317 25.1447C89.5362 25.7553 89.6386 26.4439 89.6386 27.2107C89.6386 27.8695 89.5595 28.4731 89.4016 29.0208C89.2436 29.5689 89.0066 30.0604 88.6905 30.4953L88.6885 30.4983C88.3295 30.9948 87.9094 31.3677 87.4289 31.6168C86.9475 31.8666 86.4074 31.9913 85.8095 31.9913C85.2864 31.9913 84.807 31.8948 84.3712 31.7016C83.9352 31.5088 83.5442 31.2195 83.1977 30.8347C82.3908 29.9351 81.9873 28.7158 81.9873 27.1687C81.9873 26.5131 82.0663 25.9118 82.2243 25.3651C82.3826 24.8171 82.6204 24.3248 82.9374 23.8881L82.9376 23.8882C83.2967 23.3891 83.7162 23.0144 84.1949 22.7643ZM85.8094 21.9122C86.617 21.9122 87.3474 22.0505 88.0002 22.3271C88.6543 22.6046 89.2295 23.0206 89.7257 23.5754L89.7302 23.5805C90.1612 24.0646 90.4849 24.6055 90.7008 25.203C90.9173 25.8017 91.0257 26.4574 91.0257 27.1687C91.0257 27.9888 90.8862 28.7319 90.6076 29.3973C90.3287 30.0639 89.9108 30.6512 89.3547 31.1583C88.8716 31.5987 88.3343 31.9297 87.7428 32.1505C87.1518 32.371 86.5074 32.4813 85.8094 32.4813C85.0063 32.4813 84.2787 32.3408 83.6266 32.0588C82.9742 31.7769 82.3984 31.3539 81.8995 30.7895C81.4666 30.2998 81.1416 29.7552 80.9249 29.1557C80.7086 28.5566 80.6001 27.9034 80.6001 27.1967C80.6001 26.3831 80.7391 25.6452 81.0169 24.9833C81.295 24.3203 81.7117 23.735 82.2667 23.228L82.272 23.2235C82.7526 22.7876 83.2876 22.46 83.8767 22.2411C84.4674 22.0219 85.1117 21.9121 85.8095 21.9121L85.8094 21.9122ZM87.9322 22.4935C87.3015 22.2262 86.5939 22.0925 85.8094 22.0925C85.1317 22.0925 84.5076 22.1987 83.9371 22.4104C83.3691 22.6212 82.8534 22.9373 82.3897 23.3579L82.3854 23.3619C81.8497 23.8515 81.448 24.4156 81.1801 25.0538C80.9121 25.6926 80.778 26.4071 80.778 27.1969C80.778 27.8827 80.8827 28.5152 81.0918 29.0939C81.3008 29.6723 81.6142 30.1979 82.0316 30.67C82.5126 31.2139 83.0673 31.6216 83.6962 31.8935C84.3253 32.1653 85.0298 32.3011 85.8095 32.3011C86.4869 32.3011 87.1109 32.1945 87.6817 31.9816C88.2517 31.7688 88.7698 31.4496 89.2359 31.0245C89.7728 30.535 90.1759 29.969 90.4445 29.3269C90.7133 28.6847 90.8479 27.9651 90.8479 27.1687C90.8479 26.478 90.7432 25.8434 90.5342 25.2649C90.3259 24.688 90.0139 24.1667 89.5987 23.7007L89.5945 23.6964C89.1158 23.1613 88.5617 22.7605 87.9322 22.4935ZM85.8094 22.4783C84.6458 22.4783 83.7107 22.9659 83.0089 23.9415C82.3871 24.798 82.0762 25.8736 82.0762 27.1687C82.0762 28.6925 82.4718 29.8918 83.2632 30.7741C83.9392 31.5254 84.7871 31.9011 85.8094 31.9011C86.9777 31.9011 87.915 31.4156 88.6169 30.445C89.2386 29.591 89.5495 28.5127 89.5495 27.2106C89.5495 25.6963 89.1468 24.4945 88.3414 23.6052C87.656 22.8539 86.8128 22.4783 85.8094 22.4783ZM85.8094 22.0022C87.4016 22.0022 88.685 22.546 89.6602 23.6359C90.5104 24.588 90.9366 25.7662 90.9366 27.1687C90.9366 28.7858 90.3879 30.0949 89.295 31.0914C88.3458 31.9571 87.1848 32.3912 85.8093 32.3912C84.2265 32.3912 82.9452 31.8378 81.9654 30.7296C81.1153 29.7683 80.689 28.5896 80.689 27.1967C80.689 25.5934 81.2355 24.2913 82.326 23.295C83.2728 22.434 84.4339 22.0022 85.8094 22.0022ZM77.0442 22.3661C77.0792 22.8005 77.1138 23.2008 77.148 23.5674C77.1829 23.9418 77.2188 24.2999 77.2559 24.6412C77.2561 24.6445 77.2564 24.6477 77.2564 24.6509H77.2565V24.6929C77.2565 24.7646 77.2219 24.8175 77.1524 24.8509C77.105 24.874 77.0393 24.8857 76.9556 24.8857C76.9067 24.8857 76.8635 24.872 76.8252 24.8452C76.7903 24.821 76.7617 24.7864 76.7383 24.742C76.7366 24.7388 76.7352 24.7357 76.7341 24.7323C76.5758 24.3714 76.4006 24.0563 76.2085 23.7875C76.0187 23.5221 75.8128 23.3031 75.5911 23.1317C75.317 22.9467 75.0232 22.8077 74.7103 22.7151C74.3956 22.622 74.0605 22.5753 73.7053 22.5753C73.1527 22.5753 72.6555 22.6926 72.2124 22.9271C71.7684 23.1621 71.377 23.5152 71.0377 23.9869L71.038 23.9871C70.7376 24.4074 70.5122 24.881 70.3624 25.4081V25.4084C70.2118 25.9374 70.1366 26.5217 70.1366 27.1616C70.1366 27.8301 70.2354 28.4359 70.4332 28.9784C70.6303 29.5195 70.9259 29.9985 71.3199 30.4152L71.3202 30.4154C71.6623 30.7805 72.043 31.0541 72.4613 31.2362C72.8804 31.4186 73.3386 31.5096 73.8349 31.5096C74.2498 31.5096 74.632 31.4655 74.9812 31.3777C75.3295 31.2901 75.6457 31.1589 75.9297 30.9841L75.9296 30.9839C76.1695 30.8353 76.3969 30.6485 76.6121 30.4237C76.8283 30.1982 77.0323 29.9339 77.2247 29.6306L77.2278 29.6261C77.2506 29.5921 77.2796 29.5657 77.3159 29.5479C77.3512 29.5304 77.3918 29.5214 77.4383 29.5214C77.4803 29.5214 77.5216 29.5292 77.5626 29.5443C77.6012 29.5584 77.6389 29.5791 77.6759 29.606L77.6787 29.6081C77.712 29.6315 77.7384 29.6563 77.7575 29.683C77.7829 29.7183 77.7958 29.7557 77.7958 29.796C77.7958 29.8268 77.7906 29.8571 77.7801 29.8877C77.7705 29.9151 77.7571 29.9418 77.7395 29.9682C77.2838 30.8009 76.7163 31.4265 76.0372 31.8448C75.3559 32.2645 74.5645 32.4742 73.6629 32.4742C72.8645 32.4742 72.1452 32.3359 71.5048 32.0589C70.8637 31.7813 70.303 31.3651 69.823 30.8096L69.8215 30.808C69.4001 30.3236 69.0839 29.7794 68.8733 29.1762C68.6625 28.5727 68.557 27.9102 68.557 27.1896C68.557 26.3694 68.6929 25.6287 68.9646 24.9682C69.2366 24.3068 69.6445 23.7265 70.1879 23.2286L70.1877 23.2285C70.6591 22.7925 71.1871 22.4648 71.7718 22.2464C72.3555 22.0282 72.9953 21.9189 73.6911 21.9189C74.0031 21.9189 74.2987 21.9368 74.5783 21.9722C74.8582 22.0077 75.1222 22.0614 75.3708 22.1325L75.3764 22.1344C75.5904 22.1975 75.789 22.2453 75.9718 22.2772C76.1532 22.3091 76.3179 22.325 76.4655 22.325C76.6029 22.325 76.7612 22.3112 76.9426 22.284C76.9911 22.2768 77.0364 22.311 77.0434 22.3602L77.0442 22.3661ZM76.9714 23.5844C76.9376 23.2225 76.9054 22.8527 76.8746 22.4756C76.7224 22.4956 76.5863 22.5056 76.4655 22.5056C76.3089 22.5056 76.134 22.4886 75.9418 22.4551C75.7544 22.422 75.5491 22.3727 75.3268 22.307L75.3229 22.3061C75.0839 22.2373 74.8286 22.1859 74.5567 22.1513C74.2845 22.1167 73.996 22.0996 73.6911 22.0996C73.016 22.0996 72.3967 22.205 71.833 22.4155C71.27 22.626 70.7617 22.9414 70.3074 23.3618L70.3071 23.3616L70.307 23.3618C69.7835 23.8415 69.3907 24.4002 69.1287 25.0374C68.8663 25.6755 68.735 26.3931 68.735 27.1899C68.735 27.8905 68.837 28.5327 69.0408 29.1165C69.2441 29.6985 69.5489 30.2232 69.9547 30.6897L69.9564 30.6916C70.4185 31.2261 70.9578 31.6265 71.5743 31.8935C72.1917 32.1608 72.888 32.2941 73.6629 32.2941C74.5323 32.2941 75.2931 32.0933 75.9454 31.6916C76.5977 31.2898 77.1442 30.6859 77.5849 29.8801C77.5867 29.8765 77.5888 29.8729 77.591 29.8694C77.6011 29.8547 77.6082 29.8412 77.6125 29.8287C77.6161 29.8184 77.6178 29.8077 77.6178 29.7964C77.6178 29.7949 77.6167 29.7925 77.6143 29.7891C77.6072 29.7794 77.595 29.7685 77.5783 29.7565L77.573 29.7532C77.5489 29.7356 77.5253 29.7224 77.502 29.714C77.4812 29.7063 77.4601 29.7023 77.4382 29.7023C77.4191 29.7023 77.4043 29.705 77.3936 29.7104C77.3861 29.7141 77.3801 29.7194 77.3752 29.7265L77.3739 29.7283C77.1754 30.0414 76.9639 30.3149 76.7391 30.5496C76.5135 30.7851 76.2744 30.9812 76.0218 31.1378V31.1377L76.0216 31.1378C75.7214 31.3224 75.3888 31.4608 75.0234 31.5526C74.6592 31.6445 74.2629 31.6904 73.8347 31.6904C73.3148 31.6904 72.8334 31.5943 72.3915 31.4019C71.9507 31.2101 71.5503 30.9227 71.1914 30.5396C70.7802 30.1048 70.4717 29.6049 70.2661 29.0407C70.061 28.4776 69.9583 27.8512 69.9583 27.1617C69.9583 26.5064 70.0362 25.9051 70.1917 25.3584C70.348 24.8101 70.5819 24.3178 70.8938 23.8814L70.894 23.8815L70.8941 23.8814C71.2497 23.387 71.6616 23.0158 72.1301 22.7678C72.5998 22.5193 73.1246 22.3951 73.705 22.3951C74.0756 22.3951 74.4273 22.4443 74.7594 22.5426C75.09 22.6405 75.4 22.7869 75.6891 22.9821C75.6918 22.9838 75.6945 22.9857 75.6972 22.9877C75.9335 23.1702 76.1519 23.4018 76.352 23.6819C76.5502 23.9589 76.7311 24.2847 76.8952 24.659C76.9048 24.677 76.9148 24.6897 76.9257 24.6972C76.9333 24.7025 76.9431 24.7053 76.9554 24.7053C77.0124 24.7053 77.0525 24.6995 77.0757 24.6881C77.0769 24.6878 77.0776 24.6915 77.0779 24.693L77.0783 24.6938V24.654C77.0425 24.3226 77.0067 23.9662 76.9712 23.5844H76.9714ZM77.0782 24.693C77.0784 24.6938 77.0785 24.6939 77.0785 24.6938L77.0782 24.693ZM76.9556 22.3733C77.0238 23.218 77.0945 23.9763 77.1676 24.6509V24.6929C77.1676 24.7605 77.0968 24.7955 76.9556 24.7955C76.8944 24.7955 76.8495 24.7628 76.8166 24.6998C76.4939 23.9624 76.103 23.4139 75.6436 23.0592C75.0783 22.6767 74.4307 22.4853 73.7054 22.4853C72.5724 22.4853 71.6609 22.9682 70.9662 23.9342C70.3539 24.7908 70.0477 25.8665 70.0477 27.1617C70.0477 28.5197 70.4505 29.6257 71.2561 30.4777C71.9578 31.2266 72.8198 31.6001 73.8351 31.6001C74.6781 31.6001 75.3917 31.4204 75.976 31.0608C76.4683 30.7551 76.9087 30.2954 77.2996 29.6794C77.3278 29.6351 77.3727 29.6118 77.4385 29.6118C77.5022 29.6118 77.5633 29.6351 77.6246 29.6794C77.6788 29.7169 77.707 29.7541 77.707 29.796C77.707 29.8381 77.6929 29.8777 77.6645 29.9197C76.7674 31.5624 75.4341 32.3839 73.6631 32.3839C72.0898 32.3839 70.832 31.8402 69.89 30.7505C69.0609 29.7983 68.6464 28.6105 68.6464 27.1894C68.6464 25.5722 69.1811 24.2726 70.2478 23.2947C71.1737 22.4383 72.3206 22.009 73.6915 22.009C74.3085 22.009 74.8596 22.0791 75.3472 22.219C75.7876 22.3497 76.162 22.4151 76.4659 22.4151C76.6071 22.4151 76.7697 22.4011 76.9558 22.373L76.9556 22.3733ZM64.8753 32.2567C64.2156 32.2321 63.5963 32.2136 63.017 32.2011C62.4446 32.1888 61.9005 32.1827 61.3845 32.1827C60.8091 32.1827 60.224 32.1888 59.629 32.2011C59.0249 32.2136 58.3987 32.2323 57.7511 32.2568L57.748 32.2569V32.2573C57.6782 32.2573 57.6252 32.2277 57.5893 32.1677C57.5621 32.1225 57.5483 32.061 57.5483 31.9826C57.5483 31.9133 57.5624 31.8565 57.5899 31.8123C57.6224 31.7603 57.6698 31.7287 57.7316 31.7167C57.7353 31.7161 57.7388 31.7158 57.7423 31.7154C57.9254 31.6971 58.0797 31.6776 58.2056 31.6564C58.3264 31.6358 58.4188 31.6143 58.4829 31.5911C58.5305 31.5702 58.5736 31.5451 58.6114 31.5154C58.6475 31.487 58.6788 31.4545 58.7045 31.4179L58.7042 31.4176C58.7532 31.3464 58.7912 31.1653 58.8181 30.8746C58.8463 30.5731 58.8602 30.1581 58.8602 29.6303V24.7204C58.8602 24.3528 58.8574 24.0583 58.8522 23.8358C58.8466 23.6022 58.8386 23.4338 58.8281 23.3311H58.8279C58.8191 23.2578 58.8052 23.1933 58.7865 23.1361C58.7682 23.0804 58.7447 23.0306 58.7166 22.9863L58.7164 22.9861C58.6697 22.9198 58.5648 22.8639 58.4013 22.8169C58.2208 22.7653 57.9759 22.7284 57.6662 22.7054L57.6592 22.7047C57.5947 22.6967 57.5444 22.6694 57.5086 22.6226C57.4755 22.5793 57.4586 22.5225 57.4586 22.4522C57.4586 22.3614 57.473 22.2904 57.5013 22.239L57.5016 22.2386L57.5013 22.2385C57.5394 22.1698 57.5966 22.1356 57.6724 22.1356C57.6761 22.1356 57.6798 22.136 57.6834 22.1362C58.1598 22.1586 58.6917 22.1754 59.2791 22.1868C59.851 22.1978 60.4905 22.2034 61.1983 22.2034C61.8527 22.2034 62.4573 22.1978 63.0131 22.1868C63.5869 22.1754 64.1238 22.1585 64.6237 22.1361C64.6709 22.1339 64.7111 22.1696 64.7158 22.2167C64.7752 22.7974 64.8253 23.2758 64.8662 23.6526C64.9065 24.021 64.937 24.2802 64.9581 24.43C64.9587 24.4343 64.9589 24.4386 64.9589 24.4428H64.9592V24.4826C64.9592 24.5591 64.9245 24.6167 64.8546 24.6545C64.8032 24.6824 64.7323 24.6964 64.6416 24.6964C64.5978 24.6964 64.5586 24.6835 64.5247 24.6586C64.4934 24.6354 64.4684 24.6029 64.4501 24.5611C64.4489 24.5585 64.448 24.5559 64.447 24.5533H64.4469C64.3458 24.2539 64.2221 23.9919 64.0755 23.7674C63.9301 23.5445 63.7623 23.3585 63.5723 23.2093L63.5699 23.2074C63.4094 23.0809 63.159 22.985 62.8192 22.9202C62.4701 22.8533 62.0284 22.82 61.4951 22.82C61.167 22.82 60.9039 22.847 60.7058 22.9005C60.521 22.9505 60.3968 23.022 60.3338 23.1147L60.3322 23.1171C60.2903 23.1821 60.2574 23.304 60.234 23.4827C60.2092 23.6718 60.1967 23.9219 60.1967 24.2326V26.6202C60.2677 26.6229 60.3544 26.6252 60.4569 26.6269C60.5926 26.6288 60.7777 26.63 61.0123 26.63C61.5147 26.63 61.9185 26.6069 62.2242 26.561C62.5187 26.5166 62.7171 26.4527 62.8201 26.3696L62.8246 26.3663C62.9343 26.2786 63.021 26.1669 63.0857 26.0314C63.1524 25.8911 63.1956 25.725 63.2156 25.5325L63.2158 25.5315H63.2156C63.2231 25.4659 63.2488 25.415 63.2928 25.3789C63.2949 25.377 63.2971 25.3754 63.2993 25.3739C63.3397 25.3433 63.3915 25.3276 63.4547 25.3276C63.5416 25.3276 63.6096 25.3421 63.659 25.3708C63.7251 25.4089 63.7579 25.4661 63.7579 25.5417C63.7579 25.5452 63.7576 25.5485 63.7573 25.552C63.7479 25.8682 63.741 26.1389 63.7364 26.3643C63.7319 26.5822 63.7296 26.766 63.7296 26.9161C63.7296 27.312 63.739 27.8362 63.7575 28.4841V28.4865H63.7579C63.7579 28.5623 63.7251 28.6193 63.659 28.6574C63.6096 28.686 63.5416 28.7005 63.4547 28.7005C63.3859 28.7005 63.3307 28.6809 63.2887 28.6421C63.2866 28.6401 63.2845 28.6383 63.2827 28.6361C63.2445 28.5979 63.2223 28.5464 63.2156 28.4818L63.2155 28.4799H63.2153C63.1949 28.2329 63.1491 28.0273 63.0775 27.864C63.0086 27.7067 62.9156 27.5881 62.7979 27.5092C62.7954 27.5075 62.7931 27.5059 62.7908 27.5039C62.6782 27.4256 62.4779 27.3657 62.1903 27.3239C61.8892 27.2802 61.4964 27.2585 61.0123 27.2585C60.8592 27.2585 60.7109 27.2607 60.5678 27.265C60.4473 27.2687 60.3236 27.2742 60.1968 27.2811V29.6324C60.1968 30.0851 60.2136 30.4487 60.2464 30.7229C60.2783 30.988 60.3234 31.1638 60.3813 31.2501L60.3819 31.2509C60.4258 31.3131 60.4807 31.3658 60.5465 31.409C60.6144 31.4537 60.6947 31.4889 60.7873 31.5145C60.885 31.5381 61.0103 31.5559 61.1641 31.568C61.3188 31.5802 61.5028 31.5865 61.7166 31.5865C62.0577 31.5865 62.3608 31.5744 62.6265 31.5505C62.8937 31.5266 63.1217 31.4912 63.3112 31.4446L63.3119 31.4445V31.4441C63.4697 31.4069 63.619 31.357 63.7595 31.2951C63.9003 31.2331 64.0332 31.1582 64.1579 31.0705L64.1586 31.07C64.3389 30.938 64.5139 30.759 64.6839 30.5332C64.8562 30.3039 65.0226 30.0278 65.183 29.7044C65.202 29.6623 65.2238 29.629 65.2496 29.6048C65.2838 29.5724 65.3225 29.5562 65.3671 29.5562C65.4723 29.5562 65.554 29.573 65.6126 29.607C65.6872 29.6502 65.7245 29.7153 65.7245 29.8026C65.7245 29.8115 65.7233 29.82 65.721 29.828L65.7079 29.8932H65.708C65.6231 30.2601 65.5188 30.6354 65.3955 31.0188C65.2713 31.4054 65.1281 31.7996 64.9667 32.2005C64.9515 32.2385 64.9136 32.2603 64.8752 32.2563L64.8753 32.2567ZM63.0205 32.0214C63.5876 32.0337 64.189 32.0516 64.8254 32.075C64.9762 31.697 65.1102 31.3262 65.2267 30.9635C65.3481 30.5858 65.451 30.2152 65.535 29.8528L65.5351 29.8529L65.5463 29.7971C65.5448 29.7826 65.5375 29.7714 65.5244 29.7639C65.4939 29.7461 65.4425 29.7372 65.3704 29.7371C65.3621 29.745 65.3534 29.7594 65.3442 29.78L65.3427 29.7828C65.1763 30.1187 65.0038 30.405 64.825 30.6428C64.6451 30.882 64.4578 31.073 64.2628 31.2159L64.2587 31.219C64.1245 31.3134 63.9816 31.3938 63.8305 31.4605C63.6791 31.5274 63.5195 31.5805 63.3523 31.6202L63.3522 31.6199C63.1519 31.6692 62.9153 31.7063 62.6419 31.7307C62.371 31.7551 62.0628 31.7674 61.7166 31.7674C61.4999 31.7674 61.3115 31.7609 61.1509 31.7483C60.9866 31.7354 60.8518 31.716 60.7458 31.6906L60.7417 31.6894C60.6318 31.659 60.5345 31.616 60.4499 31.5604C60.3651 31.5046 60.2944 31.4367 60.2376 31.3562L60.2346 31.3521C60.1602 31.2417 60.1052 31.0389 60.0699 30.7446C60.036 30.4629 60.0189 30.0921 60.0189 29.633V27.1969H60.019C60.019 27.1496 60.0554 27.1099 60.1026 27.107C60.2549 27.0976 60.4085 27.0907 60.5629 27.086C60.721 27.081 60.8709 27.0786 61.0123 27.0786C61.5035 27.0786 61.9045 27.1012 62.2154 27.1461C62.5303 27.1918 62.756 27.2621 62.892 27.3574L62.8959 27.3597C63.0422 27.4582 63.1565 27.6023 63.2394 27.7913C63.3197 27.9744 63.3705 28.1995 63.3925 28.4659H63.3924C63.3945 28.4858 63.399 28.4998 63.4057 28.5075L63.4081 28.5096C63.4161 28.5169 63.4316 28.5209 63.4547 28.5209C63.5108 28.5209 63.5497 28.5144 63.5714 28.5017C63.5771 28.4986 63.5799 28.4936 63.5799 28.4872H63.5801C63.5612 27.8247 63.5517 27.2997 63.5517 26.9168C63.5517 26.7869 63.5541 26.6017 63.5591 26.3616C63.5637 26.1328 63.5708 25.8615 63.58 25.5473L63.5799 25.5424C63.5799 25.5361 63.5771 25.5312 63.5714 25.5279C63.5495 25.5152 63.5107 25.509 63.4547 25.509C63.4319 25.509 63.416 25.512 63.4067 25.518L63.4046 25.5198C63.3981 25.525 63.394 25.5361 63.3921 25.5527L63.392 25.5526C63.3697 25.7657 63.3209 25.9516 63.2455 26.1103C63.1691 26.2708 63.0655 26.4033 62.9341 26.5082L62.9305 26.5113C62.8026 26.6148 62.576 26.6909 62.2498 26.74C61.9348 26.7873 61.5224 26.811 61.0121 26.811C60.8063 26.811 60.6204 26.8097 60.4546 26.8073C60.3043 26.805 60.1888 26.8015 60.1088 26.7971H60.1077C60.0586 26.7971 60.0188 26.7567 60.0188 26.7068V24.2333C60.0188 23.9177 60.032 23.6599 60.0582 23.46C60.0851 23.2538 60.1275 23.1064 60.1846 23.018L60.1878 23.013C60.2756 22.884 60.4333 22.7884 60.6605 22.727C60.874 22.6691 61.1523 22.6401 61.4949 22.6401C62.0379 22.6401 62.4903 22.6746 62.8516 22.7437C63.2191 22.8141 63.4947 22.9214 63.678 23.0657L63.6805 23.0677C63.8862 23.2291 64.0671 23.4292 64.2232 23.6683C64.3776 23.905 64.5078 24.1798 64.6136 24.4924C64.6184 24.5021 64.6233 24.5092 64.6286 24.5129C64.6316 24.5152 64.636 24.5164 64.6414 24.5164C64.7033 24.5164 64.7464 24.5095 64.7709 24.4962C64.7776 24.4927 64.781 24.4882 64.781 24.483V24.4485C64.7596 24.2962 64.7293 24.0375 64.6895 23.6728C64.6518 23.3277 64.6046 22.8761 64.5476 22.3198C64.0736 22.3403 63.563 22.3561 63.0155 22.3669C62.4367 22.3784 61.8306 22.3843 61.198 22.3843C60.5129 22.3843 59.872 22.3784 59.276 22.3669C58.6829 22.3555 58.1493 22.3386 57.6749 22.3165H57.6722C57.6653 22.3165 57.6599 22.32 57.656 22.327H57.6559C57.6429 22.351 57.6363 22.3928 57.6363 22.4526C57.6363 22.4821 57.6404 22.5023 57.6487 22.5132C57.6539 22.5198 57.6643 22.5242 57.6799 22.5262C58.0008 22.5501 58.257 22.5891 58.449 22.644C58.6533 22.7025 58.7906 22.7817 58.8613 22.883C58.8628 22.8851 58.8643 22.8872 58.8657 22.8894C58.9012 22.9453 58.9308 23.0087 58.9543 23.0801C58.9775 23.1503 58.9942 23.2267 59.0041 23.3097H59.004L59.0041 23.3115C59.015 23.4173 59.0234 23.5906 59.0291 23.8321C59.0347 24.0734 59.0378 24.3701 59.0378 24.7207V29.6306C59.0378 30.1597 59.0234 30.5802 58.9943 30.8919C58.9643 31.2144 58.9163 31.4242 58.8499 31.5208L58.8496 31.5205L58.8492 31.5212C58.8125 31.5737 58.7689 31.6192 58.7195 31.658C58.6689 31.6979 58.6122 31.731 58.5504 31.7575L58.5459 31.7594C58.471 31.787 58.3675 31.8116 58.2345 31.8341C58.1069 31.8558 57.9492 31.8757 57.7615 31.8945C57.7513 31.897 57.744 31.9014 57.7397 31.9085C57.7307 31.9231 57.7259 31.9478 57.7259 31.9829C57.7259 32.0278 57.7309 32.0582 57.7405 32.0744C57.7416 32.0761 57.744 32.077 57.7478 32.077V32.0774C58.3921 32.0528 59.018 32.0341 59.6253 32.0217C60.2425 32.0089 60.8292 32.0024 61.3842 32.0024C61.8809 32.0024 62.4262 32.0089 63.0203 32.0217L63.0205 32.0214ZM64.8844 32.167C63.5631 32.1179 62.3972 32.0924 61.3845 32.0924C60.254 32.0924 59.041 32.1179 57.748 32.167C57.6748 32.167 57.6372 32.1063 57.6372 31.9826C57.6372 31.8775 57.6748 31.8194 57.748 31.8052C58.1224 31.768 58.3767 31.7259 58.516 31.6747C58.6241 31.6278 58.7136 31.5603 58.7772 31.4693C58.8927 31.3013 58.9491 30.6877 58.9491 29.6306V24.7207C58.9491 23.9927 58.9373 23.526 58.9163 23.3206C58.8974 23.1643 58.855 23.0384 58.7915 22.9381C58.676 22.7678 58.304 22.6625 57.6727 22.6158C57.5901 22.6065 57.5479 22.5528 57.5479 22.4526C57.5479 22.301 57.5902 22.2263 57.6727 22.2263C58.6195 22.2706 59.7948 22.294 61.1985 22.294C62.4963 22.294 63.6386 22.2706 64.6277 22.2263C64.7479 23.4023 64.828 24.1422 64.8704 24.4431V24.4828C64.8704 24.5644 64.7949 24.6063 64.6419 24.6063C64.5925 24.6063 64.5547 24.5784 64.5312 24.5248C64.324 23.911 64.0224 23.449 63.6267 23.1385C63.283 22.8656 62.5716 22.7302 61.4952 22.7302C60.824 22.7302 60.4118 22.8423 60.261 23.064C60.1596 23.2156 60.1079 23.6052 60.1079 24.2331V26.7066C60.2705 26.7159 60.572 26.7207 61.0124 26.7207C62.0252 26.7207 62.6446 26.627 62.8755 26.4405C63.1203 26.2468 63.2616 25.9482 63.304 25.5422C63.3135 25.4605 63.363 25.4186 63.4548 25.4186C63.5984 25.4186 63.669 25.4606 63.669 25.5422C63.6502 26.1792 63.6408 26.6365 63.6408 26.9165C63.6408 27.3062 63.6502 27.8312 63.669 28.487C63.669 28.5687 63.5984 28.6106 63.4548 28.6106C63.3628 28.6106 63.3135 28.564 63.304 28.4731C63.2616 27.9596 63.1111 27.6121 62.847 27.4346C62.5999 27.2572 61.9874 27.1684 61.0124 27.1684C60.7179 27.1684 60.4165 27.1778 60.1079 27.1966V29.6327C60.1079 30.5473 60.1763 31.1052 60.3081 31.3011C60.4095 31.4457 60.5626 31.5463 60.7651 31.6022C60.9676 31.6513 61.2832 31.6768 61.7167 31.6768C62.4068 31.6768 62.9437 31.6277 63.3323 31.5323C63.6574 31.4552 63.9494 31.327 64.2084 31.1449C64.5852 30.8695 64.9363 30.4029 65.2635 29.7425C65.2918 29.6794 65.3248 29.6467 65.3672 29.6467C65.5462 29.6467 65.6357 29.6981 65.6357 29.803L65.6215 29.8732C65.452 30.6059 65.2048 31.3713 64.8844 32.167ZM46.8775 24.7206V29.9733C46.8775 30.3269 46.8959 30.6131 46.933 30.8312C46.9679 31.0369 47.0177 31.178 47.0822 31.2541C47.1915 31.3748 47.3792 31.4669 47.6457 31.53C47.9225 31.5956 48.2805 31.6288 48.7199 31.6288C49.454 31.6288 50.1011 31.5132 50.6617 31.2816C51.2199 31.0512 51.6931 30.7052 52.0817 30.2439C52.4144 29.8517 52.6641 29.3992 52.8311 28.8857C52.9986 28.3707 53.0824 27.7938 53.0824 27.1545C53.0824 26.4247 52.9709 25.779 52.7477 25.217C52.5254 24.6569 52.1918 24.1788 51.7468 23.7825C51.3695 23.4483 50.9376 23.1976 50.4514 23.03C49.964 22.8623 49.4215 22.7782 48.8234 22.7782C48.2884 22.7782 47.8697 22.8081 47.5676 22.867C47.2838 22.9227 47.1109 22.9996 47.0492 23.0979L47.0481 23.0999C46.9939 23.1819 46.9522 23.3547 46.9231 23.6185C46.8926 23.8927 46.8775 24.2598 46.8775 24.7205V24.7206ZM46.6996 29.9733V24.7206C46.6996 24.255 46.7152 23.8814 46.7465 23.599C46.7791 23.306 46.8305 23.1067 46.9009 22.9998C46.9908 22.8589 47.202 22.7554 47.5342 22.6903C47.8484 22.6288 48.2783 22.5979 48.8234 22.5979C49.4403 22.5979 50.0019 22.6853 50.5084 22.8597C51.0164 23.0345 51.4682 23.2971 51.8636 23.6474C52.33 24.0629 52.6796 24.5637 52.9123 25.15C53.1444 25.7342 53.2601 26.4024 53.2601 27.1545C53.2601 27.8126 53.1732 28.4085 52.9997 28.9421C52.8258 29.4778 52.5645 29.9504 52.2163 30.3609C51.8089 30.8447 51.3129 31.2071 50.7283 31.4485C50.1461 31.6889 49.4765 31.8091 48.7198 31.8091C48.2674 31.8091 47.8959 31.7743 47.6053 31.7055C47.3032 31.6338 47.0853 31.5239 46.9515 31.376L46.9516 31.3758L46.9501 31.374C46.8625 31.2725 46.7986 31.1015 46.7577 30.8613C46.7189 30.632 46.6995 30.3358 46.6995 29.9731L46.6996 29.9733ZM48.8659 22.1079C49.8431 22.1079 50.7038 22.2365 51.448 22.4939C52.1961 22.7524 52.8259 23.1406 53.3375 23.6581C53.7694 24.0943 54.0937 24.5996 54.3098 25.1743C54.5255 25.7478 54.6334 26.3899 54.6334 27.1009C54.6334 27.9359 54.4858 28.6811 54.1906 29.3362C53.8947 29.9926 53.4517 30.5569 52.8612 31.0289C52.3367 31.4478 51.731 31.7621 51.0438 31.9719C50.3591 32.1806 49.594 32.2851 48.7484 32.2851C48.3012 32.2851 47.8495 32.2711 47.391 32.2428C47.1585 32.2285 46.9344 32.2181 46.7183 32.2112C46.506 32.2045 46.2926 32.201 46.0775 32.201C45.8308 32.201 45.5697 32.2057 45.2938 32.2147C45.0141 32.224 44.7111 32.2379 44.3842 32.2567L44.3793 32.2568V32.2572C44.3065 32.2572 44.2515 32.2287 44.2135 32.1714C44.1829 32.1255 44.1678 32.0625 44.1678 31.9825C44.1678 31.9091 44.1833 31.8503 44.2145 31.8049C44.2503 31.7529 44.3019 31.7233 44.3696 31.7158L44.376 31.7152C44.6651 31.697 44.8962 31.6607 45.0685 31.607C45.2275 31.5572 45.3322 31.4948 45.3816 31.4194L45.3854 31.414C45.428 31.3477 45.4621 31.171 45.4871 30.8843C45.5135 30.5804 45.5269 30.1622 45.5269 29.6303V24.7204C45.5269 24.2111 45.5153 23.8092 45.4924 23.5149C45.4703 23.2316 45.4396 23.0543 45.4005 22.9833C45.3645 22.9217 45.2599 22.8672 45.0865 22.8198C44.8952 22.7676 44.63 22.7294 44.291 22.7053L44.2848 22.7047C44.2196 22.6968 44.1696 22.6696 44.1341 22.622C44.1014 22.5784 44.0854 22.5219 44.0854 22.4521C44.0854 22.3612 44.0991 22.2903 44.1268 22.2388C44.1641 22.1696 44.2207 22.1355 44.2969 22.1355C44.3005 22.1355 44.3042 22.1359 44.3078 22.1362C44.6714 22.1542 44.9936 22.1672 45.2748 22.176C45.5702 22.1851 45.8288 22.1892 46.0492 22.1892C46.2407 22.1892 46.4443 22.1862 46.6594 22.1796C46.8651 22.1732 47.0899 22.1636 47.3348 22.1499H47.3415C47.8249 22.1361 48.1983 22.1258 48.4617 22.1185C48.7264 22.1112 48.8612 22.1076 48.866 22.1076L48.8659 22.1079ZM51.391 22.6643C50.6658 22.4137 49.8242 22.2885 48.8659 22.2885C48.847 22.2885 48.7137 22.2919 48.4658 22.2988C48.2219 22.3053 47.8488 22.3159 47.3462 22.3299L47.3445 22.33C47.1036 22.3436 46.8768 22.3533 46.6641 22.3597C46.4335 22.3668 46.2292 22.3701 46.0491 22.3701C45.8402 22.3701 45.5808 22.3656 45.2698 22.3561C44.9827 22.3473 44.659 22.3342 44.299 22.3164H44.2967C44.2905 22.3164 44.2858 22.3196 44.2823 22.326C44.2695 22.3497 44.2631 22.3919 44.2631 22.4524C44.2631 22.4829 44.267 22.5035 44.275 22.514C44.2796 22.5202 44.2895 22.5243 44.3047 22.5261C44.6547 22.5511 44.9305 22.5911 45.1321 22.6461C45.3522 22.7061 45.4925 22.7881 45.553 22.8922L45.5537 22.8936C45.6064 22.9871 45.645 23.1898 45.6692 23.5011C45.6926 23.801 45.7044 24.2078 45.7044 24.7206V29.6305C45.7044 30.1675 45.6908 30.5908 45.6639 30.8999C45.6364 31.2159 45.5923 31.4209 45.5321 31.5147L45.5294 31.519C45.4564 31.6302 45.3199 31.7167 45.1204 31.779C44.9345 31.8371 44.6901 31.8759 44.3876 31.8948C44.3736 31.8968 44.3642 31.9011 44.3594 31.9078C44.3501 31.9214 44.3455 31.9463 44.3455 31.9826C44.3455 32.0264 44.3505 32.0556 44.3605 32.0708C44.3632 32.0749 44.3694 32.0768 44.379 32.0768C44.7005 32.0585 45.0033 32.0446 45.288 32.0352C45.578 32.0256 45.841 32.0207 46.0773 32.0207C46.2815 32.0207 46.4968 32.0243 46.7236 32.0316C46.9466 32.0388 47.1723 32.0492 47.4013 32.0633C47.8521 32.091 48.3003 32.1048 48.7481 32.1048C49.5769 32.1048 50.3251 32.0028 50.9928 31.7991C51.6581 31.5963 52.2443 31.2923 52.7512 30.8876C53.3195 30.433 53.7455 29.8912 54.029 29.2617C54.3131 28.6312 54.4552 27.9111 54.4552 27.101C54.4552 26.4118 54.3512 25.7913 54.1434 25.2388C53.9362 24.6877 53.6256 24.2035 53.2121 23.7857C52.72 23.2878 52.113 22.9141 51.3908 22.6643H51.391ZM46.7884 24.7206V29.9733C46.7884 30.6898 46.864 31.1378 47.0169 31.3152C47.2596 31.5835 47.8272 31.7188 48.7199 31.7188C50.2107 31.7188 51.353 31.2474 52.1491 30.3025C52.8298 29.4995 53.1714 28.4519 53.1714 27.1545C53.1714 25.6726 52.7168 24.5269 51.8053 23.7148C51.0328 23.0311 50.0389 22.688 48.8235 22.688C47.7425 22.688 47.1253 22.8095 46.9747 23.0498C46.85 23.2388 46.7886 23.7942 46.7886 24.7205L46.7884 24.7206ZM48.8659 22.198C50.802 22.198 52.2715 22.7069 53.2749 23.722C54.1204 24.5758 54.5444 25.7006 54.5444 27.1009C54.5444 28.7459 53.965 30.0317 52.8062 30.9582C51.7748 31.7816 50.4227 32.195 48.7483 32.195C48.3007 32.195 47.8508 32.1809 47.3962 32.153C46.9346 32.1248 46.4966 32.1108 46.0774 32.1108C45.5944 32.1108 45.0293 32.1294 44.3792 32.1669C44.2967 32.1669 44.2567 32.1061 44.2567 31.9825C44.2567 31.8728 44.2969 31.8145 44.3792 31.8051C44.9727 31.7679 45.333 31.6558 45.4554 31.469C45.5615 31.3152 45.6155 30.7013 45.6155 29.6304V24.7205C45.6155 23.696 45.5685 23.1009 45.4767 22.9379C45.3801 22.7721 44.9867 22.6648 44.2967 22.6156C44.2142 22.6062 44.1742 22.5526 44.1742 22.4523C44.1742 22.3008 44.2143 22.2261 44.2967 22.2261C45.048 22.2635 45.6321 22.2797 46.049 22.2797C46.4093 22.2797 46.838 22.2681 47.3394 22.2401C48.3335 22.2119 48.8421 22.1979 48.8658 22.1979L48.8659 22.198Z" fill="#2E355C"/>
<path id="Vector_3" d="M32.7006 27.0583L31.0073 24.4902L31.0072 24.4904C30.7256 24.0532 30.502 23.715 30.3369 23.4757C30.1702 23.2342 30.0595 23.0877 30.0056 23.0363L30.0028 23.0338C29.9129 22.945 29.7965 22.8741 29.6533 22.8201C29.5047 22.7638 29.3272 22.7259 29.1207 22.7057L29.1193 22.7056V22.7057C29.0532 22.698 29.0017 22.6708 28.9652 22.6232C28.9321 22.5798 28.9152 22.523 28.9152 22.4527C28.9152 22.3619 28.9296 22.2909 28.958 22.2395L28.9581 22.2392L28.958 22.239C28.9959 22.1703 29.0532 22.1362 29.129 22.1362C29.1329 22.1362 29.1367 22.1365 29.1403 22.1369C29.454 22.1601 29.7504 22.1776 30.0301 22.189C30.3098 22.2005 30.5801 22.2062 30.8413 22.2062C31.1478 22.2062 31.4505 22.2005 31.7492 22.189C32.0492 22.1775 32.3537 22.16 32.6622 22.1366L32.6688 22.1363C32.7477 22.1362 32.8076 22.1692 32.8483 22.2354C32.8805 22.2879 32.8968 22.36 32.8968 22.4527C32.8968 22.5252 32.8776 22.5833 32.8398 22.6275L32.8396 22.6276L32.8398 22.6277C32.8012 22.6726 32.7469 22.6986 32.6776 22.7057L32.6737 22.7059C32.4786 22.7242 32.318 22.7464 32.1918 22.7728C32.072 22.7978 31.9863 22.8258 31.9344 22.8571C31.8977 22.879 31.8703 22.9066 31.8526 22.9399C31.8343 22.9744 31.825 23.0165 31.825 23.0665C31.825 23.1513 31.8657 23.2802 31.9465 23.4529C32.0313 23.634 32.1589 23.8586 32.3289 24.1264L32.3313 24.1307L33.6319 26.1332C33.7188 26.0161 33.7898 25.9195 33.8458 25.8425C33.9287 25.7285 33.9876 25.6456 34.0229 25.5938C34.3834 25.0929 34.7267 24.5688 35.0812 24.0621L35.0811 24.062C35.247 23.8257 35.3716 23.6208 35.4545 23.448C35.5336 23.2834 35.573 23.152 35.573 23.0549C35.573 23.0037 35.5603 22.9613 35.5349 22.9275C35.5075 22.8911 35.4639 22.8612 35.4043 22.8382L35.399 22.8358C35.3334 22.8087 35.2401 22.7846 35.1186 22.7632C34.9919 22.7412 34.8353 22.7222 34.6491 22.7059C34.646 22.7058 34.643 22.7052 34.64 22.7049C34.5741 22.6966 34.5225 22.6711 34.4853 22.6277C34.4475 22.5835 34.4284 22.5254 34.4284 22.4527C34.4284 22.36 34.4446 22.2879 34.4767 22.2354C34.5175 22.1692 34.5776 22.1362 34.6564 22.1362C34.6601 22.1362 34.6639 22.1365 34.6674 22.1369C34.9673 22.1601 35.2534 22.1776 35.5257 22.189C35.7983 22.2005 36.0651 22.2062 36.3261 22.2062C36.5346 22.2062 36.7605 22.2005 37.0042 22.189C37.2475 22.1776 37.5163 22.16 37.8101 22.1366L37.817 22.1362C37.8931 22.1362 37.9496 22.1705 37.9869 22.2396C38.0147 22.2911 38.0284 22.3619 38.0284 22.4527C38.0284 22.5227 38.0122 22.5791 37.9796 22.6227C37.9438 22.6706 37.8929 22.698 37.8268 22.7057C37.8242 22.7058 37.8216 22.7061 37.819 22.7061C37.6212 22.7243 37.4423 22.7612 37.2825 22.8172C37.1238 22.8729 36.9837 22.9477 36.863 23.042L36.857 23.0462C36.804 23.0831 36.6902 23.2105 36.5153 23.4277C36.3336 23.6535 36.0918 23.9706 35.7892 24.3783L34.5057 26.1167C34.5034 26.1198 34.5009 26.1227 34.4983 26.1254C34.4798 26.145 34.4271 26.208 34.3405 26.3142C34.2644 26.4073 34.1568 26.5404 34.0194 26.7106L35.9928 29.7801C36.2963 30.2531 36.544 30.6247 36.736 30.8944C36.9243 31.1588 37.0569 31.3229 37.1334 31.3858L37.135 31.3873C37.24 31.4779 37.3661 31.5508 37.5132 31.6054C37.6639 31.6611 37.8363 31.6981 38.0299 31.7162H38.0312C38.1003 31.7236 38.1522 31.7531 38.1883 31.8046C38.2201 31.8501 38.2356 31.9095 38.2356 31.9829C38.2356 32.0631 38.2205 32.1259 38.1893 32.1723C38.1509 32.2293 38.0954 32.2576 38.0219 32.2576C38.0181 32.2576 38.0144 32.2572 38.0108 32.2569C37.6701 32.2388 37.3615 32.2257 37.0852 32.2171C36.7953 32.208 36.5322 32.2037 36.2976 32.2037C36.014 32.2037 35.7162 32.2079 35.4052 32.217C35.1041 32.2257 34.7822 32.2389 34.4391 32.2571L34.4346 32.2572V32.2576C34.358 32.2576 34.2985 32.231 34.2561 32.1775C34.2187 32.1303 34.1996 32.0656 34.1996 31.9829C34.1996 31.9066 34.219 31.8457 34.257 31.7993C34.2971 31.7508 34.3536 31.7231 34.4264 31.7162L34.4291 31.7159V31.7157C34.6066 31.7043 34.7535 31.6858 34.8692 31.6595C34.9783 31.6348 35.058 31.6041 35.108 31.5671L35.1115 31.5648C35.1479 31.5403 35.1749 31.5087 35.193 31.4697C35.2124 31.4276 35.2219 31.3752 35.2219 31.313C35.2219 31.2162 35.1798 31.0755 35.0952 30.891C35.007 30.6989 34.8745 30.4638 34.6973 30.1861L33.1129 27.6672C32.5435 28.5015 32.0067 29.3421 31.4513 30.1869C31.2753 30.4535 31.1432 30.6828 31.0556 30.8748C30.9717 31.0587 30.9297 31.2048 30.9297 31.313C30.9297 31.3765 30.9439 31.4288 30.9722 31.4701C31.0009 31.5121 31.0457 31.5455 31.1065 31.5703L31.1086 31.5711V31.571C31.1834 31.6032 31.2919 31.6309 31.4344 31.6549C31.5805 31.6794 31.7617 31.6995 31.9777 31.7157C31.9805 31.7159 31.9834 31.7162 31.9862 31.7168C32.0529 31.7252 32.1046 31.7538 32.1411 31.8029C32.175 31.8483 32.1921 31.9083 32.1921 31.9829C32.1921 32.0628 32.1762 32.1257 32.1449 32.1718C32.106 32.2291 32.0503 32.2576 31.9784 32.2576C31.9746 32.2576 31.9709 32.2572 31.9673 32.2569C31.6403 32.2388 31.3401 32.2255 31.0661 32.217C30.78 32.2079 30.5131 32.2037 30.2662 32.2037C30.0706 32.2037 29.8458 32.208 29.5928 32.2171C29.3505 32.2257 29.0756 32.2389 28.7684 32.2571L28.7636 32.2572V32.2576C28.6912 32.2576 28.6356 32.2291 28.5967 32.1718C28.5657 32.1259 28.5499 32.0629 28.5499 31.9829C28.5499 31.9094 28.566 31.8502 28.5978 31.8048C28.6342 31.7532 28.6864 31.7237 28.7539 31.7162C28.9315 31.6959 29.0874 31.6582 29.2213 31.6031C29.3519 31.549 29.4615 31.4785 29.5497 31.3911L29.5511 31.3897C29.6564 31.2898 29.804 31.1166 29.9939 30.8702C30.1872 30.6192 30.4219 30.2962 30.698 29.9009L30.6982 29.9005L30.698 29.9004L32.156 27.8252C32.1919 27.776 32.2395 27.7096 32.3 27.6238C32.3617 27.5363 32.4196 27.4537 32.4712 27.3787L32.4723 27.3771L32.4722 27.377C32.5379 27.2865 32.591 27.2128 32.6276 27.1614C32.6544 27.1238 32.6785 27.0897 32.7003 27.058L32.7006 27.0583ZM31.1558 24.3917L32.879 27.0055C32.9011 27.0356 32.9031 27.0776 32.8812 27.1103C32.8545 27.1499 32.818 27.2021 32.7718 27.2667C32.7206 27.3386 32.6701 27.4085 32.6157 27.4837L32.6156 27.4836C32.5414 27.5911 32.4856 27.6714 32.4449 27.7292C32.395 27.7996 32.3459 27.8681 32.2989 27.9327L30.8428 30.0052L30.8427 30.005C30.5631 30.4053 30.3268 30.7309 30.1339 30.981C29.9377 31.2357 29.7838 31.416 29.6723 31.5217C29.5676 31.6251 29.4396 31.7078 29.2884 31.7703C29.1397 31.8318 28.968 31.8736 28.7736 31.8953C28.7584 31.8969 28.748 31.9017 28.7426 31.9095C28.733 31.923 28.7281 31.9476 28.7281 31.9832C28.7281 32.0263 28.7334 32.0554 28.7436 32.0706C28.7467 32.075 28.7535 32.0773 28.764 32.0773C29.0658 32.0596 29.3402 32.0464 29.5869 32.0377C29.8531 32.028 30.0795 32.0235 30.2665 32.0235C30.5024 32.0235 30.7702 32.028 31.0713 32.0374C31.3526 32.0464 31.6547 32.0595 31.9775 32.0773H31.9787C31.9894 32.0773 31.9963 32.075 31.9993 32.0706C32.0094 32.0558 32.0146 32.0268 32.0146 31.9832C32.0146 31.9487 32.0095 31.9248 31.9997 31.9114C31.9935 31.9032 31.9821 31.8979 31.9659 31.8957H31.9655C31.7456 31.8792 31.5593 31.8584 31.4062 31.8327C31.2496 31.8064 31.1273 31.7748 31.0396 31.7368L31.0397 31.7367C30.9463 31.6985 30.8753 31.6437 30.8266 31.5728C30.777 31.5001 30.7522 31.4137 30.7522 31.3132C30.7522 31.1792 30.7998 31.0077 30.8948 30.7996C30.9862 30.5997 31.1227 30.3622 31.3044 30.0872L32.478 28.2823L33.0433 27.454C33.0499 27.4445 33.0584 27.436 33.0687 27.4294C33.1099 27.4027 33.1647 27.415 33.1909 27.4569L34.8464 30.0882C35.0288 30.3742 35.1656 30.6167 35.2569 30.8159C35.3527 31.0248 35.4003 31.1906 35.4003 31.3134C35.4003 31.4013 35.3849 31.4789 35.3539 31.5462C35.3221 31.6152 35.2744 31.6714 35.2106 31.7143C35.1405 31.7654 35.0396 31.8055 34.9079 31.8351C34.7818 31.8639 34.6259 31.8836 34.4407 31.8957C34.418 31.8981 34.4023 31.9046 34.3937 31.915C34.3833 31.9277 34.3781 31.9502 34.3781 31.9832C34.3781 32.0239 34.3836 32.051 34.3947 32.065C34.4012 32.0734 34.4148 32.0773 34.4351 32.0773C34.7732 32.0595 35.0952 32.0462 35.4009 32.0374C35.7282 32.028 36.027 32.0235 36.2981 32.0235C36.5213 32.0235 36.7853 32.028 37.0905 32.0377C37.3734 32.0464 37.6838 32.0596 38.0207 32.0773H38.0223C38.0334 32.0773 38.0404 32.0752 38.0432 32.0711C38.0533 32.056 38.0582 32.0269 38.0582 31.9832C38.0582 31.9472 38.0536 31.9226 38.0443 31.909C38.0391 31.9017 38.0287 31.8969 38.0129 31.8953C37.8041 31.8756 37.6174 31.8356 37.4533 31.7749C37.2857 31.7127 37.1411 31.6291 37.0201 31.5241C36.9317 31.4507 36.7891 31.2756 36.5925 30.9997C36.3982 30.7267 36.1488 30.3526 35.8445 29.8783L33.8392 26.7593C33.8148 26.727 33.8145 26.6806 33.8411 26.6476C33.9926 26.4595 34.1126 26.3111 34.2039 26.1993C34.2879 26.0966 34.3422 26.0315 34.3679 26.004L35.6478 24.2706C35.953 23.8593 36.1964 23.5402 36.3779 23.3144C36.5624 23.0853 36.6886 22.9465 36.7568 22.8986C36.8922 22.7929 37.0484 22.7095 37.2251 22.6475C37.3985 22.5866 37.5912 22.5468 37.8033 22.5275L37.8075 22.5269C37.8236 22.5251 37.834 22.5209 37.8388 22.5145C37.8467 22.504 37.8506 22.4834 37.8506 22.453C37.8506 22.392 37.8444 22.3497 37.8315 22.326C37.8285 22.3205 37.8243 22.3175 37.8189 22.3171C37.5329 22.3399 37.2638 22.3573 37.012 22.369C36.7587 22.3811 36.53 22.387 36.3263 22.387C36.0717 22.387 35.8026 22.3811 35.5189 22.369C35.2378 22.3573 34.9497 22.3399 34.6549 22.3169C34.6422 22.3174 34.6333 22.3219 34.6277 22.331C34.6135 22.354 34.6065 22.3946 34.6065 22.453C34.6065 22.4808 34.6108 22.4996 34.6196 22.5097C34.6269 22.5181 34.6406 22.5236 34.6603 22.5264L34.6639 22.5266C34.8543 22.5432 35.0158 22.5627 35.1487 22.5859C35.2832 22.6096 35.3893 22.6373 35.4671 22.6698L35.4678 22.67C35.559 22.7052 35.6283 22.7548 35.6762 22.8184C35.7263 22.885 35.7512 22.9638 35.7512 23.0551C35.7512 23.1798 35.7056 23.3375 35.6146 23.5272C35.528 23.7074 35.3985 23.9209 35.226 24.1667L35.2258 24.1665L34.1691 25.6964C34.1329 25.7494 34.0728 25.8339 33.9885 25.95C33.9072 26.0618 33.8101 26.1937 33.6984 26.3436H33.6981C33.6922 26.3515 33.6848 26.3586 33.676 26.3645C33.6352 26.3916 33.5803 26.3802 33.5535 26.3386L32.1838 24.2297L32.1797 24.2237C32.0059 23.9499 31.8744 23.7183 31.7862 23.5299C31.6938 23.3325 31.6474 23.1781 31.6474 23.0666C31.6474 22.9865 31.6639 22.9159 31.6965 22.8546C31.73 22.7917 31.7795 22.7408 31.8442 22.7022C31.9126 22.661 32.0165 22.6259 32.1566 22.5967C32.2885 22.5692 32.4555 22.546 32.6576 22.5271L32.6603 22.5268C32.6828 22.5245 32.698 22.5187 32.7059 22.5096L32.7062 22.5097C32.7148 22.4996 32.7191 22.4806 32.7191 22.4529C32.7191 22.3944 32.7119 22.3538 32.6979 22.3309C32.6923 22.3218 32.6833 22.3173 32.6707 22.3168C32.3685 22.3398 32.0634 22.3571 31.7557 22.3689C31.4448 22.381 31.1402 22.3869 30.8415 22.3869C30.5869 22.3869 30.3142 22.381 30.0234 22.3689C29.7355 22.3571 29.4373 22.3398 29.1282 22.3168C29.1218 22.3173 29.1168 22.3209 29.1132 22.3273H29.113C29.0999 22.3513 29.0933 22.3931 29.0933 22.4529C29.0933 22.4824 29.0976 22.5026 29.1058 22.5135C29.1111 22.5205 29.1224 22.525 29.139 22.5268V22.527C29.3604 22.5488 29.5523 22.5902 29.7153 22.6517C29.8822 22.7147 30.0191 22.7987 30.1265 22.9045L30.1273 22.9053C30.1893 22.9643 30.3078 23.1201 30.4822 23.3729C30.6549 23.6232 30.8798 23.9628 31.156 24.3916L31.1558 24.3917ZM32.8079 27.0594L31.0817 24.441C30.521 23.5706 30.182 23.0805 30.0665 22.9709C29.8687 22.7748 29.5576 22.658 29.1291 22.6161C29.0467 22.6068 29.0044 22.5531 29.0044 22.4529C29.0044 22.3013 29.0468 22.2266 29.1291 22.2266C29.7556 22.2732 30.3256 22.2967 30.8414 22.2967C31.4466 22.2967 32.0567 22.2732 32.669 22.2266C32.7608 22.2266 32.8078 22.3013 32.8078 22.4529C32.8078 22.5532 32.7607 22.6068 32.669 22.6161C32.2686 22.6536 32.0097 22.7073 31.8893 22.7796C31.788 22.8401 31.7363 22.9359 31.7363 23.0665C31.7363 23.2627 31.9106 23.6335 32.2545 24.1749L33.6275 26.2892C33.8725 25.9603 34.0278 25.7454 34.0962 25.6452L35.1537 24.1143C35.493 23.6312 35.6624 23.2767 35.6624 23.055C35.6624 22.9127 35.5872 22.8124 35.4364 22.754C35.2928 22.6931 35.0337 22.6488 34.6569 22.6162C34.5648 22.6069 34.5178 22.5532 34.5178 22.453C34.5178 22.3014 34.5649 22.2267 34.6569 22.2267C35.255 22.2733 35.811 22.2968 36.3267 22.2968C36.7389 22.2968 37.2357 22.2733 37.8176 22.2267C37.9 22.2267 37.9399 22.3014 37.9399 22.453C37.9399 22.5533 37.8999 22.6069 37.8176 22.6162C37.403 22.6537 37.0662 22.7704 36.8093 22.971C36.6893 23.0528 36.3266 23.5054 35.719 24.3244L34.4353 26.0629C34.3928 26.1072 34.2188 26.3218 33.9101 26.7046L35.919 29.8292C36.5267 30.7765 36.9131 31.3202 37.078 31.4555C37.3041 31.6516 37.6196 31.7683 38.0224 31.8054C38.1072 31.8148 38.1472 31.8732 38.1472 31.9828C38.1472 32.1064 38.1071 32.1672 38.0224 32.1672C37.3205 32.1297 36.7435 32.1135 36.2983 32.1135C35.7567 32.1135 35.1349 32.1297 34.4353 32.1672C34.3388 32.1672 34.2894 32.1064 34.2894 31.9828C34.2894 31.8731 34.3389 31.8148 34.4353 31.8054C34.7981 31.7821 35.0407 31.7284 35.1609 31.6399C35.2622 31.5721 35.3116 31.4626 35.3116 31.313C35.3116 31.0937 35.1326 30.7018 34.7721 30.137L33.1163 27.5047L32.551 28.333L31.3781 30.1369C31.0202 30.6784 30.8412 31.0703 30.8412 31.3129C30.8412 31.4763 30.9187 31.5908 31.0743 31.6538C31.2368 31.7238 31.5358 31.7726 31.9716 31.8053C32.0588 31.8146 32.1033 31.8731 32.1033 31.9827C32.1033 32.1063 32.0609 32.167 31.9786 32.167C31.3074 32.1295 30.7375 32.1134 30.2664 32.1134C29.8944 32.1134 29.3926 32.1295 28.7638 32.167C28.6814 32.167 28.6391 32.1063 28.6391 31.9827C28.6391 31.873 28.6815 31.8146 28.7638 31.8053C29.1358 31.7633 29.4185 31.6467 29.6117 31.4554C29.8283 31.25 30.2147 30.7485 30.7704 29.9527L32.2261 27.8805C32.3063 27.7709 32.4121 27.6214 32.544 27.4301C32.6642 27.2644 32.7514 27.1431 32.8078 27.0592L32.8079 27.0594ZM20.3139 23.8016C20.2979 23.8464 20.2808 23.8933 20.2629 23.9424C20.2116 24.0822 20.1442 24.2621 20.0613 24.48L20.0616 24.4803C19.9691 24.7258 19.8956 24.9228 19.8365 25.0823C19.787 25.2159 19.7288 25.3747 19.6756 25.5201L19.6733 25.5258L18.9161 27.6311C19.0623 27.6374 19.2355 27.6425 19.4356 27.646C19.6838 27.6505 19.9913 27.6526 20.3576 27.6526C20.6924 27.6526 20.9726 27.6505 21.1986 27.646C21.3755 27.6427 21.5294 27.6378 21.66 27.6314C21.3718 26.8372 21.0713 26.0445 20.8006 25.2442C20.6514 24.8031 20.4939 24.3374 20.3139 23.8015V23.8016ZM20.0962 23.8797C20.1534 23.7232 20.1981 23.5971 20.2298 23.5019C20.2375 23.4743 20.2579 23.451 20.2868 23.441C20.3332 23.4251 20.3836 23.4504 20.3994 23.4975C20.5852 24.0514 20.783 24.6364 20.9687 25.1858L21.0614 25.4597L21.8684 27.6841C21.8714 27.6922 21.8732 27.7008 21.8736 27.7098C21.8766 27.7595 21.8392 27.802 21.7903 27.8051C21.6396 27.8142 21.4433 27.8213 21.2015 27.8261C20.9518 27.8309 20.6705 27.8334 20.3577 27.8334C20.0155 27.8334 19.707 27.8309 19.433 27.8261C19.1683 27.8213 18.9528 27.8142 18.7868 27.8051C18.7783 27.8045 18.7698 27.8027 18.7614 27.7996C18.7153 27.7828 18.6915 27.7312 18.7082 27.6844L19.5066 25.4645L19.5089 25.4575C19.5428 25.3651 19.5917 25.2321 19.6704 25.0191C19.7399 24.8319 19.8158 24.6278 19.8955 24.4163H19.8956L19.8958 24.4158C19.9683 24.2256 20.0349 24.0472 20.0962 23.8798V23.8797ZM21.9071 28.3597C21.5978 28.3434 21.3185 28.3311 21.0687 28.3227C20.8068 28.3139 20.5699 28.3093 20.3576 28.3093C20.0415 28.3093 19.7416 28.3137 19.4575 28.3223C19.1839 28.3308 18.916 28.3432 18.654 28.3591L18.0945 29.8732C17.988 30.1532 17.9079 30.3999 17.8543 30.6131C17.8019 30.8214 17.7757 30.9952 17.7757 31.1337C17.7757 31.2385 17.793 31.3251 17.8279 31.3942C17.8608 31.4599 17.9104 31.5106 17.9766 31.5471L17.9771 31.5474C18.0526 31.5869 18.1638 31.6206 18.3109 31.6484C18.4637 31.6775 18.6533 31.6998 18.8798 31.7159L18.8859 31.7165C18.9523 31.7246 19.0037 31.754 19.0397 31.8051C19.0715 31.8505 19.0877 31.9097 19.0877 31.9832C19.0877 32.0631 19.0717 32.1259 19.0404 32.1721L19.0402 32.1724L19.0404 32.1725C19.0018 32.2296 18.9461 32.2578 18.8739 32.2578C18.8705 32.2578 18.8672 32.2575 18.864 32.2572C18.3542 32.2433 17.9588 32.2328 17.6773 32.226C17.4038 32.219 17.2367 32.2158 17.1757 32.2158C16.914 32.2158 16.668 32.219 16.4381 32.226C16.204 32.2327 15.976 32.2433 15.7541 32.2573L15.7486 32.2576V32.2578C15.6763 32.2578 15.6207 32.2296 15.5819 32.1725C15.5804 32.1703 15.5791 32.168 15.5778 32.1656C15.5492 32.12 15.5347 32.0594 15.5347 31.9832C15.5347 31.9096 15.5509 31.8505 15.5826 31.8051C15.619 31.7534 15.6713 31.724 15.7388 31.7164L15.7403 31.7162C15.9197 31.6915 16.0726 31.6527 16.1991 31.6001C16.3216 31.5491 16.4192 31.485 16.4917 31.4081C16.591 31.3009 16.709 31.11 16.8449 30.836C16.9822 30.559 17.1368 30.199 17.3073 29.7568L17.309 29.7527L18.977 25.3754H18.9769C19.2571 24.6307 19.4855 24.0137 19.6613 23.5244C19.8393 23.0291 19.9673 22.6548 20.0444 22.4011C20.052 22.3761 20.0692 22.3569 20.0907 22.3464L20.8985 21.9497C20.911 21.9437 20.9241 21.9408 20.9371 21.9408V21.9404C20.9919 21.9404 21.0385 21.9584 21.0763 21.9939C21.1102 22.0257 21.1343 22.0699 21.1481 22.126V22.1261C21.2916 22.6026 21.4553 23.1176 21.6388 23.6714C21.8231 24.228 22.026 24.8188 22.2474 25.4442H22.2475L23.835 29.8687C23.9814 30.2764 24.112 30.6104 24.226 30.8701C24.3385 31.1261 24.4342 31.3083 24.5128 31.4162L24.5141 31.4182H24.5143C24.5676 31.4951 24.6692 31.5584 24.8194 31.6081C24.9813 31.6619 25.1956 31.6979 25.4628 31.7161L25.4644 31.7163L25.4645 31.7161C25.5406 31.7229 25.5994 31.7496 25.6413 31.7969C25.6829 31.8435 25.7035 31.9056 25.7035 31.9833C25.7035 32.0669 25.6843 32.1319 25.6456 32.1792C25.6026 32.232 25.5421 32.2579 25.4638 32.2579C25.4604 32.2579 25.4572 32.2576 25.4539 32.2573C24.9286 32.2435 24.5144 32.2329 24.2108 32.2261C23.9141 32.2191 23.7181 32.2159 23.622 32.2159C23.5366 32.2159 23.3481 32.2191 23.0567 32.2261C22.757 32.2329 22.3432 32.2436 21.8151 32.2575H21.8129V32.2579C21.7407 32.2579 21.6852 32.2297 21.6464 32.1727C21.6449 32.1704 21.6435 32.1681 21.6422 32.1657C21.6137 32.1201 21.5992 32.0595 21.5992 31.9833C21.5992 31.9094 21.6154 31.8494 21.6475 31.804C21.6843 31.7515 21.7374 31.7218 21.8057 31.7161L21.8092 31.7158C22.0485 31.6975 22.244 31.6723 22.3952 31.6405C22.5386 31.6102 22.6397 31.5751 22.6983 31.5347V31.5346C22.7355 31.5072 22.7637 31.4696 22.7827 31.4212C22.804 31.3673 22.8147 31.2989 22.8147 31.2154C22.8147 31.1364 22.7887 31.002 22.7368 30.8122C22.6834 30.617 22.6028 30.3647 22.4947 30.0553L22.4933 30.0509L21.9069 28.3597H21.9071ZM21.0744 28.1429C21.3464 28.1521 21.6466 28.1657 21.9756 28.183C22.0105 28.1848 22.0426 28.2077 22.0548 28.2434L22.6608 29.9911L22.6624 29.9954C22.771 30.3065 22.8528 30.5628 22.9079 30.7643C22.9644 30.9713 22.9928 31.1215 22.9928 31.2154C22.9928 31.3209 22.9776 31.4111 22.9476 31.4875C22.9154 31.5692 22.867 31.6332 22.8028 31.6804L22.8027 31.6802L22.801 31.6816C22.7228 31.7362 22.5997 31.7813 22.4317 31.8164C22.2717 31.8503 22.0687 31.8764 21.8231 31.8954L21.8206 31.8957C21.8067 31.8968 21.7972 31.901 21.7923 31.9082C21.7825 31.9221 21.7774 31.9474 21.7774 31.9832C21.7774 32.0241 21.782 32.0522 21.7909 32.0677L21.7928 32.0704C21.7958 32.0749 21.8028 32.0773 21.8133 32.0773V32.0777C22.3373 32.0638 22.7506 32.0531 23.0535 32.0462C23.365 32.0389 23.5545 32.0353 23.6223 32.0353C23.7005 32.0353 23.8977 32.0389 24.2147 32.0462C24.5217 32.0531 24.9363 32.0635 25.459 32.0776L25.4642 32.0773C25.487 32.0773 25.502 32.0731 25.509 32.0643C25.5204 32.0505 25.5259 32.0234 25.5259 31.9832C25.5259 31.9514 25.5206 31.9293 25.5098 31.9171C25.4992 31.9053 25.4793 31.8982 25.4495 31.8957V31.8955C25.1685 31.8763 24.9404 31.8375 24.7648 31.7794C24.5771 31.7171 24.4454 31.6313 24.3694 31.5217C24.2834 31.403 24.1817 31.2099 24.0645 30.9432C23.9484 30.679 23.8162 30.3411 23.6686 29.9301L22.0811 25.5057H22.0812L22.0811 25.5052C21.8575 24.8731 21.654 24.2809 21.471 23.7285C21.2884 23.1773 21.1244 22.6608 20.9791 22.1786C20.9779 22.1754 20.977 22.1723 20.9762 22.169C20.9711 22.148 20.9645 22.1338 20.9566 22.1263C20.9553 22.1254 20.9538 22.1243 20.9521 22.1235L20.2028 22.4913C20.1237 22.7473 19.9987 23.1118 19.8284 23.5857C19.6475 24.0894 19.419 24.7066 19.1433 25.4392H19.1431L17.4747 29.8174L17.473 29.8223C17.3008 30.269 17.1439 30.6341 17.0036 30.917C16.86 31.2065 16.7322 31.4116 16.6212 31.5315L16.6209 31.5317C16.5309 31.6273 16.413 31.7054 16.2668 31.7662C16.1262 31.8249 15.9589 31.8677 15.7647 31.8943L15.7586 31.8951C15.7434 31.8968 15.733 31.9016 15.7275 31.9094C15.7179 31.9229 15.7129 31.9475 15.7129 31.9831C15.7129 32.024 15.7175 32.052 15.7265 32.0676L15.7282 32.0703C15.7314 32.0748 15.7383 32.0772 15.7488 32.0772C15.9656 32.0634 16.1939 32.053 16.4336 32.0461C16.6793 32.0387 16.9269 32.0352 17.176 32.0352C17.2211 32.0352 17.3895 32.0387 17.6819 32.0461C17.9634 32.053 18.3592 32.0634 18.8691 32.0774L18.8743 32.0772C18.8848 32.0772 18.8918 32.0748 18.8948 32.0703L18.8951 32.0704C18.9051 32.0553 18.9102 32.0263 18.9102 31.9831C18.9102 31.9475 18.9052 31.9229 18.8957 31.9094C18.8903 31.9018 18.8805 31.8973 18.8661 31.8954C18.6344 31.8787 18.4385 31.8557 18.2786 31.8253C18.1153 31.7943 17.9878 31.7549 17.8964 31.707L17.8924 31.7048C17.7935 31.6504 17.7195 31.5744 17.6699 31.4759C17.6222 31.381 17.5983 31.2671 17.5983 31.1336C17.5983 30.9803 17.6264 30.7917 17.6825 30.5687C17.7373 30.3509 17.8196 30.0975 17.9297 29.8083L18.5067 28.2466C18.5172 28.2115 18.5481 28.1852 18.5861 28.1828C18.8626 28.1651 19.1517 28.1516 19.4532 28.1424C19.7524 28.1334 20.0541 28.1286 20.3581 28.1286C20.5602 28.1286 20.7993 28.1335 21.0749 28.1427L21.0744 28.1429ZM20.3152 23.5264C20.2468 23.7317 20.1339 24.0397 19.9784 24.4481C19.8065 24.9055 19.6792 25.251 19.5921 25.4889L18.7915 27.7149C19.1259 27.7336 19.6488 27.7429 20.3576 27.7429C21.0054 27.7429 21.4812 27.7336 21.7851 27.7149L20.9772 25.4889C20.7722 24.8822 20.5509 24.2286 20.3153 23.5263L20.3152 23.5264ZM21.9711 28.2729C21.3092 28.2376 20.7721 28.2191 20.3576 28.2191C19.7313 28.2191 19.1422 28.2376 18.5912 28.2729L18.012 29.8409C17.7953 30.4102 17.6869 30.8419 17.6869 31.1336C17.6869 31.3716 17.7693 31.5351 17.9343 31.6259C18.1014 31.7147 18.4148 31.7728 18.8739 31.8055C18.9564 31.8149 18.9986 31.8733 18.9986 31.9829C18.9986 32.1065 18.9562 32.1673 18.8739 32.1673C17.847 32.1392 17.2817 32.1252 17.1757 32.1252C16.6647 32.1252 16.1889 32.1392 15.7486 32.1673C15.666 32.1673 15.6237 32.1065 15.6237 31.9829C15.6237 31.8732 15.6661 31.8149 15.7486 31.8055C16.1253 31.7541 16.3938 31.6423 16.5563 31.4694C16.7659 31.2433 17.0461 30.6808 17.3899 29.7894L19.0598 25.407C19.6158 23.9299 19.9737 22.9383 20.1292 22.4271L20.937 22.0304C21.0006 22.0304 21.043 22.0702 21.0618 22.1469C21.3513 23.1084 21.7187 24.2169 22.164 25.4747L23.7514 29.8991C24.0458 30.7179 24.2767 31.2433 24.4414 31.4694C24.5708 31.656 24.9077 31.7683 25.4567 31.8055C25.5625 31.8149 25.6144 31.8733 25.6144 31.9829C25.6144 32.1065 25.5649 32.1673 25.4637 32.1673C24.4086 32.1392 23.7962 32.1252 23.6219 32.1252C23.4688 32.1252 22.8658 32.1392 21.8129 32.1673C21.7305 32.1673 21.6882 32.1065 21.6882 31.9829C21.6882 31.8732 21.7306 31.8126 21.8129 31.8055C22.3007 31.7683 22.6138 31.703 22.7503 31.6074C22.8519 31.5326 22.9035 31.4042 22.9035 31.2153C22.9035 31.0428 22.7951 30.6459 22.5784 30.0251L21.9708 28.2729H21.9711ZM9.72301 22.1789C9.88137 22.1833 10.057 22.1868 10.2503 22.1891C10.4281 22.1912 10.6451 22.1922 10.9023 22.1922C11.1042 22.1922 11.3237 22.1877 11.5606 22.1787C11.799 22.1694 12.0628 22.1556 12.3523 22.1367L12.3578 22.1364V22.1363C12.4358 22.1363 12.4946 22.1674 12.535 22.2303C12.5673 22.281 12.5834 22.3502 12.5834 22.4388C12.5834 22.5142 12.5659 22.5743 12.5304 22.6205C12.4921 22.6703 12.4377 22.6985 12.3666 22.7058L12.363 22.7059C12.0682 22.7243 11.8347 22.7598 11.6625 22.8134C11.5048 22.8625 11.4028 22.9243 11.3569 22.9995L11.3564 23.0001C11.3052 23.0833 11.2663 23.2084 11.2398 23.3759C11.2121 23.5497 11.1985 23.7679 11.1985 24.0304V24.203L11.1983 24.2098L11.2595 29.6304C11.2617 29.9904 11.2676 30.2885 11.2766 30.5248C11.2855 30.759 11.2976 30.9297 11.3126 31.0371C11.3258 31.1148 11.3444 31.1851 11.3679 31.2487C11.3907 31.3107 11.4182 31.3665 11.4498 31.417C11.4821 31.46 11.5225 31.4972 11.5706 31.529C11.6208 31.5619 11.6788 31.5884 11.7445 31.6092C11.8164 31.6281 11.915 31.6469 12.041 31.665C12.1683 31.6832 12.3197 31.7005 12.4952 31.7164L12.5004 31.717V31.7165C12.5706 31.7271 12.624 31.7563 12.6617 31.8048C12.6977 31.8511 12.7153 31.9105 12.7153 31.9832C12.7153 32.0649 12.6981 32.1289 12.6627 32.1761C12.6218 32.2306 12.5637 32.2578 12.4875 32.2578C12.4838 32.2578 12.4802 32.2575 12.4766 32.2571C12.1061 32.239 11.7697 32.226 11.4671 32.2173C11.1518 32.2081 10.8644 32.2039 10.6055 32.2039C10.3496 32.2039 10.0716 32.2081 9.77273 32.2172C9.48412 32.226 9.16763 32.2391 8.82258 32.2573L8.81797 32.2575V32.2578C8.75078 32.2578 8.70047 32.2267 8.66741 32.1637V32.1636L8.66705 32.1637C8.64414 32.1197 8.63245 32.0596 8.63245 31.9832C8.63245 31.9155 8.64438 31.8605 8.66776 31.8176C8.69716 31.7635 8.74121 31.7304 8.79919 31.7177C8.80392 31.7167 8.80852 31.7162 8.81301 31.7157C9.10469 31.6931 9.33544 31.6547 9.50549 31.6007C9.66172 31.5512 9.76151 31.4917 9.8052 31.4218L9.80556 31.4212C9.85622 31.3413 9.89483 31.2011 9.92152 31.0012C9.94939 30.7933 9.96321 30.5232 9.96321 30.191L9.96344 30.1837L9.92388 23.8011H9.90912L7.78693 28.6085L7.78705 28.6086C7.54968 29.139 7.3089 29.6924 7.06481 30.2692C6.82178 30.8435 6.5732 31.4463 6.31883 32.0778L6.31706 32.0821C6.29143 32.1401 6.25211 32.1843 6.19968 32.2146C6.14996 32.2433 6.09056 32.2578 6.02231 32.2578C5.96952 32.2578 5.92264 32.2405 5.88131 32.2061C5.84576 32.1767 5.81577 32.1351 5.79121 32.082L5.78932 32.0777L5.78908 32.0778C5.53212 31.4359 5.29263 30.8498 5.07062 30.3204C4.84897 29.7915 4.64077 29.3099 4.44569 28.875C4.44451 28.8726 4.44356 28.8702 4.44274 28.8676L2.22005 23.8011H2.21225L2.17293 29.6312H2.17328V29.8644C2.17328 30.2844 2.18946 30.6262 2.22194 30.8899C2.25311 31.1424 2.29787 31.3191 2.3562 31.4206C2.38502 31.4631 2.42222 31.4995 2.46745 31.5304C2.51551 31.563 2.57266 31.5895 2.63891 31.6102C2.70693 31.6289 2.80046 31.6473 2.92056 31.6655C3.04113 31.6837 3.18354 31.7008 3.34792 31.7168C3.42079 31.7237 3.47664 31.7515 3.51608 31.8001C3.55364 31.8466 3.57218 31.9076 3.57218 31.9835C3.57218 32.0659 3.55399 32.1304 3.51715 32.1778C3.47523 32.2316 3.41618 32.2582 3.33954 32.2582C3.33576 32.2582 3.33198 32.2578 3.32832 32.2575C2.99696 32.2395 2.70835 32.2263 2.46166 32.2178C2.20103 32.2086 1.97985 32.2043 1.79929 32.2043C1.56854 32.2043 1.31973 32.2085 1.05438 32.2176C0.799306 32.2263 0.520968 32.2395 0.219484 32.2577L0.214288 32.2578V32.2582C0.1406 32.2582 0.0852159 32.2299 0.0467185 32.1729C0.0156609 32.1265 0.000427246 32.0635 0.000427246 31.9835C0.000427246 31.91 0.015897 31.8507 0.0477813 31.8052C0.0837988 31.7537 0.135876 31.7242 0.204841 31.7168L0.21169 31.7162C0.458026 31.6935 0.656771 31.6545 0.807454 31.599C0.947155 31.5475 1.04186 31.4837 1.09111 31.4077C1.13716 31.3241 1.17637 31.2324 1.20872 31.1326C1.24191 31.0307 1.2673 30.9228 1.28513 30.8088H1.28501C1.30261 30.6863 1.31784 30.526 1.33036 30.3283C1.34287 30.1292 1.35279 29.8961 1.35976 29.6292L1.48458 24.045H1.48423V23.9164C1.48423 23.6823 1.47018 23.4878 1.44231 23.3336C1.4155 23.186 1.37688 23.0765 1.32658 23.0054L1.32528 23.0034C1.27202 22.9376 1.16444 22.8803 1.00254 22.831C0.823751 22.7765 0.585681 22.7348 0.288213 22.7064L0.286914 22.7063L0.286795 22.7064C0.220665 22.6988 0.169296 22.6716 0.132806 22.6239C0.0997409 22.5805 0.0828541 22.5238 0.0828541 22.4534C0.0828541 22.3627 0.097261 22.2916 0.125603 22.2402C0.163628 22.1712 0.220901 22.1369 0.296597 22.1369C0.300376 22.1369 0.304155 22.1372 0.307697 22.1376C0.670706 22.1563 0.976677 22.17 1.22514 22.1793C1.47254 22.1883 1.66868 22.1928 1.81323 22.1928C2.06417 22.1928 2.28122 22.1918 2.46532 22.1897C2.66832 22.1874 2.85974 22.1838 3.04054 22.1793C3.08187 22.1782 3.11718 22.2061 3.12804 22.2446H3.12816C3.20598 22.5198 3.29136 22.7885 3.38465 23.0501C3.47759 23.3111 3.57914 23.5676 3.68932 23.8197C3.69039 23.8219 3.69133 23.8245 3.69216 23.8267L5.62718 28.3648L5.62742 28.3647C5.68315 28.4895 5.7494 28.6412 5.82604 28.8182C5.90634 29.004 5.98806 29.195 6.07096 29.3906C6.07191 29.3929 6.07285 29.3952 6.07356 29.3977L6.10639 29.4764C6.21857 29.7458 6.30596 29.9558 6.37551 30.1213C6.53919 29.7338 6.68066 29.4031 6.79993 29.1288C6.93999 28.807 7.05406 28.5529 7.1418 28.3664L8.96476 24.0122L8.96688 24.0072C9.08438 23.741 9.19928 23.4589 9.31111 23.1614C9.422 22.8669 9.52852 22.5604 9.6309 22.2413C9.64389 22.2007 9.68286 22.1759 9.72313 22.1796L9.72301 22.1789ZM10.2489 22.3688C10.0768 22.367 9.92034 22.364 9.77911 22.3601C9.68156 22.6609 9.58095 22.9491 9.47715 23.2248C9.36567 23.5212 9.24947 23.8061 9.12878 24.0798L7.305 28.4362L7.30488 28.4361L7.30323 28.4396C7.22045 28.6151 7.10696 28.8685 6.96242 29.2006C6.82024 29.5276 6.6522 29.9208 6.45889 30.3804C6.45074 30.4029 6.43385 30.4222 6.41047 30.4324C6.36536 30.452 6.31305 30.4309 6.2938 30.3852C6.24101 30.2616 6.11997 29.9705 5.94307 29.5455L5.91024 29.4667L5.90752 29.461C5.81187 29.2353 5.73051 29.0447 5.66331 28.8894C5.59163 28.7236 5.52562 28.5727 5.4654 28.4379L5.46563 28.4378L3.52955 23.8974L3.52683 23.8915C3.41594 23.6382 3.31309 23.3778 3.21791 23.1106C3.12993 22.8637 3.04951 22.6134 2.97641 22.3599C2.81676 22.3639 2.64694 22.3667 2.46674 22.3686C2.24178 22.3713 2.02414 22.3727 1.81323 22.3727C1.67707 22.3727 1.4788 22.3678 1.21888 22.3582C0.965341 22.3489 0.658425 22.335 0.298723 22.3165H0.296597C0.28963 22.3165 0.284316 22.3199 0.280537 22.3268C0.267429 22.3506 0.260698 22.3925 0.260698 22.4526C0.260698 22.4822 0.264949 22.5023 0.273215 22.5132C0.278529 22.5203 0.28963 22.5247 0.30628 22.5265V22.5268C0.615912 22.5566 0.864964 22.6001 1.05332 22.6573C1.25041 22.7174 1.38728 22.7952 1.46356 22.8902C1.46628 22.8932 1.46876 22.8962 1.47112 22.8995C1.53642 22.9919 1.58508 23.1257 1.61661 23.3003C1.64684 23.4673 1.66207 23.6725 1.66207 23.9156V24.0441H1.66184C1.65109 25.901 1.56465 27.7733 1.53701 29.6327C1.52981 29.9076 1.51989 30.143 1.50749 30.3388C1.49462 30.5417 1.47903 30.7067 1.46085 30.8334H1.46073L1.46049 30.8348C1.44077 30.9606 1.41326 31.0786 1.37759 31.1881C1.34228 31.2966 1.29824 31.3988 1.24533 31.4948C1.2438 31.4981 1.24203 31.5012 1.24002 31.5044C1.16916 31.6146 1.04493 31.7022 0.867916 31.7673C0.703535 31.8279 0.48991 31.8702 0.227632 31.8942L0.223617 31.8948C0.207911 31.8964 0.197519 31.9012 0.192323 31.9085C0.182876 31.9221 0.178271 31.9468 0.178271 31.9827C0.178271 32.0264 0.183231 32.0555 0.193386 32.0706C0.196102 32.0747 0.20307 32.0768 0.214288 32.0768C0.509749 32.0591 0.788206 32.0459 1.04883 32.037C1.32823 32.0275 1.57823 32.0231 1.79929 32.0231C1.97064 32.0231 2.193 32.0275 2.46721 32.0372C2.72016 32.0461 3.01066 32.0591 3.338 32.0768H3.33954C3.3595 32.0768 3.37237 32.0731 3.37816 32.0657C3.38902 32.0518 3.39433 32.0243 3.39433 31.9827C3.39433 31.949 3.38937 31.9259 3.37922 31.9136C3.37107 31.9034 3.35501 31.897 3.33127 31.8948C3.15874 31.8782 3.01338 31.8609 2.89481 31.843C2.76976 31.824 2.66855 31.8036 2.59109 31.7823L2.58849 31.7816C2.50453 31.7556 2.43131 31.7214 2.36872 31.6789C2.30377 31.6347 2.25051 31.5818 2.20871 31.5199L2.20599 31.5153C2.13337 31.3923 2.07999 31.1908 2.04551 30.911C2.01209 30.6398 1.99532 30.2909 1.99532 29.8638V29.6306H1.99568L2.03571 23.7177L2.03535 23.7104C2.03535 23.6606 2.07527 23.6201 2.12439 23.6201H2.27756V23.6203C2.31145 23.6203 2.3438 23.6404 2.35845 23.6737L4.60476 28.7939L4.60759 28.7998C4.79878 29.2259 5.00756 29.7091 5.23394 30.2492C5.45996 30.7885 5.6998 31.375 5.95393 32.0096C5.96633 32.0359 5.97944 32.0548 5.99326 32.0662C6.00188 32.0732 6.01156 32.0768 6.02243 32.0768C6.0601 32.0768 6.09021 32.0705 6.11229 32.0577C6.13071 32.0469 6.14512 32.0305 6.15492 32.0084C6.40645 31.3837 6.65551 30.7802 6.90184 30.1982C7.14794 29.6164 7.3892 29.0617 7.62538 28.5341H7.62562L9.76824 23.6805C9.7804 23.6454 9.81335 23.6201 9.8522 23.6201H10.0122V23.6203C10.0611 23.6206 10.1008 23.6606 10.1009 23.7099L10.1411 30.182C10.1413 30.1849 10.1414 30.1877 10.1414 30.1905C10.1414 30.5284 10.1269 30.8064 10.0976 31.0247C10.0672 31.2513 10.0199 31.4159 9.9553 31.5181C9.88798 31.6253 9.75596 31.71 9.55875 31.7725C9.37701 31.8299 9.1354 31.8707 8.83368 31.8945C8.82943 31.8962 8.82612 31.8992 8.82376 31.9036C8.81502 31.9196 8.81065 31.9459 8.81065 31.9827C8.81065 32.0276 8.81502 32.059 8.82352 32.0767C9.16114 32.0588 9.4762 32.0457 9.76824 32.037C10.0831 32.0275 10.3619 32.0231 10.6059 32.0231C10.8521 32.0231 11.1404 32.0275 11.4723 32.037C11.7804 32.0459 12.1181 32.059 12.4856 32.0768H12.4879C12.5058 32.0768 12.5171 32.0737 12.5221 32.0671C12.5326 32.0529 12.5378 32.025 12.5378 31.9827C12.5378 31.9506 12.533 31.9281 12.5232 31.9156C12.5149 31.905 12.499 31.8981 12.475 31.8945L12.4751 31.8943C12.2943 31.878 12.1416 31.8608 12.017 31.8428C11.8838 31.8237 11.7781 31.8035 11.6997 31.7825V31.7824L11.6965 31.7816C11.6128 31.7557 11.5389 31.7218 11.475 31.6799C11.4089 31.6368 11.353 31.5845 11.3075 31.5232L11.3077 31.5231L11.304 31.5179C11.264 31.4551 11.2298 31.3863 11.2021 31.3111C11.1743 31.2357 11.1527 31.1545 11.1377 31.0666L11.1374 31.0642C11.1217 30.9527 11.1089 30.7748 11.0997 30.5307C11.0907 30.2953 11.0848 29.9955 11.0825 29.6313L11.0213 24.2113C11.0211 24.2085 11.0208 24.2056 11.0208 24.2025V24.0299C11.0208 23.7604 11.0355 23.5328 11.065 23.3471C11.0955 23.1554 11.1427 23.0074 11.2067 22.9038C11.2764 22.7904 11.411 22.7032 11.6113 22.6409C11.7975 22.5831 12.0444 22.5448 12.3523 22.5259C12.3714 22.5236 12.3843 22.518 12.391 22.5093C12.4008 22.4964 12.4058 22.4729 12.4058 22.4382C12.4058 22.3846 12.3994 22.3477 12.3865 22.3276C12.3816 22.32 12.3721 22.3161 12.3583 22.3161C12.0756 22.3345 11.8118 22.3484 11.5671 22.3579C11.3181 22.3673 11.0965 22.3722 10.9025 22.3722C10.6839 22.3722 10.4664 22.3708 10.2491 22.3682L10.2489 22.3688ZM9.71522 22.2685C10.0332 22.2779 10.4265 22.2824 10.9023 22.2824C11.2979 22.2824 11.7831 22.264 12.3578 22.2265C12.4498 22.2265 12.4943 22.2965 12.4943 22.4387C12.4943 22.5486 12.4497 22.6066 12.3578 22.616C11.755 22.6535 11.3968 22.763 11.2816 22.9521C11.1661 23.1388 11.1096 23.4983 11.1096 24.0302C11.1096 24.1049 11.1096 24.1609 11.1096 24.2028L11.1709 29.6308C11.1756 30.3611 11.1944 30.835 11.225 31.0518C11.2535 31.2174 11.3053 31.3554 11.378 31.4694C11.4559 31.5746 11.5712 31.6491 11.7219 31.6959C11.8704 31.7357 12.1247 31.7728 12.4875 31.8055C12.5817 31.8197 12.6263 31.8779 12.6263 31.9829C12.6263 32.1065 12.5816 32.1673 12.4875 32.1673C11.7244 32.1298 11.0978 32.1136 10.6055 32.1136C10.118 32.1136 9.52226 32.1298 8.81797 32.1673C8.75432 32.1673 8.72125 32.1065 8.72125 31.9829C8.72125 31.8778 8.75432 31.8197 8.81797 31.8055C9.4161 31.7589 9.76954 31.6469 9.88019 31.4694C9.99545 31.2876 10.0521 30.8605 10.0521 30.1908L10.0119 23.7107H9.85185L7.70603 28.5713C7.23285 29.6284 6.74289 30.7858 6.23652 32.0435C6.2011 32.1253 6.12812 32.1673 6.02219 32.1673C5.95854 32.1673 5.90894 32.1252 5.87139 32.0435C5.3603 30.7672 4.91285 29.6984 4.52646 28.8375L2.27744 23.7107H2.12428L2.08424 29.6308C2.08424 29.7359 2.08424 29.8128 2.08424 29.864C2.08424 30.7112 2.15014 31.2456 2.28193 31.4694C2.35278 31.5746 2.46343 31.6491 2.61423 31.6959C2.75783 31.7357 2.99802 31.7728 3.33954 31.8055C3.43626 31.8149 3.48326 31.8733 3.48326 31.9829C3.48326 32.1065 3.43614 32.1673 3.33954 32.1673C2.65426 32.1298 2.14069 32.1136 1.79929 32.1136C1.35893 32.1136 0.828947 32.1298 0.214288 32.1673C0.129381 32.1673 0.0894671 32.1065 0.0894671 31.9829C0.0894671 31.8732 0.1295 31.8149 0.214288 31.8055C0.727625 31.7589 1.04564 31.6423 1.16574 31.4557C1.26706 31.2737 1.33532 31.0613 1.37299 30.8209C1.40841 30.5737 1.43416 30.177 1.44845 29.6309L1.57327 24.0445V23.916C1.57327 23.4376 1.51434 23.1156 1.39897 22.9522C1.27178 22.7866 0.904288 22.6747 0.296715 22.6161C0.214288 22.6068 0.172012 22.5531 0.172012 22.4529C0.172012 22.3013 0.214406 22.2266 0.296715 22.2266C1.02698 22.2641 1.53324 22.2825 1.81334 22.2825C2.27508 22.2825 2.68261 22.278 3.0429 22.2686C3.1983 22.8193 3.38678 23.3489 3.60831 23.8552L5.54652 28.401C5.66202 28.6601 5.81045 29.0032 5.98936 29.4255C6.17783 29.878 6.30502 30.1838 6.37551 30.3496C6.77123 29.4091 7.05382 28.7605 7.2234 28.401L9.04636 24.0468C9.28431 23.5075 9.50809 22.915 9.71534 22.2686L9.71522 22.2685Z" fill="#2E355C"/>
<path id="Vector_4" fill-rule="evenodd" clip-rule="evenodd" d="M1.19334 37.3147H102.334C102.888 37.3147 103.342 37.7748 103.342 38.3371V42.4279C103.342 42.9905 102.888 43.4507 102.334 43.4507H1.19334C0.638791 43.4507 0.185089 42.9905 0.185089 42.4279V38.3371C0.185089 37.7748 0.638791 37.3147 1.19334 37.3147Z" fill="#EC4646"/>
<path id="Vector_5" d="M30.1848 38.8489L29.3059 41.9169H28.5707L27.9617 39.8413H27.9486L27.3396 41.9169H26.6L25.7256 38.8489H26.526L27.0132 40.8898H27.0263L27.5745 38.8489H28.3489L28.9015 40.8898H28.9146L29.4106 38.8489H30.185H30.1848ZM36.6105 41.9169H35.784L35.5446 41.3147H34.3526L34.1264 41.9169H33.3172L34.6093 38.8489H35.3315L36.6105 41.9169ZM35.3402 40.7209L34.9574 39.6681L34.5659 40.7209H35.3403H35.3402ZM42.0532 41.9169H40.1128V38.8489H40.8611V41.2712H42.0533V41.9169H42.0532ZM47.5871 41.9169H45.6467V38.8489H46.3951V41.2712H47.5872V41.9169H47.5871ZM53.5169 39.7936C53.5169 40.0189 53.458 40.2067 53.3407 40.3569C53.2233 40.5072 53.0767 40.6118 52.9013 40.6711C52.7259 40.7305 52.5236 40.7601 52.2944 40.7601H51.9246V41.9171H51.1807V38.849H52.3119C52.6772 38.849 52.9695 38.9234 53.1884 39.0723C53.4074 39.2209 53.517 39.4614 53.517 39.7937L53.5169 39.7936ZM52.7729 39.7979C52.7729 39.564 52.5989 39.4469 52.2508 39.4469H51.9244V40.1708H52.2377C52.5944 40.1708 52.7729 40.0464 52.7729 39.798V39.7979ZM59.8643 41.9169H59.0377L58.7984 41.3147H57.6063L57.3802 41.9169H56.571L57.863 38.8489H58.5853L59.8643 41.9169ZM58.594 40.7209L58.2112 39.6681L57.8196 40.7209H58.5941H58.594ZM65.7028 39.7936C65.7028 40.0189 65.644 40.2067 65.5266 40.3569C65.4092 40.5072 65.2627 40.6118 65.0872 40.6711C64.9117 40.7305 64.7094 40.7601 64.4803 40.7601H64.1106V41.9171H63.3666V38.849H64.4977C64.8632 38.849 65.1553 38.9234 65.3744 39.0723C65.5933 39.2209 65.7029 39.4614 65.7029 39.7937L65.7028 39.7936ZM64.9588 39.7979C64.9588 39.564 64.7848 39.4469 64.4366 39.4469H64.1104V40.1708H64.4236C64.7803 40.1708 64.9588 40.0464 64.9588 39.798V39.7979ZM71.5455 41.9169H69.3963V38.8489H71.4671V39.4771H70.1142V40.0535H71.3932V40.6471H70.1142V41.2841H71.5455V41.9168V41.9169ZM77.8016 41.9169H76.9315L76.2659 40.6992H76.0136V41.9169H75.2826V38.8489H76.4574C76.614 38.8489 76.759 38.8648 76.8924 38.8965C77.0257 38.9283 77.1506 38.9791 77.2665 39.0483C77.3824 39.1175 77.4731 39.2142 77.5384 39.3387C77.6037 39.4628 77.6364 39.6088 77.6364 39.7762C77.6364 39.9785 77.5797 40.1518 77.4667 40.2962C77.3536 40.4408 77.197 40.5432 76.9968 40.6039L77.8016 41.9169ZM76.901 39.7892C76.901 39.5611 76.7358 39.4468 76.4051 39.4468H76.0092V40.1619H76.3616C76.7212 40.1619 76.901 40.0377 76.901 39.7892Z" fill="white"/>
</g>
</g>
</g>
</svg>
