<svg width="20" height="19" viewBox="0 0 20 19" fill="none" xmlns="http://www.w3.org/2000/svg">
<path d="M19.1046 9.50268C19.1046 4.3152 14.8907 0.105957 9.69849 0.105957C4.5063 0.105957 0.292358 4.3152 0.292358 9.50268C0.292358 12.3598 1.5904 14.9347 3.62213 16.6631C3.64094 16.6819 3.65975 16.6819 3.65975 16.7007C3.82906 16.8324 3.99837 16.9641 4.1865 17.0958C4.28056 17.1522 4.35581 17.2263 4.44987 17.3015C6.00431 18.3555 7.83926 18.9186 9.7173 18.9182C11.5953 18.9186 13.4303 18.3555 14.9847 17.3015C15.0788 17.2451 15.154 17.171 15.2481 17.1134C15.4174 16.9829 15.6055 16.8512 15.7748 16.7195C15.7937 16.7007 15.8125 16.7007 15.8125 16.6819C17.8066 14.9335 19.1046 12.3598 19.1046 9.50268ZM9.69849 17.7342C7.93013 17.7342 6.31228 17.1698 4.97661 16.2304C4.99542 16.0799 5.03305 15.9306 5.07067 15.7801C5.18277 15.3722 5.34717 14.9806 5.55979 14.6149C5.76673 14.2575 6.01128 13.9377 6.31228 13.6555C6.59446 13.3733 6.93308 13.1111 7.27171 12.9042C7.62914 12.6972 8.00538 12.5467 8.41925 12.4339C8.83634 12.3214 9.26651 12.2649 9.69849 12.2657C10.9808 12.2566 12.2161 12.7485 13.1411 13.6367C13.5738 14.0694 13.9124 14.5773 14.157 15.1593C14.2887 15.4979 14.3827 15.8553 14.4392 16.2304C13.0508 17.2065 11.3956 17.7315 9.69849 17.7342ZM6.82021 9.03355C6.65445 8.65403 6.5711 8.24367 6.57565 7.82956C6.57565 7.41687 6.6509 7.003 6.82021 6.62676C6.98952 6.25051 7.21527 5.91306 7.49745 5.63088C7.77964 5.3487 8.11826 5.12413 8.4945 4.95482C8.87075 4.78551 9.28462 4.71026 9.69849 4.71026C10.1312 4.71026 10.5262 4.78551 10.9025 4.95482C11.2787 5.12413 11.6173 5.34987 11.8995 5.63088C12.1817 5.91306 12.4075 6.25169 12.5768 6.62676C12.7461 7.003 12.8213 7.41687 12.8213 7.82956C12.8213 8.26225 12.7461 8.6573 12.5768 9.03237C12.4134 9.40305 12.1839 9.7409 11.8995 10.0294C11.6109 10.3134 11.2731 10.5424 10.9025 10.7055C10.1251 11.025 9.25307 11.025 8.47569 10.7055C8.1051 10.5424 7.76726 10.3134 7.47864 10.0294C7.19389 9.74511 6.96988 9.40707 6.82021 9.03355ZM15.5491 15.2722C15.5491 15.2345 15.5303 15.2157 15.5303 15.1781C15.3453 14.5895 15.0726 14.0322 14.7214 13.525C14.3698 13.014 13.9378 12.5633 13.4421 12.1905C13.0636 11.9057 12.6532 11.6658 12.2193 11.4756C12.4167 11.3454 12.5996 11.1944 12.7649 11.0253C13.0454 10.7484 13.2917 10.4389 13.4986 10.1035C13.9152 9.41898 14.1304 8.63084 14.1194 7.82956C14.1252 7.23641 14.01 6.6483 13.7807 6.10119C13.5544 5.57402 13.2287 5.09539 12.8213 4.69144C12.4146 4.29172 11.9358 3.97257 11.4104 3.75083C10.8624 3.52202 10.2735 3.40721 9.67967 3.41339C9.08576 3.40758 8.49688 3.52279 7.94895 3.75201C7.41897 3.97327 6.93909 4.29919 6.53803 4.71026C6.13832 5.11659 5.81916 5.59493 5.59741 6.12C5.3682 6.66711 5.25298 7.25522 5.25879 7.84838C5.25879 8.26225 5.31523 8.6573 5.4281 9.03237C5.54098 9.42743 5.69148 9.78486 5.89841 10.1223C6.08653 10.4609 6.34991 10.7619 6.63209 11.0441C6.8014 11.2134 6.98952 11.3627 7.19646 11.4944C6.76123 11.6897 6.35075 11.936 5.97366 12.2281C5.48454 12.6044 5.05186 13.0547 4.69443 13.5438C4.33965 14.0489 4.06666 14.6068 3.8855 15.1969C3.86669 15.2345 3.86669 15.2722 3.86669 15.291C2.38052 13.7872 1.45872 11.7578 1.45872 9.50268C1.45872 4.97363 5.16473 1.27114 9.69849 1.27114C14.2322 1.27114 17.9383 4.97363 17.9383 9.50268C17.9358 11.666 17.0768 13.7404 15.5491 15.2722Z" fill="#192965"/>
</svg>
