<svg width="22" height="20" viewBox="0 0 22 20" fill="none" xmlns="http://www.w3.org/2000/svg">
<path d="M1.36377 6.62036H2.1686H1.36377ZM2.82824 2.90805L2.24543 2.353L2.24543 2.353L2.82824 2.90805ZM2.82824 10.3327L2.24543 10.8877H2.24543L2.82824 10.3327ZM8.27882 16.0558L8.86163 15.5007H8.86163L8.27882 16.0558ZM13.5401 16.0558L12.9573 15.5007L13.5401 16.0558ZM18.9907 10.3327L19.5735 10.8877L18.9907 10.3327ZM18.9907 2.90805L19.5735 2.353V2.353L18.9907 2.90805ZM15.4551 1.37036V0.565535V1.37036ZM11.9196 2.90805L11.3368 2.353L11.9196 2.90805ZM11.7391 4.26463C12.0456 3.94276 12.0332 3.43332 11.7113 3.12677C11.3894 2.82023 10.88 2.83265 10.5734 3.15453L11.7391 4.26463ZM9.8993 2.90805L9.3165 3.4631L9.8993 2.90805ZM6.36377 1.37036V0.565533V1.37036ZM10.6627 3.70958L11.2455 3.15452V3.15452L10.6627 3.70958ZM10.3266 18.206L9.74384 18.7611L10.3266 18.206ZM11.4923 18.206L10.9095 17.651L11.4923 18.206ZM2.1686 6.62036C2.1686 5.4291 2.61966 4.29406 3.41104 3.4631L2.24543 2.353C1.16145 3.49117 0.558942 5.02685 0.558942 6.62036H2.1686ZM3.41104 9.77762C2.61966 8.94666 2.1686 7.81162 2.1686 6.62036H0.558942C0.558942 8.21388 1.16145 9.74955 2.24543 10.8877L3.41104 9.77762ZM8.86163 15.5007L3.41104 9.77762L2.24543 10.8877L7.69601 16.6108L8.86163 15.5007ZM10.9095 17.651L8.86163 15.5007L7.69601 16.6108L9.74384 18.7611L10.9095 17.651ZM12.9573 15.5007L10.9095 17.651L12.0751 18.7611L14.1229 16.6108L12.9573 15.5007ZM14.1229 16.6108L19.5735 10.8877L18.4079 9.77762L12.9573 15.5007L14.1229 16.6108ZM19.5735 10.8877C20.6575 9.74955 21.26 8.21387 21.26 6.62036H19.6503C19.6503 7.81162 19.1993 8.94666 18.4079 9.77762L19.5735 10.8877ZM21.26 6.62036C21.26 5.02685 20.6575 3.49117 19.5735 2.353L18.4079 3.46311C19.1993 4.29406 19.6503 5.4291 19.6503 6.62036H21.26ZM19.5735 2.353C18.4882 1.21349 17.0077 0.565535 15.4551 0.565535V2.17519C16.5547 2.17519 17.6178 2.63348 18.4079 3.46311L19.5735 2.353ZM15.4551 0.565535C13.9026 0.565535 12.4221 1.21349 11.3368 2.353L12.5024 3.46311C13.2925 2.63349 14.3555 2.17519 15.4551 2.17519V0.565535ZM11.3368 2.353L10.5734 3.15453L11.7391 4.26463L12.5024 3.46311L11.3368 2.353ZM9.3165 3.4631L10.0799 4.26463L11.2455 3.15452L10.4821 2.353L9.3165 3.4631ZM6.36377 2.17519C7.46338 2.17519 8.52638 2.63348 9.3165 3.4631L10.4821 2.353C9.39686 1.21349 7.91633 0.565534 6.36377 0.565533V2.17519ZM3.41104 3.4631C4.20116 2.63348 5.26416 2.17519 6.36377 2.17519V0.565533C4.81121 0.565533 3.33068 1.21349 2.24543 2.353L3.41104 3.4631ZM10.5734 3.15453C10.7563 2.96251 11.0626 2.96252 11.2455 3.15452L10.0799 4.26463C10.5313 4.73868 11.2876 4.73869 11.7391 4.26463L10.5734 3.15453ZM9.74384 18.7611C10.3782 19.4271 11.4407 19.4271 12.0751 18.7611L10.9095 17.651L9.74384 18.7611Z" fill="#192965"/>
</svg>
