<svg width="305" height="81" viewBox="0 0 305 81" fill="none" xmlns="http://www.w3.org/2000/svg">
<path d="M31.7803 59.4789V60.3352L43.3626 67.0953C43.5879 67.2305 43.8584 67.3206 44.0837 67.3206C44.309 67.3206 44.5794 67.2305 44.8047 67.0953C45.0301 66.9601 45.2104 66.7798 45.3456 66.5545C45.4808 66.3742 45.5258 66.1038 45.5258 65.8334V46.5896L32.3211 58.217C32.1408 58.3973 32.0056 58.5775 31.9155 58.8029C31.8253 58.9832 31.7803 59.2085 31.7803 59.4789ZM31.7803 64.1658V75.3876C31.7803 76.2439 31.5549 77.0551 31.1493 77.7762C30.7437 78.4522 30.1578 79.0832 29.3917 79.4888C28.6255 79.9395 27.8143 80.1648 27.0031 80.1197C26.1919 80.1197 25.3807 79.9395 24.6146 79.4888L4.33425 67.6812C3.20757 67.0051 2.30621 66.1038 1.72034 65.0672C1.08939 63.9856 0.773926 62.7688 0.773926 61.4618V16.1691C0.773926 15.1326 0.999279 14.1861 1.49502 13.3299C1.99076 12.5186 2.71184 11.7976 3.61319 11.3018C4.46947 10.761 5.46093 10.5357 6.40735 10.5357C7.39883 10.5357 8.34526 10.761 9.24661 11.3018L17.8094 16.3043V6.65991C17.8094 5.62336 18.0798 4.67692 18.5756 3.82064C19.0713 2.96436 19.7924 2.28839 20.6486 1.74758C21.55 1.25184 22.5415 0.981445 23.4879 0.981445C24.4794 0.981445 25.4258 1.25184 26.3271 1.74758L45.2554 12.7891C46.3821 13.4651 47.2834 14.3664 47.9144 15.403C48.5453 16.4846 48.8608 17.7014 48.8608 19.0084V22.4785C48.8608 23.2447 48.7256 23.9207 48.4101 24.5517C48.1397 25.1826 47.7341 25.7685 47.1482 26.2191L32.6817 39.0183C32.3211 39.3338 31.8704 39.5591 31.3747 39.6041C30.924 39.6943 30.4283 39.6492 29.9776 39.4239C29.4819 39.1986 29.1213 38.8831 28.8509 38.4775C28.5805 38.0718 28.4453 37.6212 28.4453 37.0804V28.5626C28.4453 27.8416 28.265 27.1656 27.9496 26.5797C27.6341 26.0389 27.1383 25.5431 26.5525 25.1826L21.1444 22.0729V51.9526C21.1444 52.6737 21.3247 53.3046 21.6401 53.8905C21.9556 54.4313 22.4513 54.9271 23.0823 55.2876L28.5354 58.4874C28.6255 58.1268 28.7607 57.7663 28.896 57.4057C29.1664 56.7748 29.617 56.234 30.1578 55.7383L44.6245 42.9842C44.985 42.6237 45.4357 42.4434 45.9314 42.3533C46.3821 42.2631 46.8779 42.3533 47.3736 42.5336C47.8243 42.7589 48.1848 43.0743 48.4552 43.4799C48.7256 43.8855 48.8608 44.3813 48.8608 44.877V65.8334C48.8608 66.6897 48.6355 67.5009 48.2299 68.2219C47.8243 68.943 47.2384 69.5289 46.4723 69.9796C45.7061 70.3852 44.8949 70.6105 44.0837 70.6105C43.2725 70.6105 42.4613 70.3852 41.6951 69.9796L31.7803 64.1658ZM28.4453 75.3876V62.273L21.4148 58.1719C20.2881 57.4959 19.3868 56.5945 18.7558 55.5129C18.17 54.4313 17.8094 53.2145 17.8094 51.9526V20.1351L7.57911 14.1411C7.21857 13.9608 6.81295 13.8256 6.40735 13.8256C6.00174 13.8256 5.64123 13.9158 5.23562 14.1411C4.87508 14.3664 4.5596 14.6369 4.37933 14.9974C4.19906 15.3579 4.06386 15.7185 4.06386 16.1691V61.4618C4.06386 62.1829 4.24413 62.8589 4.5596 63.3997C4.87507 63.9856 5.37081 64.4363 6.00176 64.7968L26.2821 76.6045C26.5074 76.7397 26.7778 76.8298 27.0031 76.8298C27.2735 76.8298 27.4989 76.7847 27.7242 76.6045C27.9946 76.5143 28.1749 76.289 28.265 76.1087C28.4002 75.8834 28.4453 75.658 28.4453 75.3876ZM21.1444 18.2423L28.22 22.3433C29.3467 22.9743 30.2029 23.8756 30.8339 24.9572C31.4648 26.0389 31.7803 27.2557 31.7803 28.5626V35.4129L44.985 23.7405C45.1653 23.5602 45.3005 23.3799 45.3906 23.1996C45.4808 22.9743 45.5258 22.7489 45.5258 22.4785V19.0084C45.5258 18.2873 45.3455 17.6113 45.0301 17.0705C44.7146 16.5296 44.2189 16.0339 43.633 15.6734L24.6596 4.63189C24.254 4.40655 23.8935 4.31639 23.4879 4.31639C23.0823 4.31639 22.6767 4.40655 22.3161 4.63189C21.9556 4.85723 21.6401 5.12764 21.4599 5.48818C21.2796 5.80365 21.1444 6.20923 21.1444 6.65991V18.2423Z" fill="white"/>
<path d="M273.972 43.4797V44.0656C273.972 47.9865 276.631 50.5102 280.687 50.5102H297.903C301.914 50.5102 304.618 47.9865 304.618 44.0656V41.4517C304.618 37.5308 301.914 34.962 297.903 34.962H280.913C279.38 34.962 278.659 34.286 278.659 32.5284V30.1848C278.659 28.4723 279.38 27.7512 280.913 27.7512H297.498C299.03 27.7512 299.751 28.4723 299.751 30.1848V30.6355C299.751 31.0411 300.021 31.3115 300.427 31.3115H303.537C303.942 31.3115 304.213 31.0411 304.213 30.6355V30.1848C304.213 26.264 301.509 23.7402 297.498 23.7402H280.913C276.857 23.7402 274.198 26.264 274.198 30.1848V32.5284C274.198 36.4492 276.857 39.0181 280.913 39.0181H297.903C299.435 39.0181 300.157 39.694 300.157 41.4517V44.0656C300.157 45.7782 299.435 46.4992 297.903 46.4992H280.687C279.155 46.4992 278.434 45.7782 278.434 44.0656V43.6149C278.434 43.2093 278.164 42.9389 277.758 42.9389H274.648C274.243 42.9389 273.972 43.1192 273.972 43.4797Z" fill="white"/>
<path d="M265.004 49.8793V24.3712C265.004 23.9656 264.733 23.7402 264.328 23.7402H261.173C260.813 23.7402 260.542 23.9656 260.542 24.3712V49.8793C260.542 50.2398 260.813 50.5102 261.173 50.5102H264.328C264.733 50.5102 265.004 50.2398 265.004 49.8793Z" fill="white"/>
<path d="M212.275 23.7402H182.981C182.576 23.7402 182.305 23.9656 182.305 24.3712V27.0752C182.305 27.4808 182.576 27.7512 182.981 27.7512H195.375V49.8793C195.375 50.2398 195.645 50.5102 196.051 50.5102H199.206C199.611 50.5102 199.882 50.2398 199.882 49.8793V27.7512H212.275C212.681 27.7512 212.951 27.4808 212.951 27.0752V24.3712C212.951 23.9656 212.681 23.7402 212.275 23.7402Z" fill="white"/>
<path d="M168.65 24.3712V44.4712L148.505 24.8669C146.296 22.7488 142.466 23.8303 142.466 26.94V49.8793C142.466 50.2398 142.736 50.5102 143.142 50.5102H146.251C146.657 50.5102 146.927 50.2398 146.927 49.8793V29.7792L167.072 49.3835C169.281 51.5017 173.111 50.375 173.111 47.3104V24.3712C173.111 23.9656 172.841 23.7402 172.435 23.7402H169.326C168.92 23.7402 168.65 23.9656 168.65 24.3712Z" fill="white"/>
<path d="M112.451 27.7512H132.596C133.002 27.7512 133.272 27.4808 133.272 27.0752V24.3712C133.272 23.9656 133.002 23.7402 132.596 23.7402H112.451C108.44 23.7402 105.736 26.264 105.736 30.1848V44.0656C105.736 47.9865 108.44 50.5102 112.451 50.5102H132.596C133.002 50.5102 133.272 50.2398 133.272 49.8793V47.1753C133.272 46.7696 133.002 46.4992 132.596 46.4992H112.451C110.919 46.4992 110.198 45.7782 110.198 44.0656V39.1533H128.044C128.45 39.1533 128.72 38.8828 128.72 38.4772V35.7732C128.72 35.3676 128.45 35.0972 128.044 35.0972H110.198V30.1848C110.198 28.4723 110.919 27.7512 112.451 27.7512Z" fill="white"/>
<path d="M96.5421 30.7256V30.1848C96.5421 26.264 93.8831 23.7402 89.8721 23.7402H73.9633C69.9523 23.7402 67.2483 26.264 67.2483 30.1848V44.0656C67.2483 47.9865 69.9523 50.5102 73.9633 50.5102H89.8721C93.8831 50.5102 96.5421 47.9865 96.5421 44.0656V43.6149C96.5421 43.2093 96.2716 42.9389 95.866 42.9389H92.7564C92.3508 42.9389 92.0804 43.2093 92.0804 43.6149V44.0656C92.0804 45.7782 91.3593 46.4992 89.8721 46.4992H73.9633C72.431 46.4992 71.7099 45.7782 71.7099 44.0656V30.1848C71.7099 28.4723 72.431 27.7512 73.9633 27.7512H89.8721C91.3593 27.7512 92.0804 28.4723 92.0804 30.1848V30.6355C92.0804 31.0411 92.3508 31.3115 92.7564 31.3115H95.866C96.2716 31.3115 96.5421 31.0862 96.5421 30.7256Z" fill="white"/>
<path fill-rule="evenodd" clip-rule="evenodd" d="M250.537 47.5808V49.7441C250.537 50.1947 250.222 50.5102 249.771 50.5102H247.968C246.616 50.5102 245.4 50.0145 244.543 49.1582C242.831 47.5358 241.343 42.8488 239.135 42.8488H236.206H229.22H226.606V49.8793C226.606 50.2398 226.336 50.5102 225.93 50.5102H222.821C222.415 50.5102 222.145 50.2398 222.145 49.8793V24.3712C222.145 23.9656 222.415 23.7402 222.821 23.7402H243.867C247.878 23.7402 250.537 26.264 250.537 30.1848V36.359C250.537 39.649 248.689 41.9474 245.715 42.6234C246.526 43.705 247.202 45.3275 247.968 46.0486C248.554 46.5894 249.275 46.9499 250.087 47.0401C250.402 47.0401 250.537 47.2654 250.537 47.5808ZM226.606 27.7512H243.867C245.354 27.7512 246.076 28.4723 246.076 30.1848V36.359C246.076 38.0716 245.354 38.7927 243.867 38.7927H226.606V27.7512Z" fill="white"/>
<path d="M104.654 76.1087H110.919C115.831 76.1087 119.121 72.9089 119.121 68.4022C119.121 63.8954 115.831 60.7407 110.919 60.7407H104.654V76.1087ZM106.277 74.6665V62.1378H110.829C114.885 62.1378 117.544 64.7066 117.544 68.4022C117.544 72.0977 114.885 74.6665 110.829 74.6665H106.277Z" fill="white"/>
<path d="M123.492 76.1087H125.115V60.7407H123.492V76.1087Z" fill="white"/>
<path d="M143.457 76.1087H145.17L138.139 60.7407H136.517L129.487 76.1087H131.199L133.047 72.0076H141.61L143.457 76.1087ZM133.633 70.6555L137.328 62.4082L141.024 70.6555H133.633Z" fill="white"/>
<path d="M91.0441 74.6665V68.9881H98.9759V67.591H91.0441V62.1378H100.283V60.7407H89.4216V76.1087H100.283V74.6665H91.0441Z" fill="white"/>
<path d="M68.9159 63.625V76.1087H67.2935V60.7407H68.6455L76.1717 70.2049L83.698 60.7407H85.05V76.1087H83.4276V63.625C80.9939 66.6896 78.6054 69.7091 76.1717 72.7737L68.9159 63.625Z" fill="white"/>
</svg>
