<svg width="17" height="17" viewBox="0 0 17 17" fill="none" xmlns="http://www.w3.org/2000/svg">
<g id="bi:telephone-fill" clip-path="url(#clip0_1066_923)">
<g id="Vector">
<path fill-rule="evenodd" clip-rule="evenodd" d="M1.99976 1.00002C2.18849 0.816239 2.75026 0.0919234 2.99976 1.99154e-05C3.24926 -0.0918836 2.73358 -0.0161923 2.99976 1.99154e-05C3.26595 0.0162322 3.76393 -0.121443 3.99976 1.99154e-05C4.2356 0.121483 4.83595 0.794767 4.99976 1.00002L6.99976 3.00002C7.35462 3.44498 7.13998 4.45303 6.99976 5.00002L5.99976 7.00002C5.96926 7.11934 5.96612 6.88151 5.99976 7.00002C6.0334 7.11853 6.91068 7.91299 6.99976 8.00002L8.99976 10C9.08911 10.0871 9.87803 10.9672 9.99976 11C10.1215 11.0328 9.87726 11.03 9.99976 11L11.9998 10C12.2765 9.93253 12.7206 9.94262 12.9998 10C13.2789 10.0574 13.7745 9.82929 13.9998 10L15.9998 12C16.8939 12.6785 16.8001 14.2206 15.9998 15L14.9998 16C14.2016 16.7784 13.1118 17.3819 11.9998 17C9.15351 16.0233 7.13031 14.0837 4.99976 12C2.86335 9.92252 1.00137 7.77544 -0.000238471 5.00002C-0.390695 3.91655 0.20159 2.77843 0.999762 2.00002L1.99976 1.00002Z" fill="white"/>
</g>
</g>
<defs>
<clipPath id="clip0_1066_923">
<rect width="17" height="17" fill="white"/>
</clipPath>
</defs>
</svg>
