<svg width="20" height="20" viewBox="0 0 20 20" fill="none" xmlns="http://www.w3.org/2000/svg">
<path id="Vector" d="M9.5326 6.9565C7.78821 6.9565 6.36465 8.38008 6.36465 10.1245C6.36465 11.8689 7.78821 13.2925 9.5326 13.2925C11.277 13.2925 12.7006 11.8689 12.7006 10.1245C12.7006 8.38008 11.277 6.9565 9.5326 6.9565ZM19.0341 10.1245C19.0341 8.81263 19.046 7.51262 18.9723 6.20311C18.8986 4.68208 18.5517 3.33217 17.4394 2.21992C16.3248 1.10529 14.9773 0.760685 13.4563 0.68701C12.1444 0.613336 10.8445 0.625219 9.53498 0.625219C8.22312 0.625219 6.92314 0.613336 5.61365 0.68701C4.09265 0.760685 2.74277 1.10767 1.63054 2.21992C0.515929 3.33455 0.171327 4.68208 0.0976537 6.20311C0.0239803 7.515 0.0358631 8.815 0.0358631 10.1245C0.0358631 11.434 0.0239803 12.7364 0.0976537 14.0459C0.171327 15.5669 0.518305 16.9169 1.63054 18.0291C2.74514 19.1437 4.09265 19.4883 5.61365 19.562C6.92551 19.6357 8.22549 19.6238 9.53498 19.6238C10.8468 19.6238 12.1468 19.6357 13.4563 19.562C14.9773 19.4883 16.3272 19.1414 17.4394 18.0291C18.554 16.9145 18.8986 15.5669 18.9723 14.0459C19.0484 12.7364 19.0341 11.4364 19.0341 10.1245V10.1245ZM9.5326 14.9989C6.83521 14.9989 4.65827 12.822 4.65827 10.1245C4.65827 7.42706 6.83521 5.25009 9.5326 5.25009C12.23 5.25009 14.4069 7.42706 14.4069 10.1245C14.4069 12.822 12.23 14.9989 9.5326 14.9989ZM14.6066 6.18885C13.9768 6.18885 13.4682 5.68026 13.4682 5.05046C13.4682 4.42066 13.9768 3.91206 14.6066 3.91206C15.2364 3.91206 15.7449 4.42066 15.7449 5.05046C15.7451 5.20001 15.7158 5.34812 15.6587 5.48632C15.6015 5.62453 15.5177 5.7501 15.4119 5.85584C15.3062 5.96159 15.1806 6.04544 15.0424 6.10258C14.9042 6.15972 14.7561 6.18904 14.6066 6.18885V6.18885Z" fill="white"/>
</svg>
