<svg width="25" height="24" viewBox="0 0 25 24" fill="none" xmlns="http://www.w3.org/2000/svg">
<g id="mdi:youtube">
<path id="Vector" d="M10.5195 15L15.7095 12L10.5195 9V15ZM22.0795 7.17C22.2095 7.64 22.2995 8.27 22.3595 9.07C22.4295 9.87 22.4595 10.56 22.4595 11.16L22.5195 12C22.5195 14.19 22.3595 15.8 22.0795 16.83C21.8295 17.73 21.2495 18.31 20.3495 18.56C19.8795 18.69 19.0195 18.78 17.6995 18.84C16.3995 18.91 15.2095 18.94 14.1095 18.94L12.5195 19C8.32953 19 5.71953 18.84 4.68953 18.56C3.78953 18.31 3.20953 17.73 2.95953 16.83C2.82953 16.36 2.73953 15.73 2.67953 14.93C2.60953 14.13 2.57953 13.44 2.57953 12.84L2.51953 12C2.51953 9.81 2.67953 8.2 2.95953 7.17C3.20953 6.27 3.78953 5.69 4.68953 5.44C5.15953 5.31 6.01953 5.22 7.33953 5.16C8.63953 5.09 9.82953 5.06 10.9295 5.06L12.5195 5C16.7095 5 19.3195 5.16 20.3495 5.44C21.2495 5.69 21.8295 6.27 22.0795 7.17Z" fill="white"/>
</g>
</svg>
