<svg width="168" height="69" viewBox="0 0 168 69" fill="none" xmlns="http://www.w3.org/2000/svg">
<g id="MaxDekor 1">
<g id="&#208;&#161;&#208;&#187;&#208;&#190;&#208;&#185;_x0020_1">
<g id="_2105539644832">
<path id="Vector" d="M47.5597 18.2482C50.0502 15.9322 52.5528 13.6261 55.1281 11.4029C58.3734 8.60163 64.3762 2.97992 68.961 2.909C72.0192 2.86178 72.578 4.2625 71.5188 6.67713C70.9128 8.05849 69.9459 9.88258 69.6895 10.4107C67.3171 15.3002 63.9208 22.1835 63.5704 22.9208C62.7261 26.1472 72.5019 16.7275 72.5586 16.6736C76.4317 12.9739 84.9805 4.65167 90.9024 3.08323L90.9025 3.08359L90.9111 3.08142C93.3917 2.48003 95.3041 3.3121 93.8291 6.36883C91.3963 11.3777 89.1625 16.4759 86.8444 21.5361C85.7675 24.303 89.7955 23.9519 91.2508 23.7706C96.8684 23.0706 111.186 18.9475 113.506 11.941C115.715 5.27134 105.282 4.12952 100.142 3.53102C96.5571 3.11363 98.8379 2.90918 102.512 2.90918C110.476 2.90918 114.214 5.05206 115.667 7.64761C119.436 14.3822 105.043 26.1336 88.4769 26.069C80.4775 26.0381 83.109 21.5658 85.0973 17.235C86.8641 13.3866 88.7439 9.57953 90.4734 5.72022C84.9246 8.47661 79.3173 14.1709 75.276 18.0991C71.7754 21.5019 67.8988 26.0614 62.4955 26.069C61.061 26.071 59.9279 25.5657 59.7368 24.0043C59.5978 22.8701 62.2583 16.9902 64.5077 12.3926C65.5376 10.2873 66.7392 7.76992 67.873 5.60985C62.9725 7.75725 57.6373 11.9781 52.5228 16.3774C51.5232 17.2374 44.2896 23.7738 41.1751 25.7493C40.9765 25.8753 40.5066 26.0689 40.3218 26.0689C38.3653 26.0689 47.0108 18.7586 47.5597 18.248V18.2482Z" fill="white"/>
<path id="Vector_2" d="M146.153 41.0749C146.372 41.1019 146.592 41.123 146.815 41.1379C147.074 41.1552 147.336 41.1639 147.603 41.1639C148.334 41.1639 148.97 41.082 149.514 40.9188C150.051 40.7568 150.498 40.5153 150.856 40.194L150.856 40.1933C151.154 39.9286 151.378 39.6181 151.526 39.2622C151.676 38.9045 151.75 38.498 151.75 38.0431C151.75 37.0139 151.449 36.2451 150.846 35.7369C150.236 35.2223 149.311 34.9651 148.073 34.9651C147.596 34.9651 147.214 34.9973 146.929 35.0617C146.665 35.1217 146.49 35.2062 146.405 35.3153L146.403 35.3173C146.327 35.4215 146.266 35.6636 146.222 36.0452C146.176 36.4467 146.153 36.9914 146.153 37.68V41.0749ZM146.798 41.4093C146.537 41.3917 146.274 41.3655 146.011 41.3302C145.94 41.3267 145.884 41.267 145.884 41.1943V37.6798C145.884 36.9829 145.908 36.4277 145.955 36.0142C146.005 35.5844 146.083 35.2978 146.189 35.1532L146.194 35.1456C146.319 34.987 146.545 34.8704 146.872 34.7964C147.178 34.7268 147.579 34.692 148.073 34.692C149.375 34.692 150.357 34.9707 151.017 35.5281C151.685 36.0913 152.019 36.9295 152.019 38.043C152.019 38.5329 151.937 38.9744 151.773 39.3672C151.608 39.7619 151.361 40.1053 151.033 40.3973C150.645 40.7456 150.165 41.0062 149.589 41.1791C149.02 41.3508 148.358 41.436 147.603 41.436C147.336 41.436 147.068 41.4273 146.798 41.4091L146.798 41.4093ZM146.153 42.0606V45.3113C146.153 45.8748 146.157 46.3293 146.166 46.6753C146.174 47.0301 146.187 47.2904 146.205 47.4576C146.219 47.5839 146.239 47.6946 146.268 47.789C146.295 47.8788 146.329 47.9542 146.371 48.0145L146.375 48.0208C146.439 48.1257 146.591 48.2153 146.832 48.2897C147.095 48.3714 147.453 48.4297 147.906 48.4641H147.907C148.022 48.4742 148.111 48.5142 148.176 48.5851C148.24 48.6555 148.272 48.7499 148.272 48.8677C148.272 48.9913 148.245 49.0883 148.192 49.1592C148.129 49.2415 148.041 49.2826 147.928 49.2826C147.922 49.2826 147.917 49.282 147.911 49.2815C147.352 49.2542 146.848 49.2344 146.4 49.2214C145.932 49.2077 145.512 49.2012 145.142 49.2012C144.737 49.2012 144.307 49.2075 143.852 49.2212C143.412 49.2344 142.936 49.2543 142.424 49.2818L142.417 49.282V49.2826C142.307 49.2826 142.224 49.2395 142.167 49.153C142.165 49.1498 142.162 49.1463 142.161 49.1429C142.118 49.0743 142.098 48.983 142.098 48.8677C142.098 48.757 142.121 48.668 142.168 48.5994C142.222 48.5209 142.3 48.4762 142.403 48.4648L142.414 48.4637C142.859 48.4223 143.211 48.3609 143.47 48.2797C143.706 48.2053 143.853 48.1192 143.912 48.0222C143.988 47.8853 144.047 47.5953 144.089 47.1516C144.131 46.6966 144.153 46.0842 144.153 45.3149V37.5604C144.153 37.0898 144.149 36.7106 144.14 36.423C144.131 36.1279 144.118 35.9133 144.101 35.7801C144.088 35.6794 144.068 35.5889 144.04 35.5082C144.013 35.432 143.979 35.3649 143.937 35.3076L143.932 35.3001C143.891 35.241 143.835 35.1885 143.765 35.1436C143.689 35.0955 143.597 35.0562 143.491 35.0266L143.49 35.0269C143.366 34.9929 143.2 34.9622 142.992 34.9343C142.783 34.9061 142.526 34.8798 142.221 34.8549L142.216 34.8545C142.118 34.8424 142.045 34.799 141.995 34.7239C141.951 34.6593 141.93 34.5757 141.93 34.4724C141.93 34.3374 141.948 34.2321 141.985 34.1556C142.038 34.0476 142.119 33.9942 142.232 33.9942C142.237 33.9942 142.243 33.9948 142.248 33.9951C142.811 34.0224 143.318 34.0423 143.769 34.0554C144.241 34.0691 144.665 34.0753 145.039 34.0753C145.15 34.0753 145.319 34.0718 145.548 34.0659C145.784 34.0594 146.095 34.0496 146.479 34.0371V34.0369C146.783 34.0161 147.109 34.0004 147.458 33.9895C147.811 33.9787 148.173 33.9732 148.544 33.9732C149.489 33.9732 150.314 34.0738 151.02 34.275C151.732 34.478 152.323 34.784 152.794 35.1927C153.189 35.529 153.485 35.9252 153.683 36.3824C153.88 36.8373 153.978 37.3495 153.978 37.9198C153.978 38.4012 153.896 38.8506 153.731 39.2675C153.567 39.682 153.321 40.0623 152.993 40.4071L152.99 40.41C152.689 40.7219 152.332 40.9924 151.92 41.2222C151.551 41.4275 151.137 41.6005 150.678 41.7405C151.094 42.5572 151.531 43.3663 151.988 44.1676C152.473 45.0189 152.98 45.8586 153.508 46.6865L153.511 46.691C153.768 47.0923 154.003 47.4189 154.216 47.6703C154.424 47.9159 154.609 48.0872 154.77 48.1831L154.776 48.1867C154.88 48.2498 155.031 48.3045 155.229 48.3508C155.438 48.3993 155.694 48.4373 155.996 48.465H155.999C156.102 48.4764 156.181 48.5209 156.235 48.5992C156.284 48.6674 156.308 48.757 156.308 48.8679C156.308 48.9864 156.287 49.0792 156.246 49.1474C156.192 49.2381 156.111 49.2827 156.006 49.2827C156 49.2827 155.995 49.2822 155.989 49.2817C155.507 49.2545 155.11 49.235 154.794 49.2221C154.452 49.2082 154.197 49.2013 154.033 49.2013C153.732 49.2013 153.482 49.203 153.276 49.2053C153.024 49.2086 152.793 49.2131 152.586 49.2185C152.529 49.22 152.48 49.1852 152.459 49.1351H152.459C152.386 48.9567 152.283 48.7331 152.149 48.4662C152.018 48.2048 151.86 47.903 151.673 47.5627C151.211 46.7688 150.718 45.9052 150.195 44.9728C149.683 44.0611 149.149 43.0955 148.592 42.0769C148.441 42.0874 148.289 42.0959 148.137 42.1022C147.954 42.1096 147.783 42.1132 147.624 42.1132C147.342 42.1132 147.062 42.1078 146.786 42.0969C146.564 42.0881 146.353 42.0761 146.152 42.0608L146.153 42.0606ZM145.884 45.3113V41.9133L145.884 41.9021C145.89 41.8274 145.955 41.7713 146.029 41.7774C146.281 41.7991 146.536 41.8149 146.796 41.8254C147.054 41.8353 147.33 41.8408 147.625 41.8408C147.794 41.8408 147.961 41.8373 148.127 41.8306C148.295 41.8236 148.472 41.8133 148.659 41.7986C148.71 41.795 148.76 41.821 148.786 41.8692C149.365 42.9299 149.913 43.9198 150.428 44.8383C150.945 45.7589 151.437 46.621 151.905 47.4239H151.904L151.906 47.427C152.097 47.7756 152.258 48.081 152.389 48.3436C152.506 48.5766 152.6 48.7774 152.671 48.9446C152.853 48.9401 153.054 48.9361 153.274 48.9337C153.534 48.9305 153.79 48.9285 154.033 48.9285C154.188 48.9285 154.445 48.9354 154.805 48.9502C155.13 48.9636 155.53 48.9831 156.005 49.0097H156.006C156.012 49.0097 156.016 49.0083 156.017 49.0058C156.032 48.9813 156.039 48.9354 156.039 48.8675C156.039 48.8138 156.032 48.7767 156.017 48.7563C156.009 48.7445 155.993 48.7373 155.97 48.7347L155.971 48.7345C155.654 48.7056 155.387 48.666 155.17 48.6155C154.945 48.5629 154.768 48.4975 154.638 48.4188L154.635 48.4172C154.447 48.3052 154.24 48.1151 154.013 47.8469C153.792 47.5869 153.55 47.251 153.286 46.8394L153.283 46.833C152.753 46.0029 152.244 45.1598 151.756 44.3037C151.274 43.4582 150.811 42.5985 150.369 41.7239C150.364 41.7141 150.359 41.7036 150.356 41.692C150.336 41.6197 150.378 41.5449 150.45 41.5247C150.951 41.3832 151.398 41.2028 151.792 40.9835C152.181 40.7666 152.517 40.5117 152.799 40.2191L152.8 40.2186C153.104 39.8991 153.331 39.5481 153.483 39.1663C153.634 38.7829 153.71 38.3672 153.71 37.9198C153.71 37.3866 153.619 36.91 153.438 36.4908C153.257 36.0738 152.985 35.7107 152.622 35.4015L152.621 35.4004C152.18 35.0172 151.622 34.7291 150.948 34.5366C150.267 34.3427 149.466 34.2455 148.544 34.2455C148.156 34.2455 147.796 34.2508 147.465 34.2609C147.129 34.2714 146.807 34.2871 146.498 34.3087V34.3081L146.493 34.3087C146.114 34.3208 145.802 34.3306 145.555 34.3373C145.301 34.3441 145.128 34.3479 145.039 34.3479C144.684 34.3479 144.259 34.3411 143.762 34.3268C143.302 34.3135 142.794 34.2936 142.236 34.2667H142.232C142.231 34.2667 142.229 34.2696 142.226 34.2757C142.208 34.3126 142.199 34.3783 142.199 34.4722C142.199 34.5203 142.205 34.5535 142.217 34.5705C142.221 34.5772 142.231 34.5815 142.247 34.5837C142.546 34.6083 142.806 34.6349 143.027 34.6645C143.25 34.6948 143.428 34.7277 143.56 34.7639L143.56 34.7642L143.561 34.7646C143.694 34.8013 143.81 34.8514 143.908 34.9137C144.009 34.9781 144.09 35.0557 144.152 35.1445L144.154 35.1463C144.211 35.226 144.257 35.3162 144.293 35.4177C144.327 35.5151 144.352 35.6236 144.367 35.7448C144.386 35.8869 144.399 36.1101 144.408 36.4152C144.417 36.7262 144.422 37.1079 144.422 37.5603V45.3147C144.422 46.0862 144.4 46.7071 144.356 47.1771C144.311 47.6595 144.24 47.9857 144.146 48.1554L144.142 48.1628C144.048 48.3191 143.85 48.4442 143.55 48.539C143.275 48.6258 142.904 48.6909 142.438 48.734L142.432 48.7347C142.41 48.7373 142.395 48.7438 142.388 48.7544C142.374 48.7751 142.367 48.8127 142.367 48.8675C142.367 48.9298 142.373 48.973 142.387 48.9971L142.39 49.0007C142.394 49.0068 142.403 49.0097 142.418 49.0097C142.922 48.9828 143.397 48.9627 143.845 48.9495C144.324 48.9352 144.756 48.9285 145.142 48.9285C145.494 48.9285 145.915 48.9352 146.408 48.9498C146.864 48.9631 147.37 48.983 147.924 49.0097H147.928C147.954 49.0097 147.971 49.0047 147.979 48.994C147.995 48.9721 148.003 48.9303 148.003 48.8675C148.003 48.8199 147.995 48.7872 147.978 48.7687C147.962 48.7507 147.93 48.7393 147.884 48.7355C147.414 48.6993 147.036 48.6374 146.753 48.5496C146.451 48.4557 146.249 48.328 146.149 48.1661C146.092 48.0829 146.046 47.9833 146.011 47.8676C145.978 47.7548 145.954 47.6278 145.939 47.4862C145.921 47.3148 145.907 47.0469 145.898 46.6816C145.889 46.3076 145.884 45.8508 145.884 45.3111L145.884 45.3113ZM146.018 41.1945C146.542 41.2649 147.069 41.3003 147.603 41.3003C149.089 41.3003 150.2 40.9653 150.944 40.2957C151.571 39.739 151.885 38.9879 151.885 38.0431C151.885 35.9004 150.613 34.8286 148.073 34.8286C147.101 34.8286 146.51 34.9625 146.299 35.2305C146.115 35.4736 146.018 36.2878 146.018 37.68V41.1945H146.018ZM146.018 41.9133V45.3113C146.018 46.4145 146.036 47.1337 146.072 47.4719C146.1 47.7396 146.161 47.9477 146.261 48.0921C146.424 48.36 146.973 48.5294 147.895 48.5998C148.056 48.6139 148.138 48.7022 148.138 48.8677C148.138 49.0544 148.066 49.1462 147.928 49.1462C146.773 49.0895 145.844 49.0651 145.142 49.0651C144.369 49.0651 143.461 49.0895 142.417 49.1462C142.293 49.1462 142.232 49.0544 142.232 48.8677C142.232 48.702 142.293 48.6139 142.417 48.5998C143.336 48.5151 143.874 48.3459 144.027 48.0921C144.198 47.789 144.287 46.8623 144.287 45.3149V37.5604C144.287 36.6366 144.269 36.0374 144.234 35.7626C144.205 35.5406 144.145 35.3644 144.045 35.2269C143.942 35.0754 143.767 34.9625 143.525 34.8956C143.269 34.8252 142.837 34.7686 142.232 34.7194C142.118 34.7053 142.065 34.6242 142.065 34.4728C142.065 34.2439 142.118 34.131 142.232 34.131C143.393 34.1876 144.33 34.2121 145.039 34.2121C145.238 34.2121 145.723 34.1979 146.489 34.1732C147.101 34.131 147.785 34.1096 148.544 34.1096C150.41 34.1096 151.796 34.5048 152.708 35.2978C153.467 35.943 153.844 36.817 153.844 37.9201C153.844 38.8468 153.531 39.6472 152.897 40.3132C152.313 40.9197 151.507 41.3673 150.485 41.6562C151.369 43.4045 152.341 45.1068 153.395 46.7599C153.919 47.5779 154.354 48.0921 154.703 48.3005C154.938 48.4451 155.365 48.5435 155.985 48.5998C156.109 48.6139 156.174 48.7022 156.174 48.8677C156.174 49.0544 156.117 49.1462 156.006 49.1462C154.998 49.0895 154.339 49.0651 154.033 49.0651C153.463 49.0651 152.979 49.072 152.583 49.0826C152.437 48.7268 152.173 48.1947 151.789 47.493C150.859 45.8964 149.819 44.0423 148.668 41.9347C148.301 41.9627 147.953 41.9768 147.625 41.9768C147.048 41.9768 146.513 41.9558 146.018 41.9133ZM129.771 34.6479C128.912 34.6479 128.139 34.8267 127.453 35.1852C126.765 35.5438 126.162 36.0826 125.644 36.8013L125.644 36.8015L125.644 36.8016C125.183 37.4358 124.837 38.1513 124.607 38.9485C124.376 39.7476 124.26 40.6302 124.26 41.596C124.26 43.863 124.847 45.644 126.02 46.9501C126.519 47.5034 127.079 47.918 127.703 48.1941C128.327 48.47 129.017 48.6079 129.771 48.6079C130.634 48.6079 131.41 48.4297 132.098 48.0733C132.787 47.7167 133.391 47.1806 133.909 46.4647L133.912 46.4601C134.372 45.8291 134.716 45.1151 134.946 44.3182C135.178 43.5174 135.293 42.6312 135.293 41.6597C135.293 40.5305 135.143 39.5191 134.844 38.6263C134.545 37.7368 134.098 36.9636 133.502 36.3061L133.496 36.2987C132.992 35.7494 132.431 35.3367 131.813 35.0619C131.192 34.7861 130.512 34.6481 129.771 34.6481V34.6479ZM127.33 34.9435C128.056 34.5645 128.87 34.3751 129.771 34.3751C130.548 34.3751 131.264 34.5213 131.92 34.8125C132.572 35.1024 133.162 35.5364 133.692 36.1138L133.699 36.1217C134.321 36.8074 134.788 37.6131 135.098 38.5391C135.408 39.4612 135.562 40.5014 135.562 41.6597C135.562 42.6547 135.443 43.5664 135.204 44.3938C134.965 45.2217 134.607 45.964 134.129 46.621L134.126 46.6255C133.583 47.3754 132.947 47.9387 132.221 48.315C131.493 48.6922 130.676 48.8806 129.772 48.8806C128.98 48.8806 128.256 48.7349 127.596 48.4431C126.937 48.1518 126.346 47.7149 125.822 47.1335C124.601 45.7748 123.991 43.933 123.991 41.5961C123.991 40.6059 124.111 39.6977 124.35 38.872C124.589 38.0442 124.949 37.3006 125.428 36.641L125.428 36.6412C125.971 35.8872 126.606 35.3213 127.33 34.9435ZM129.771 33.6564C130.993 33.6564 132.097 33.8652 133.085 34.2832C134.074 34.7022 134.944 35.3305 135.694 36.1686L135.701 36.1764C136.353 36.9075 136.842 37.7245 137.169 38.627C137.496 39.5314 137.66 40.5218 137.66 41.5961C137.66 42.8349 137.449 43.9574 137.028 44.9624C136.606 45.9693 135.974 46.8564 135.133 47.6224C134.402 48.2877 133.59 48.7876 132.695 49.121C131.802 49.4541 130.827 49.6207 129.771 49.6207C128.557 49.6207 127.457 49.4085 126.47 48.9826C125.484 48.5567 124.613 47.9178 123.858 47.0653C123.204 46.3257 122.712 45.503 122.385 44.5975C122.057 43.6925 121.893 42.7059 121.893 41.6385C121.893 40.4096 122.103 39.295 122.524 38.2952C122.944 37.2937 123.574 36.4097 124.414 35.6439L124.422 35.637C125.149 34.9786 125.958 34.4838 126.849 34.1533C127.742 33.8222 128.716 33.6562 129.772 33.6562L129.771 33.6564ZM132.982 34.5345C132.028 34.1306 130.958 33.9287 129.771 33.9287C128.746 33.9287 127.803 34.0892 126.94 34.4089C126.081 34.7273 125.301 35.2048 124.6 35.84L124.593 35.8462C123.783 36.5856 123.175 37.4378 122.77 38.4017C122.365 39.3666 122.162 40.4458 122.162 41.6388C122.162 42.6746 122.321 43.6301 122.637 44.5042C122.953 45.3778 123.427 46.1717 124.058 46.8848C124.785 47.7063 125.625 48.3222 126.576 48.7329C127.527 49.1434 128.592 49.3486 129.772 49.3486C130.796 49.3486 131.74 49.1876 132.603 48.8659C133.465 48.5446 134.248 48.0624 134.953 47.4203C135.765 46.6809 136.375 45.826 136.781 44.8561C137.188 43.8861 137.391 42.7991 137.391 41.5961C137.391 40.5529 137.233 39.5944 136.917 38.7205C136.602 37.8492 136.13 37.0618 135.502 36.3578L135.496 36.3513C134.772 35.5431 133.934 34.9377 132.982 34.5345ZM129.771 34.5115C128.012 34.5115 126.597 35.248 125.536 36.7217C124.596 38.0153 124.126 39.64 124.126 41.5961C124.126 43.8979 124.724 45.7093 125.921 47.042C126.943 48.1769 128.225 48.7443 129.771 48.7443C131.538 48.7443 132.956 48.011 134.017 46.545C134.958 45.255 135.428 43.6263 135.428 41.6595C135.428 39.3722 134.819 37.5568 133.601 36.2136C132.564 35.0789 131.289 34.5115 129.771 34.5115ZM129.771 33.7923C132.179 33.7923 134.12 34.6137 135.595 36.2599C136.881 37.6981 137.525 39.4777 137.525 41.5961C137.525 44.0388 136.696 46.0161 135.043 47.5213C133.607 48.829 131.851 49.4847 129.771 49.4847C127.378 49.4847 125.44 48.6488 123.958 46.9749C122.672 45.5228 122.028 43.7425 122.028 41.6385C122.028 39.2168 122.854 37.25 124.503 35.745C125.935 34.4445 127.691 33.7923 129.771 33.7923ZM116.515 34.342C116.569 34.9982 116.621 35.6028 116.672 36.1565C116.725 36.722 116.78 37.263 116.836 37.7784C116.836 37.7835 116.836 37.7882 116.836 37.7931H116.837V37.8566C116.837 37.9648 116.784 38.0448 116.679 38.0952C116.607 38.1302 116.508 38.1477 116.382 38.1477C116.308 38.1477 116.242 38.1271 116.184 38.0866C116.132 38.05 116.088 37.9977 116.053 37.9308C116.05 37.9259 116.048 37.9212 116.047 37.9161C115.807 37.371 115.542 36.895 115.252 36.489C114.965 36.0881 114.653 35.7573 114.318 35.4984C113.903 35.2189 113.459 35.009 112.986 34.8692C112.51 34.7286 112.003 34.658 111.466 34.658C110.63 34.658 109.878 34.8352 109.208 35.1894C108.537 35.5444 107.945 36.0778 107.432 36.7902L107.432 36.7904C106.978 37.4253 106.637 38.1407 106.41 38.9369V38.9373C106.183 39.7364 106.069 40.619 106.069 41.5855C106.069 42.5952 106.218 43.5103 106.518 44.3297C106.816 45.147 107.263 45.8705 107.858 46.4999L107.859 46.5003C108.376 47.0518 108.952 47.465 109.585 47.74C110.219 48.0155 110.911 48.1531 111.662 48.1531C112.289 48.1531 112.868 48.0865 113.396 47.9539C113.922 47.8214 114.401 47.6233 114.83 47.3593L114.83 47.359C115.193 47.1344 115.537 46.8524 115.862 46.5128C116.189 46.1721 116.498 45.773 116.789 45.3149L116.793 45.308C116.828 45.2566 116.872 45.2168 116.926 45.1899C116.98 45.1634 117.041 45.1499 117.112 45.1499C117.175 45.1499 117.238 45.1616 117.299 45.1844C117.358 45.2058 117.415 45.2371 117.471 45.2776L117.475 45.2809C117.525 45.3161 117.565 45.3536 117.594 45.3939C117.633 45.4473 117.652 45.5038 117.652 45.5647C117.652 45.6112 117.644 45.657 117.628 45.7031C117.614 45.7446 117.594 45.7849 117.567 45.8247C116.878 47.0825 116.02 48.0275 114.993 48.6593C113.962 49.2932 112.765 49.61 111.402 49.61C110.194 49.61 109.107 49.4011 108.138 48.9828C107.169 48.5634 106.321 47.9347 105.595 47.0957L105.592 47.0932C104.955 46.3615 104.477 45.5396 104.158 44.6285C103.84 43.717 103.68 42.7163 103.68 41.6278C103.68 40.3888 103.886 39.27 104.296 38.2724C104.708 37.2733 105.325 36.3969 106.146 35.6448L106.146 35.6446C106.859 34.986 107.658 34.491 108.542 34.1612C109.425 33.8316 110.392 33.6666 111.445 33.6666C111.916 33.6666 112.363 33.6935 112.786 33.7471C113.21 33.8006 113.609 33.8817 113.985 33.9892L113.993 33.992C114.317 34.0874 114.617 34.1596 114.894 34.2077C115.168 34.2558 115.417 34.2799 115.64 34.2799C115.848 34.2799 116.088 34.2591 116.362 34.218C116.435 34.2072 116.504 34.2587 116.514 34.3331L116.515 34.342ZM116.405 36.1821C116.354 35.6356 116.306 35.0771 116.259 34.5073C116.029 34.5375 115.823 34.5527 115.64 34.5527C115.404 34.5527 115.139 34.527 114.848 34.4764C114.565 34.4264 114.255 34.3519 113.918 34.2528L113.912 34.2513C113.551 34.1475 113.165 34.0698 112.754 34.0176C112.342 33.9653 111.906 33.9394 111.445 33.9394C110.424 33.9394 109.487 34.0986 108.634 34.4167C107.783 34.7346 107.014 35.2109 106.327 35.846L106.327 35.8456L106.327 35.846C105.535 36.5706 104.941 37.4144 104.545 38.3769C104.148 39.3407 103.949 40.4247 103.949 41.6282C103.949 42.6864 104.104 43.6565 104.412 44.5384C104.719 45.4175 105.18 46.2099 105.794 46.9146L105.796 46.9175C106.495 47.7248 107.311 48.3296 108.243 48.7329C109.177 49.1366 110.23 49.3379 111.402 49.3379C112.717 49.3379 113.867 49.0347 114.854 48.4279C115.84 47.8211 116.667 46.9088 117.333 45.6917C117.336 45.6863 117.339 45.6809 117.343 45.6755C117.358 45.6534 117.368 45.6329 117.375 45.6141C117.38 45.5986 117.383 45.5823 117.383 45.5653C117.383 45.5629 117.381 45.5593 117.378 45.5542C117.367 45.5396 117.349 45.5231 117.323 45.505L117.315 45.5C117.279 45.4734 117.243 45.4535 117.208 45.4408C117.176 45.4292 117.144 45.4231 117.111 45.4231C117.083 45.4231 117.06 45.4272 117.044 45.4354C117.033 45.441 117.024 45.4489 117.016 45.4596L117.014 45.4623C116.714 45.9353 116.394 46.3485 116.054 46.7029C115.713 47.0586 115.351 47.3548 114.969 47.5915V47.5913L114.969 47.5915C114.515 47.8703 114.012 48.0792 113.459 48.218C112.909 48.3568 112.309 48.4261 111.662 48.4261C110.875 48.4261 110.147 48.281 109.479 47.9904C108.812 47.7006 108.207 47.2665 107.664 46.6879C107.042 46.0312 106.576 45.276 106.265 44.4238C105.955 43.5733 105.799 42.6271 105.799 41.5857C105.799 40.5958 105.917 39.6876 106.152 38.8618C106.389 38.0336 106.742 37.29 107.214 36.6308L107.214 36.631L107.215 36.6308C107.752 35.884 108.375 35.3233 109.084 34.9488C109.794 34.5734 110.588 34.3857 111.466 34.3857C112.026 34.3857 112.558 34.4601 113.06 34.6086C113.56 34.7565 114.029 34.9775 114.466 35.2725C114.47 35.275 114.474 35.2779 114.478 35.281C114.836 35.5565 115.166 35.9064 115.469 36.3294C115.768 36.7479 116.042 37.24 116.29 37.8054C116.305 37.8325 116.32 37.8517 116.336 37.8631C116.348 37.8711 116.363 37.8752 116.381 37.8752C116.467 37.8752 116.528 37.8666 116.563 37.8494C116.565 37.8488 116.566 37.8544 116.567 37.8568L116.567 37.8579V37.7978C116.513 37.2972 116.459 36.7589 116.405 36.1821H116.405ZM116.567 37.8568C116.567 37.8579 116.567 37.8581 116.567 37.8579L116.567 37.8568ZM116.382 34.3528C116.485 35.6287 116.592 36.7741 116.702 37.7931V37.8566C116.702 37.9586 116.595 38.0115 116.382 38.0115C116.289 38.0115 116.221 37.9621 116.171 37.8669C115.683 36.7531 115.092 35.9247 114.397 35.389C113.542 34.8111 112.563 34.522 111.466 34.522C109.753 34.522 108.374 35.2515 107.324 36.7106C106.398 38.0044 105.934 39.6293 105.934 41.5857C105.934 43.6368 106.544 45.3075 107.762 46.5944C108.823 47.7255 110.127 48.2897 111.662 48.2897C112.937 48.2897 114.016 48.0183 114.9 47.4751C115.645 47.0134 116.311 46.319 116.902 45.3885C116.944 45.3216 117.012 45.2865 117.112 45.2865C117.208 45.2865 117.301 45.3216 117.393 45.3885C117.475 45.4451 117.518 45.5014 117.518 45.5647C117.518 45.6282 117.497 45.6881 117.454 45.7515C116.097 48.2328 114.081 49.4736 111.402 49.4736C109.023 49.4736 107.121 48.6524 105.696 47.0063C104.442 45.5682 103.815 43.7739 103.815 41.6274C103.815 39.1848 104.624 37.2217 106.237 35.7447C107.637 34.4511 109.372 33.8026 111.445 33.8026C112.378 33.8026 113.212 33.9085 113.949 34.1198C114.615 34.3172 115.181 34.416 115.641 34.416C115.855 34.416 116.1 34.3948 116.382 34.3524L116.382 34.3528ZM98.1122 49.2815C97.1144 49.2444 96.1779 49.2164 95.3017 49.1975C94.4361 49.1789 93.6133 49.1697 92.8329 49.1697C91.9628 49.1697 91.0779 49.1789 90.1779 49.1975C89.2645 49.2164 88.3174 49.2446 87.338 49.2817L87.3334 49.2818V49.2824C87.2278 49.2824 87.1476 49.2377 87.0933 49.1471C87.0522 49.0788 87.0314 48.9859 87.0314 48.8675C87.0314 48.7628 87.0526 48.677 87.0942 48.6103C87.1433 48.5317 87.2151 48.484 87.3085 48.4659C87.3141 48.465 87.3194 48.4644 87.3248 48.4639C87.6016 48.4362 87.835 48.4067 88.0254 48.3747C88.2081 48.3436 88.3477 48.3112 88.4447 48.2761C88.5167 48.2446 88.5819 48.2066 88.639 48.1617C88.6937 48.1189 88.741 48.0698 88.7799 48.0145L88.7794 48.0141C88.8535 47.9065 88.911 47.6329 88.9517 47.1938C88.9942 46.7384 89.0153 46.1117 89.0153 45.3143V37.898C89.0153 37.3428 89.011 36.8981 89.0032 36.5619C88.9948 36.2091 88.9826 35.9547 88.9667 35.7997H88.9666C88.9532 35.6889 88.9321 35.5914 88.9039 35.5051C88.8762 35.421 88.8407 35.3457 88.7982 35.2788L88.7978 35.2784C88.7273 35.1784 88.5687 35.0939 88.3213 35.023C88.0484 34.945 87.678 34.8893 87.2096 34.8545L87.1991 34.8534C87.1015 34.8413 87.0255 34.8001 86.9713 34.7295C86.9212 34.664 86.8956 34.5782 86.8956 34.472C86.8956 34.3349 86.9174 34.2276 86.9603 34.15L86.9606 34.1495L86.9603 34.1493C87.0178 34.0454 87.1044 33.9939 87.219 33.9939C87.2246 33.9939 87.2301 33.9944 87.2357 33.9948C87.9561 34.0286 88.7605 34.0539 89.6488 34.0711C90.5137 34.0878 91.4809 34.0963 92.5512 34.0963C93.541 34.0963 94.4554 34.0878 95.2958 34.0711C96.1636 34.0539 96.9757 34.0284 97.7316 33.9946C97.8031 33.9913 97.8638 34.0452 97.8709 34.1163C97.9608 34.9935 98.0365 35.7161 98.0985 36.2853C98.1594 36.8416 98.2054 37.2331 98.2374 37.4595C98.2383 37.466 98.2387 37.4725 98.2387 37.4788H98.239V37.5389C98.239 37.6545 98.1865 37.7415 98.0808 37.7985C98.0031 37.8407 97.8959 37.8619 97.7588 37.8619C97.6925 37.8619 97.6332 37.8423 97.582 37.8047C97.5346 37.7698 97.4968 37.7206 97.4691 37.6574C97.4673 37.6536 97.4659 37.6496 97.4645 37.6456H97.4643C97.3114 37.1935 97.1242 36.7977 96.9026 36.4586C96.6828 36.1219 96.429 35.8409 96.1416 35.6157L96.1379 35.6128C95.8952 35.4217 95.5166 35.2768 95.0026 35.1789C94.4747 35.078 93.8067 35.0277 93.0002 35.0277C92.5039 35.0277 92.106 35.0684 91.8065 35.1492C91.527 35.2247 91.3391 35.3327 91.244 35.4727L91.2415 35.4764C91.1781 35.5746 91.1284 35.7586 91.0931 36.0285C91.0555 36.3142 91.0366 36.692 91.0366 37.1613V40.7677C91.1439 40.7719 91.275 40.7753 91.43 40.7778C91.6352 40.7807 91.9153 40.7825 92.27 40.7825C93.0299 40.7825 93.6405 40.7476 94.1028 40.6783C94.5482 40.6112 94.8483 40.5148 95.004 40.3892L95.0108 40.3841C95.1767 40.2517 95.3078 40.0831 95.4057 39.8783C95.5066 39.6664 95.5719 39.4155 95.6021 39.1247L95.6025 39.1233H95.6021C95.6135 39.0241 95.6523 38.9472 95.7189 38.8928C95.7221 38.8899 95.7253 38.8875 95.7287 38.8852C95.7898 38.839 95.8682 38.8153 95.9638 38.8153C96.0952 38.8153 96.1981 38.8372 96.2727 38.8805C96.3727 38.938 96.4222 39.0245 96.4222 39.1386C96.4222 39.1439 96.4218 39.149 96.4213 39.1542C96.4072 39.6318 96.3967 40.0407 96.3897 40.3812C96.3829 40.7103 96.3795 40.9879 96.3795 41.2146C96.3795 41.8127 96.3936 42.6044 96.4217 43.5831V43.5867H96.4222C96.4222 43.7012 96.3727 43.7873 96.2727 43.8449C96.1981 43.8881 96.0952 43.91 95.9638 43.91C95.8596 43.91 95.7762 43.8803 95.7127 43.8217C95.7094 43.8186 95.7064 43.8159 95.7036 43.8127C95.6459 43.7549 95.6123 43.6771 95.6021 43.5796L95.6019 43.5767H95.6018C95.5709 43.2037 95.5016 42.893 95.3933 42.6464C95.289 42.4089 95.1485 42.2297 94.9704 42.1105C94.9667 42.108 94.9631 42.1055 94.9597 42.1026C94.7893 41.9842 94.4865 41.8938 94.0516 41.8306C93.5962 41.7646 93.0022 41.7318 92.27 41.7318C92.0385 41.7318 91.8142 41.7351 91.5977 41.7416C91.4156 41.7472 91.2284 41.7555 91.0368 41.766V45.3176C91.0368 46.0013 91.0622 46.5506 91.1118 46.9647C91.16 47.3651 91.2282 47.6307 91.3157 47.761L91.3166 47.7623C91.3831 47.8562 91.4661 47.9358 91.5656 48.0011C91.6683 48.0686 91.7897 48.1218 91.9297 48.1605C92.0774 48.1961 92.2669 48.2229 92.4996 48.2412C92.7336 48.2596 93.0118 48.2692 93.3351 48.2692C93.851 48.2692 94.3095 48.2509 94.7113 48.2147C95.1153 48.1787 95.4601 48.1252 95.7468 48.0548L95.7478 48.0546V48.0541C95.9864 47.9978 96.2122 47.9226 96.4247 47.829C96.6376 47.7353 96.8387 47.6222 97.0273 47.4898L97.0283 47.4891C97.3009 47.2897 97.5655 47.0192 97.8227 46.6782C98.0833 46.3319 98.3349 45.9148 98.5774 45.4263C98.6062 45.3626 98.6392 45.3123 98.6782 45.2758C98.73 45.227 98.7885 45.2025 98.8559 45.2025C99.015 45.2025 99.1386 45.2279 99.2272 45.2792C99.34 45.3444 99.3965 45.4428 99.3965 45.5747C99.3965 45.5881 99.3947 45.6009 99.3911 45.613L99.3713 45.7115H99.3715C99.2431 46.2656 99.0854 46.8325 98.8989 47.4116C98.711 47.9956 98.4944 48.5911 98.2504 49.1966C98.2274 49.254 98.1701 49.2869 98.112 49.2809L98.1122 49.2815ZM95.3071 48.9261C96.1647 48.9446 97.0742 48.9717 98.0367 49.007C98.2647 48.436 98.4674 47.8761 98.6435 47.3282C98.8271 46.7576 98.9828 46.1978 99.1098 45.6505L99.11 45.6507L99.127 45.5664C99.1246 45.5445 99.1136 45.5275 99.0937 45.5163C99.0477 45.4893 98.97 45.4759 98.8609 45.4757C98.8484 45.4877 98.8352 45.5094 98.8212 45.5405L98.8191 45.5447C98.5674 46.0522 98.3065 46.4846 98.0361 46.8437C97.764 47.205 97.4807 47.4936 97.1859 47.7094L97.1796 47.7141C96.9767 47.8567 96.7606 47.9781 96.532 48.0789C96.3031 48.1798 96.0618 48.2602 95.8089 48.32L95.8087 48.3197C95.5059 48.394 95.148 48.4501 94.7345 48.487C94.3248 48.5238 93.8587 48.5424 93.3351 48.5424C93.0074 48.5424 92.7225 48.5326 92.4796 48.5136C92.2312 48.4941 92.0273 48.4648 91.8671 48.4264L91.8608 48.4246C91.6945 48.3787 91.5474 48.3137 91.4195 48.2298C91.2913 48.1455 91.1843 48.0429 91.0984 47.9213L91.0939 47.9151C90.9814 47.7483 90.8982 47.442 90.8448 46.9975C90.7935 46.5719 90.7677 46.012 90.7677 45.3185V41.6388H90.7678C90.7678 41.5674 90.8228 41.5073 90.8943 41.503C91.1247 41.4889 91.3568 41.4784 91.5904 41.4713C91.8296 41.4637 92.0562 41.4601 92.27 41.4601C93.0129 41.4601 93.6194 41.4943 94.0894 41.5621C94.5658 41.6311 94.907 41.7373 95.1128 41.8813L95.1187 41.8847C95.3399 42.0334 95.5128 42.2511 95.6382 42.5366C95.7596 42.8132 95.8364 43.1532 95.8696 43.5556H95.8695C95.8727 43.5856 95.8795 43.6068 95.8896 43.6183L95.8932 43.6216C95.9054 43.6326 95.9288 43.6386 95.9638 43.6386C96.0486 43.6386 96.1073 43.6288 96.1402 43.6097C96.1488 43.605 96.1531 43.5974 96.1531 43.5878H96.1534C96.1248 42.5871 96.1104 41.7941 96.1104 41.2157C96.1104 41.0195 96.1141 40.7398 96.1216 40.3771C96.1286 40.0315 96.1393 39.6217 96.1532 39.1471L96.1531 39.1397C96.1531 39.1301 96.1488 39.1227 96.1402 39.1178C96.1072 39.0987 96.0484 39.0893 95.9638 39.0893C95.9293 39.0893 95.9052 39.0938 95.8911 39.1028L95.888 39.1055C95.8782 39.1135 95.872 39.1301 95.8691 39.1553L95.8689 39.1551C95.8352 39.477 95.7614 39.7578 95.6473 39.9975C95.5317 40.2399 95.3751 40.44 95.1763 40.5985L95.171 40.6032C94.9776 40.7595 94.6349 40.8744 94.1416 40.9486C93.6651 41.0201 93.0415 41.0559 92.2698 41.0559C91.9585 41.0559 91.6774 41.0539 91.4267 41.0503C91.1993 41.0469 91.0246 41.0416 90.9036 41.0349H90.902C90.8277 41.0349 90.7675 40.9739 90.7675 40.8985V37.1624C90.7675 36.6857 90.7875 36.2963 90.8271 35.9943C90.8678 35.6828 90.932 35.4603 91.0182 35.3267L91.023 35.3191C91.1559 35.1243 91.3943 34.9799 91.7379 34.8871C92.0608 34.7997 92.4818 34.7559 92.9999 34.7559C93.821 34.7559 94.5052 34.808 95.0517 34.9124C95.6075 35.0186 96.0243 35.1807 96.3015 35.3987L96.3052 35.4018C96.6163 35.6455 96.8899 35.9478 97.126 36.309C97.3594 36.6665 97.5564 37.0815 97.7164 37.5537C97.7236 37.5684 97.7311 37.5791 97.7391 37.5847C97.7436 37.5881 97.7502 37.5899 97.7584 37.5899C97.852 37.5899 97.9172 37.5796 97.9543 37.5595C97.9643 37.5541 97.9695 37.5474 97.9695 37.5394V37.4873C97.9372 37.2574 97.8913 36.8666 97.8311 36.3157C97.7741 35.7944 97.7027 35.1123 97.6166 34.2721C96.8998 34.3031 96.1275 34.3269 95.2996 34.3432C94.4241 34.3606 93.5076 34.3695 92.5509 34.3695C91.5147 34.3695 90.5455 34.3606 89.6441 34.3432C88.7472 34.326 87.9402 34.3005 87.2228 34.2671H87.2187C87.2083 34.2671 87.2001 34.2723 87.1942 34.283H87.194C87.1744 34.3192 87.1644 34.3823 87.1644 34.4726C87.1644 34.5173 87.1707 34.5477 87.1832 34.5641C87.191 34.5741 87.2067 34.5808 87.2303 34.5839C87.7157 34.6199 88.1031 34.6788 88.3935 34.7617C88.7024 34.8502 88.9101 34.9698 89.0169 35.1228C89.0193 35.1259 89.0216 35.1292 89.0237 35.1324C89.0773 35.2169 89.1221 35.3126 89.1577 35.4205C89.1927 35.5265 89.218 35.6419 89.233 35.7673H89.2328L89.233 35.77C89.2494 35.9298 89.2621 36.1916 89.2707 36.5563C89.2793 36.9209 89.2839 37.369 89.2839 37.8986V45.3149C89.2839 46.114 89.2621 46.7493 89.2182 47.22C89.1728 47.7071 89.1002 48.0241 88.9998 48.1699L88.9992 48.1695L88.9987 48.1706C88.9432 48.2498 88.8773 48.3186 88.8026 48.3772C88.726 48.4375 88.6403 48.4874 88.5469 48.5274L88.5401 48.5303C88.4267 48.5721 88.2702 48.6092 88.0691 48.6432C87.8761 48.6759 87.6377 48.706 87.3537 48.7344C87.3383 48.7382 87.3273 48.7449 87.3208 48.7555C87.3071 48.7776 87.3 48.8149 87.3 48.8679C87.3 48.9357 87.3075 48.9817 87.3219 49.0061C87.3237 49.0086 87.3273 49.0101 87.333 49.0101V49.0106C88.3074 48.9735 89.2539 48.9453 90.1724 48.9265C91.1059 48.9072 91.9931 48.8974 92.8325 48.8974C93.5837 48.8974 94.4082 48.9072 95.3067 48.9265L95.3071 48.9261ZM98.126 49.146C96.1277 49.0718 94.3645 49.0333 92.8329 49.0333C91.1232 49.0333 89.2887 49.0718 87.3334 49.146C87.2226 49.146 87.1658 49.0542 87.1658 48.8675C87.1658 48.7087 87.2226 48.6209 87.3334 48.5996C87.8995 48.5433 88.2842 48.4798 88.4947 48.4024C88.6583 48.3316 88.7937 48.2296 88.8898 48.0921C89.0644 47.8384 89.1498 46.9115 89.1498 45.3149V37.8986C89.1498 36.7989 89.1319 36.094 89.1001 35.7837C89.0716 35.5476 89.0075 35.3575 88.9114 35.2061C88.7367 34.9488 88.1742 34.7897 87.2194 34.7192C87.0946 34.7051 87.0306 34.624 87.0306 34.4726C87.0306 34.2437 87.0947 34.1308 87.2194 34.1308C88.6513 34.1978 90.4287 34.233 92.5516 34.233C94.5143 34.233 96.2418 34.1978 97.7377 34.1308C97.9195 35.9071 98.0406 37.0247 98.1047 37.4792V37.5393C98.1047 37.6625 97.9906 37.7258 97.7591 37.7258C97.6845 37.7258 97.6273 37.6836 97.5918 37.6026C97.2784 36.6755 96.8223 35.9777 96.2238 35.5087C95.7041 35.0964 94.6283 34.892 93.0004 34.892C91.9853 34.892 91.3618 35.0613 91.1338 35.3962C90.9805 35.6251 90.9023 36.2136 90.9023 37.162V40.8981C91.1482 40.9123 91.6042 40.9195 92.2701 40.9195C93.8019 40.9195 94.7386 40.778 95.0878 40.4963C95.458 40.2037 95.6718 39.7527 95.7359 39.1394C95.7502 39.016 95.825 38.9527 95.9639 38.9527C96.1811 38.9527 96.2879 39.0162 96.2879 39.1394C96.2593 40.1015 96.2452 40.7923 96.2452 41.2153C96.2452 41.8039 96.2593 42.5968 96.2879 43.5874C96.2879 43.7108 96.1811 43.7741 95.9639 43.7741C95.8248 43.7741 95.7502 43.7037 95.7359 43.5664C95.6718 42.7908 95.4441 42.2659 95.0447 41.9978C94.6709 41.7299 93.7448 41.5958 92.2701 41.5958C91.8247 41.5958 91.369 41.6099 90.9023 41.6383V45.318C90.9023 46.6995 91.0057 47.5423 91.205 47.8381C91.3584 48.0564 91.5899 48.2084 91.8962 48.2929C92.2025 48.3671 92.6796 48.4056 93.3353 48.4056C94.3789 48.4056 95.191 48.3314 95.7786 48.1872C96.2702 48.0709 96.7119 47.8771 97.1035 47.6021C97.6734 47.1862 98.2044 46.4813 98.6992 45.4839C98.7421 45.3885 98.7919 45.3391 98.856 45.3391C99.1268 45.3391 99.2622 45.4167 99.2622 45.5752L99.2407 45.6813C98.9843 46.788 98.6105 47.9441 98.126 49.146ZM70.8935 37.8984V45.8325C70.8935 46.3666 70.9214 46.7988 70.9774 47.1283C71.0303 47.4389 71.1055 47.6521 71.2032 47.7671C71.3684 47.9493 71.6523 48.0885 72.0552 48.1838C72.4739 48.283 73.0153 48.3331 73.6799 48.3331C74.79 48.3331 75.7687 48.1585 76.6165 47.8086C77.4607 47.4607 78.1763 46.938 78.764 46.2412C79.2671 45.6489 79.6448 44.9653 79.8974 44.1897C80.1506 43.4117 80.2774 42.5404 80.2774 41.5748C80.2774 40.4724 80.1088 39.4971 79.7713 38.6482C79.435 37.8021 78.9305 37.0801 78.2575 36.4814C77.6869 35.9766 77.0338 35.5979 76.2984 35.3448C75.5613 35.0915 74.7409 34.9645 73.8363 34.9645C73.0273 34.9645 72.394 35.0096 71.9372 35.0986C71.508 35.1827 71.2466 35.2989 71.1532 35.4474L71.1516 35.4503C71.0696 35.5742 71.0066 35.8353 70.9624 36.2337C70.9164 36.6478 70.8935 37.2024 70.8935 37.8982V37.8984ZM70.6245 45.8325V37.8984C70.6245 37.1951 70.6481 36.6308 70.6954 36.2042C70.7447 35.7617 70.8224 35.4606 70.9289 35.2992C71.065 35.0863 71.3843 34.93 71.8867 34.8317C72.3619 34.7387 73.012 34.692 73.8363 34.692C74.7693 34.692 75.6187 34.8241 76.3846 35.0875C77.1529 35.3515 77.8362 35.7483 78.4342 36.2773C79.1396 36.9049 79.6682 37.6614 80.0202 38.547C80.3712 39.4294 80.5462 40.4388 80.5462 41.5748C80.5462 42.5688 80.4147 43.4689 80.1524 44.2749C79.8893 45.084 79.4941 45.798 78.9676 46.418C78.3515 47.1487 77.6014 47.696 76.7172 48.0608C75.8367 48.4239 74.8241 48.6054 73.6797 48.6054C72.9955 48.6054 72.4337 48.5529 71.9942 48.4489C71.5373 48.3407 71.2078 48.1746 71.0055 47.9511L71.0057 47.951L71.0033 47.9482C70.8708 47.7948 70.7742 47.5366 70.7124 47.1737C70.6537 46.8274 70.6244 46.38 70.6244 45.8321L70.6245 45.8325ZM73.9006 33.9521C75.3785 33.9521 76.6802 34.1462 77.8057 34.535C78.9371 34.9254 79.8895 35.5118 80.6631 36.2936C81.3164 36.9523 81.8068 37.7157 82.1337 38.5837C82.4598 39.45 82.623 40.4198 82.623 41.4937C82.623 42.755 82.3998 43.8807 81.9533 44.8702C81.5059 45.8616 80.8358 46.714 79.9429 47.427C79.1496 48.0597 78.2336 48.5344 77.1944 48.8512C76.1589 49.1666 75.0018 49.3244 73.7229 49.3244C73.0466 49.3244 72.3635 49.3032 71.6702 49.2605C71.3186 49.239 70.9796 49.2232 70.6528 49.2127C70.3317 49.2026 70.0089 49.1974 69.6837 49.1974C69.3107 49.1974 68.9158 49.2044 68.4984 49.218C68.0755 49.2321 67.6173 49.2531 67.1229 49.2815L67.1154 49.2817V49.2822C67.0054 49.2822 66.9222 49.2391 66.8647 49.1527C66.8184 49.0834 66.7956 48.9882 66.7956 48.8673C66.7956 48.7564 66.8189 48.6676 66.8663 48.599C66.9204 48.5205 66.9984 48.4758 67.1008 48.4644L67.1104 48.4635C67.5476 48.436 67.8971 48.3812 68.1577 48.3001C68.3982 48.2249 68.5565 48.1306 68.6313 48.0168L68.637 48.0087C68.7015 47.9084 68.7529 47.6416 68.7908 47.2084C68.8308 46.7494 68.851 46.1178 68.851 45.3143V37.898C68.851 37.1287 68.8335 36.5217 68.7988 36.0772C68.7654 35.6493 68.719 35.3816 68.6599 35.2743C68.6054 35.1813 68.4472 35.0989 68.185 35.0273C67.8957 34.9484 67.4946 34.8907 66.9818 34.8543L66.9725 34.8534C66.874 34.8415 66.7982 34.8004 66.7447 34.7286C66.6952 34.6627 66.6709 34.5773 66.6709 34.4719C66.6709 34.3345 66.6916 34.2274 66.7336 34.1496C66.79 34.0452 66.8756 33.9937 66.9908 33.9937C66.9963 33.9937 67.0018 33.9942 67.0074 33.9948C67.5572 34.0219 68.0444 34.0416 68.4697 34.0548C68.9165 34.0686 69.3076 34.0747 69.6409 34.0747C69.9305 34.0747 70.2384 34.0702 70.5636 34.0603C70.8748 34.0507 71.2148 34.0362 71.5852 34.0154H71.5952C72.3263 33.9946 72.891 33.979 73.2893 33.968C73.6897 33.9569 73.8935 33.9515 73.9008 33.9515L73.9006 33.9521ZM77.7194 34.7925C76.6227 34.414 75.3499 34.2247 73.9006 34.2247C73.872 34.2247 73.6704 34.23 73.2956 34.2403C72.9268 34.2502 72.3624 34.2661 71.6023 34.2873L71.5998 34.2875C71.2355 34.3079 70.8924 34.3226 70.5708 34.3324C70.222 34.343 69.913 34.3481 69.6407 34.3481C69.3248 34.3481 68.9326 34.3412 68.4622 34.3269C68.028 34.3135 67.5385 34.2938 66.994 34.2669H66.9906C66.9811 34.2669 66.974 34.2718 66.9688 34.2813C66.9493 34.3172 66.9397 34.381 66.9397 34.4724C66.9397 34.5184 66.9456 34.5495 66.9577 34.5654C66.9647 34.5748 66.9797 34.581 67.0025 34.5837C67.5319 34.6215 67.9491 34.6819 68.2539 34.765C68.5868 34.8556 68.799 34.9794 68.8904 35.1366L68.8915 35.1387C68.9712 35.2801 69.0296 35.5862 69.0662 36.0564C69.1015 36.5094 69.1194 37.1239 69.1194 37.8984V45.3147C69.1194 46.1258 69.0988 46.7652 69.0581 47.2321C69.0165 47.7094 68.9499 48.019 68.8588 48.1607L68.8547 48.1672C68.7443 48.3352 68.5379 48.4659 68.2363 48.56C67.9551 48.6477 67.5855 48.7063 67.1279 48.7349C67.1068 48.7378 67.0926 48.7443 67.0854 48.7544C67.0713 48.7751 67.0643 48.8127 67.0643 48.8675C67.0643 48.9336 67.0718 48.9777 67.087 49.0007C67.0911 49.0068 67.1004 49.0097 67.1151 49.0097C67.6012 48.9821 68.0591 48.9611 68.4897 48.947C68.9283 48.9325 69.326 48.9251 69.6834 48.9251C69.9922 48.9251 70.3177 48.9305 70.6608 48.9415C70.998 48.9524 71.3394 48.9681 71.6857 48.9893C72.3674 49.0313 73.0454 49.0521 73.7226 49.0521C74.9759 49.0521 76.1075 48.8979 77.1172 48.5903C78.1234 48.284 79.0099 47.8249 79.7764 47.2135C80.636 46.5269 81.2802 45.7084 81.709 44.7576C82.1387 43.8052 82.3535 42.7175 82.3535 41.4939C82.3535 40.4529 82.1962 39.5157 81.882 38.6811C81.5686 37.8486 81.0989 37.1173 80.4735 36.4863C79.7293 35.7342 78.8113 35.1697 77.7191 34.7925H77.7194ZM70.7589 37.8984V45.8325C70.7589 46.9148 70.8731 47.5915 71.1044 47.8594C71.4714 48.2647 72.3297 48.4689 73.6799 48.4689C75.9344 48.4689 77.6619 47.757 78.866 46.3297C79.8954 45.1168 80.412 43.5344 80.412 41.5748C80.412 39.3364 79.7245 37.6058 78.3459 36.3792C77.1778 35.3465 75.6746 34.8283 73.8365 34.8283C72.2017 34.8283 71.2684 35.0117 71.0405 35.3747C70.8519 35.6602 70.759 36.4991 70.759 37.8982L70.7589 37.8984ZM73.9006 34.0881C76.8286 34.0881 79.051 34.8567 80.5685 36.39C81.8472 37.6797 82.4884 39.3787 82.4884 41.4937C82.4884 43.9786 81.6122 45.9206 79.8597 47.3201C78.2999 48.5639 76.255 49.1883 73.7227 49.1883C73.0459 49.1883 72.3655 49.167 71.6781 49.1248C70.9799 49.0823 70.3175 49.0611 69.6835 49.0611C68.9531 49.0611 68.0984 49.0892 67.1152 49.1458C66.9906 49.1458 66.93 49.0541 66.93 48.8673C66.93 48.7016 66.9908 48.6135 67.1152 48.5994C68.0128 48.5431 68.5577 48.3738 68.7429 48.0917C68.9033 47.8594 68.9849 46.9322 68.9849 45.3145V37.8982C68.9849 36.3508 68.9138 35.4519 68.7751 35.2057C68.629 34.9553 68.0341 34.7932 66.9906 34.7188C66.8657 34.7047 66.8052 34.6237 66.8052 34.4722C66.8052 34.2434 66.8659 34.1305 66.9906 34.1305C68.1268 34.1871 69.0101 34.2115 69.6405 34.2115C70.1854 34.2115 70.8339 34.194 71.5922 34.1516C73.0955 34.1091 73.8647 34.0879 73.9004 34.0879L73.9006 34.0881Z" fill="white"/>
<path id="Vector_3" d="M49.4535 41.4286L46.8926 37.5496L46.8925 37.55C46.4665 36.8896 46.1285 36.3786 45.8788 36.0172C45.6266 35.6524 45.4593 35.4311 45.3777 35.3535L45.3736 35.3497C45.2375 35.2157 45.0616 35.1086 44.8449 35.027C44.6203 34.9419 44.3518 34.8847 44.0395 34.8542L44.0373 34.854V34.8542C43.9373 34.8426 43.8595 34.8015 43.8043 34.7295C43.7543 34.664 43.7287 34.5783 43.7287 34.4721C43.7287 34.3349 43.7505 34.2276 43.7934 34.15L43.7936 34.1495L43.7934 34.1493C43.8507 34.0454 43.9373 33.9939 44.052 33.9939C44.0579 33.9939 44.0636 33.9944 44.0691 33.995C44.5435 34.0301 44.9917 34.0565 45.4148 34.0737C45.8377 34.091 46.2465 34.0997 46.6415 34.0997C47.1052 34.0997 47.5629 34.091 48.0146 34.0737C48.4684 34.0563 48.9288 34.0299 49.3954 33.9946L49.4054 33.9941C49.5247 33.9939 49.6153 34.0438 49.6769 34.1439C49.7255 34.2231 49.7501 34.332 49.7501 34.4721C49.7501 34.5815 49.7212 34.6693 49.664 34.736L49.6637 34.7362L49.664 34.7364C49.6056 34.8042 49.5235 34.8435 49.4186 34.8542L49.4127 34.8545C49.1177 34.882 48.8748 34.9157 48.6839 34.9555C48.5028 34.9933 48.3732 35.0356 48.2948 35.0829C48.2392 35.116 48.1978 35.1576 48.171 35.2079C48.1433 35.26 48.1292 35.3237 48.1292 35.3991C48.1292 35.5272 48.1908 35.7219 48.313 35.9828C48.4412 36.2563 48.6343 36.5956 48.8913 37.0001L48.895 37.0066L50.8618 40.0313C50.9933 39.8544 51.1006 39.7086 51.1854 39.5922C51.3108 39.42 51.3997 39.2948 51.4531 39.2166C51.9984 38.46 52.5175 37.6683 53.0537 36.903L53.0535 36.9028C53.3044 36.5458 53.4928 36.2364 53.6182 35.9754C53.7379 35.7268 53.7975 35.5283 53.7975 35.3816C53.7975 35.3043 53.7782 35.2403 53.7398 35.1892C53.6984 35.1342 53.6325 35.089 53.5423 35.0543L53.5343 35.0507C53.4352 35.0098 53.2941 34.9734 53.1103 34.941C52.9187 34.9077 52.6819 34.8791 52.4002 34.8545C52.3956 34.8544 52.3909 34.8535 52.3865 34.8529C52.2868 34.8404 52.2088 34.8019 52.1525 34.7364C52.0954 34.6696 52.0664 34.5819 52.0664 34.4721C52.0664 34.332 52.0909 34.2231 52.1395 34.1439C52.2013 34.0438 52.2922 33.9939 52.4113 33.9939C52.4168 33.9939 52.4225 33.9944 52.4279 33.995C52.8815 34.0301 53.3141 34.0565 53.7259 34.0737C54.1383 34.091 54.5417 34.0997 54.9364 34.0997C55.2518 34.0997 55.5934 34.091 55.9619 34.0737C56.3299 34.0565 56.7364 34.0299 57.1807 33.9946L57.1911 33.9939C57.3063 33.9939 57.3917 34.0458 57.4481 34.1502C57.4901 34.228 57.5108 34.3349 57.5108 34.4721C57.5108 34.5777 57.4863 34.6629 57.437 34.7288C57.3829 34.8012 57.3059 34.8426 57.2059 34.8542C57.202 34.8544 57.1981 34.8547 57.1941 34.8547C56.895 34.8822 56.6244 34.9379 56.3828 35.0226C56.1428 35.1067 55.931 35.2196 55.7484 35.3622L55.7393 35.3685C55.6591 35.4243 55.487 35.6166 55.2225 35.9448C54.9478 36.2858 54.5821 36.7647 54.1245 37.3806L52.1834 40.0064C52.1798 40.0111 52.1761 40.0154 52.1722 40.0196C52.1441 40.0491 52.0645 40.1442 51.9336 40.3047C51.8184 40.4453 51.6557 40.6463 51.448 40.9034L54.4324 45.5398C54.8914 46.2543 55.2659 46.8157 55.5563 47.2229C55.8411 47.6224 56.0417 47.8703 56.1572 47.9653L56.1597 47.9674C56.3185 48.1044 56.5092 48.2144 56.7318 48.2969C56.9596 48.381 57.2204 48.4369 57.5131 48.4643H57.5151C57.6195 48.4755 57.6981 48.52 57.7526 48.5978C57.8008 48.6665 57.8242 48.7563 57.8242 48.8672C57.8242 48.9882 57.8013 49.0832 57.7542 49.1532C57.6962 49.2393 57.6122 49.282 57.501 49.282C57.4952 49.282 57.4897 49.2815 57.4842 49.281C56.9689 49.2536 56.5023 49.2339 56.0844 49.2209C55.6459 49.2071 55.248 49.2006 54.8933 49.2006C54.4644 49.2006 54.014 49.207 53.5437 49.2207C53.0883 49.2339 52.6015 49.2538 52.0827 49.2813L52.0759 49.2815V49.282C51.96 49.282 51.87 49.2419 51.8059 49.161C51.7493 49.0897 51.7205 48.992 51.7205 48.8672C51.7205 48.7519 51.7498 48.6598 51.8073 48.5898C51.8678 48.5166 51.9534 48.4748 52.0634 48.4643L52.0675 48.4639V48.4635C52.3359 48.4464 52.5581 48.4183 52.7331 48.3787C52.8981 48.3414 53.0187 48.2949 53.0942 48.239L53.0996 48.2356C53.1546 48.1987 53.1955 48.1509 53.2228 48.0919C53.2521 48.0284 53.2666 47.9492 53.2666 47.8553C53.2666 47.7091 53.2028 47.4965 53.0749 47.2179C52.9415 46.9277 52.7411 46.5725 52.4731 46.1531L50.0769 42.3485C49.2159 43.6086 48.4041 44.8783 47.5642 46.1544C47.2979 46.557 47.0982 46.9034 46.9657 47.1934C46.8387 47.4712 46.7753 47.6919 46.7753 47.8553C46.7753 47.9512 46.7967 48.0302 46.8396 48.0926C46.883 48.156 46.9507 48.2064 47.0427 48.2439L47.0459 48.2452V48.245C47.1589 48.2937 47.323 48.3354 47.5386 48.3716C47.7595 48.4087 48.0335 48.4391 48.3601 48.4635C48.3644 48.4639 48.3689 48.4643 48.373 48.4652C48.4739 48.4778 48.5521 48.5211 48.6073 48.5953C48.6586 48.6638 48.6845 48.7545 48.6845 48.8672C48.6845 48.9879 48.6603 49.0828 48.613 49.1525C48.5543 49.239 48.47 49.282 48.3612 49.282C48.3555 49.282 48.3499 49.2815 48.3444 49.281C47.8499 49.2536 47.3959 49.2336 46.9816 49.2207C46.5489 49.207 46.1452 49.2006 45.7718 49.2006C45.4761 49.2006 45.136 49.2071 44.7535 49.2209C44.387 49.2339 43.9713 49.2538 43.5067 49.2813L43.4994 49.2815V49.282C43.3899 49.282 43.3058 49.239 43.2471 49.1525C43.2001 49.0832 43.1762 48.988 43.1762 48.8672C43.1762 48.7561 43.2006 48.6667 43.2487 48.5981C43.3037 48.5202 43.3826 48.4757 43.4848 48.4643C43.7534 48.4337 43.9891 48.3767 44.1916 48.2935C44.3892 48.2117 44.5549 48.1053 44.6883 47.9732L44.6904 47.9711C44.8496 47.8202 45.0728 47.5586 45.36 47.1864C45.6523 46.8074 46.0074 46.3194 46.4249 45.7223L46.4251 45.7218L46.4249 45.7216L48.6298 42.5871C48.6841 42.5127 48.7561 42.4125 48.8477 42.2828C48.9409 42.1507 49.0284 42.0259 49.1065 41.9126L49.1082 41.9103L49.1081 41.9101C49.2074 41.7733 49.2877 41.662 49.3431 41.5844C49.3836 41.5276 49.4201 41.476 49.4529 41.4283L49.4535 41.4286ZM47.1171 37.4009L49.7233 41.3488C49.7567 41.3944 49.7597 41.4578 49.7265 41.5072C49.6862 41.567 49.631 41.6459 49.5612 41.7434C49.4836 41.852 49.4074 41.9577 49.3251 42.0713L49.3249 42.0711C49.2127 42.2334 49.1283 42.3548 49.0668 42.442C48.9913 42.5484 48.917 42.6519 48.8459 42.7494L46.6439 45.8799L46.6437 45.8796C46.2208 46.4842 45.8634 46.976 45.5718 47.3537C45.275 47.7386 45.0423 48.0109 44.8737 48.1704C44.7153 48.3268 44.5217 48.4516 44.2931 48.546C44.0682 48.6389 43.8086 48.702 43.5146 48.7347C43.4916 48.7373 43.4758 48.7445 43.4676 48.7563C43.4532 48.7767 43.4457 48.8138 43.4457 48.8675C43.4457 48.9327 43.4537 48.9766 43.4692 48.9996C43.4739 49.0063 43.4841 49.0098 43.5 49.0098C43.9564 48.983 44.3715 48.9631 44.7446 48.9499C45.1471 48.9352 45.4895 48.9285 45.7723 48.9285C46.129 48.9285 46.534 48.9352 46.9894 48.9495C47.4148 48.9631 47.8717 48.9828 48.3599 49.0098H48.3617C48.3778 49.0098 48.3883 49.0063 48.3928 48.9996C48.4082 48.9772 48.416 48.9334 48.416 48.8675C48.416 48.8154 48.4083 48.7794 48.3935 48.7592C48.3841 48.7467 48.3669 48.7387 48.3423 48.7355H48.3417C48.0092 48.7105 47.7274 48.679 47.4959 48.6403C47.2591 48.6005 47.0741 48.5527 46.9414 48.4954L46.9416 48.4952C46.8003 48.4375 46.693 48.3548 46.6194 48.2477C46.5444 48.1379 46.5069 48.0074 46.5069 47.8556C46.5069 47.6532 46.5789 47.3941 46.7225 47.0798C46.8607 46.7779 47.0671 46.4191 47.342 46.0037L49.1168 43.2775L49.9717 42.0264C49.9817 42.0119 49.9946 41.9991 50.0101 41.9891C50.0725 41.9488 50.1553 41.9674 50.195 42.0307L52.6986 46.0053C52.9744 46.4372 53.1814 46.8036 53.3194 47.1044C53.4643 47.42 53.5362 47.6704 53.5362 47.8558C53.5362 47.9886 53.513 48.1059 53.466 48.2075C53.418 48.3117 53.3459 48.3966 53.2494 48.4614C53.1433 48.5386 52.9908 48.5992 52.7917 48.6439C52.601 48.6873 52.3652 48.7172 52.085 48.7355C52.0507 48.7391 52.027 48.7489 52.0139 48.7646C51.9982 48.7838 51.9903 48.8178 51.9903 48.8675C51.9903 48.9291 51.9987 48.97 52.0155 48.9911C52.0254 49.0038 52.0459 49.0098 52.0766 49.0098C52.5879 48.9828 53.0749 48.9627 53.5371 48.9495C54.0322 48.9352 54.484 48.9285 54.8941 48.9285C55.2316 48.9285 55.6309 48.9352 56.0924 48.9499C56.5203 48.9631 56.9897 48.983 57.4992 49.0098H57.5017C57.5185 49.0098 57.529 49.0065 57.5333 49.0003C57.5485 48.9776 57.556 48.9336 57.556 48.8675C57.556 48.8133 57.549 48.776 57.5349 48.7556C57.527 48.7445 57.5113 48.7373 57.4874 48.7347C57.1716 48.7051 56.8893 48.6446 56.641 48.5529C56.3876 48.459 56.169 48.3327 55.986 48.1741C55.8522 48.0633 55.6366 47.7988 55.3393 47.382C55.0455 46.9696 54.6683 46.4046 54.2081 45.6882L51.1754 40.977C51.1385 40.9282 51.1381 40.8582 51.1783 40.8082C51.4074 40.5242 51.5889 40.3 51.7269 40.1312C51.8539 39.976 51.9361 39.8777 51.975 39.8361L53.9106 37.218C54.3722 36.5967 54.7403 36.1147 55.0148 35.7736C55.2937 35.4275 55.4847 35.2178 55.5877 35.1455C55.7926 34.9859 56.0288 34.86 56.296 34.7662C56.5582 34.6743 56.8496 34.6141 57.1704 34.585L57.1768 34.5841C57.2011 34.5813 57.2168 34.575 57.2241 34.5654C57.2361 34.5495 57.242 34.5184 57.242 34.4724C57.242 34.3803 57.2325 34.3165 57.2131 34.2806C57.2086 34.2723 57.2022 34.2678 57.194 34.2673C56.7614 34.3016 56.3546 34.3279 55.9736 34.3456C55.5906 34.3639 55.2448 34.3727 54.9367 34.3727C54.5517 34.3727 54.1447 34.3639 53.7157 34.3456C53.2905 34.3279 52.8549 34.3016 52.409 34.2669C52.3899 34.2676 52.3763 34.2745 52.3679 34.2882C52.3465 34.323 52.3357 34.3843 52.3357 34.4724C52.3357 34.5144 52.3424 34.5428 52.3556 34.5582C52.3666 34.5708 52.3874 34.5792 52.4172 34.5833L52.4225 34.5837C52.7106 34.6087 52.9547 34.6381 53.1558 34.6732C53.3592 34.7091 53.5196 34.7509 53.6373 34.7999L53.6384 34.8003C53.7763 34.8534 53.8811 34.9284 53.9536 35.0244C54.0293 35.125 54.067 35.2441 54.067 35.3819C54.067 35.5703 53.9981 35.8086 53.8604 36.095C53.7295 36.3672 53.5336 36.6897 53.2726 37.0609L53.2725 37.0607L51.6742 39.3715C51.6196 39.4517 51.5287 39.5792 51.4012 39.7545C51.2783 39.9235 51.1313 40.1227 50.9624 40.349H50.962C50.9531 40.361 50.9418 40.3718 50.9286 40.3807C50.8668 40.4216 50.7838 40.4044 50.7432 40.3416L48.672 37.1561L48.6657 37.147C48.4028 36.7334 48.204 36.3837 48.0706 36.0991C47.9308 35.801 47.8606 35.5677 47.8606 35.3993C47.8606 35.2783 47.8856 35.1717 47.9349 35.0791C47.9856 34.9841 48.0605 34.9072 48.1583 34.8489C48.2617 34.7867 48.4189 34.7337 48.6307 34.6895C48.8302 34.6479 49.0827 34.613 49.3885 34.5844L49.3926 34.5839C49.4265 34.5804 49.4495 34.5717 49.4615 34.558L49.4619 34.5582C49.4749 34.5428 49.4815 34.5142 49.4815 34.4722C49.4815 34.3839 49.4706 34.3226 49.4494 34.2881C49.441 34.2743 49.4272 34.2674 49.4083 34.2667C48.9513 34.3014 48.4898 34.3277 48.0244 34.3454C47.5543 34.3637 47.0936 34.3726 46.6419 34.3726C46.2569 34.3726 45.8445 34.3637 45.4046 34.3454C44.9692 34.3277 44.5183 34.3014 44.0507 34.2667C44.0411 34.2674 44.0336 34.2729 44.028 34.2826H44.0279C44.008 34.3188 43.998 34.382 43.998 34.4722C43.998 34.5169 44.0045 34.5473 44.017 34.5638C44.025 34.5745 44.042 34.5812 44.0672 34.5839V34.5842C44.402 34.6172 44.6922 34.6798 44.9387 34.7726C45.191 34.8677 45.3982 34.9946 45.5605 35.1545L45.5618 35.1556C45.6555 35.2448 45.8347 35.4802 46.0985 35.8619C46.3597 36.2401 46.6998 36.753 47.1175 37.4007L47.1171 37.4009ZM49.6158 41.4303L47.0052 37.4752C46.1572 36.1606 45.6445 35.4203 45.4698 35.2547C45.1707 34.9586 44.7003 34.7822 44.0522 34.7188C43.9275 34.7047 43.8636 34.6237 43.8636 34.4722C43.8636 34.2434 43.9277 34.1305 44.0522 34.1305C44.9996 34.2009 45.8616 34.2363 46.6417 34.2363C47.557 34.2363 48.4796 34.2009 49.4056 34.1305C49.5445 34.1305 49.6156 34.2434 49.6156 34.4722C49.6156 34.6239 49.5444 34.7047 49.4056 34.7188C48.8002 34.7755 48.4085 34.8565 48.2265 34.9658C48.0733 35.0572 47.9951 35.2019 47.9951 35.3991C47.9951 35.6955 48.2587 36.2556 48.7787 37.0734L50.8552 40.2669C51.2258 39.7701 51.4606 39.4455 51.5641 39.2943L53.1633 36.9819C53.6764 36.2522 53.9327 35.7166 53.9327 35.3818C53.9327 35.1668 53.8189 35.0154 53.5909 34.9271C53.3737 34.8352 52.9819 34.7682 52.412 34.719C52.2727 34.7049 52.2016 34.6239 52.2016 34.4724C52.2016 34.2436 52.2729 34.1307 52.412 34.1307C53.3166 34.201 54.1574 34.2365 54.9373 34.2365C55.5607 34.2365 56.3121 34.201 57.192 34.1307C57.3166 34.1307 57.377 34.2436 57.377 34.4724C57.377 34.624 57.3165 34.7049 57.192 34.719C56.565 34.7757 56.0556 34.9519 55.6672 35.2549C55.4857 35.3785 54.9371 36.062 54.0182 37.2992L52.077 39.9251C52.0127 39.9921 51.7494 40.3161 51.2826 40.8944L54.3208 45.614C55.2398 47.0449 55.8242 47.8661 56.0735 48.0706C56.4155 48.3667 56.8927 48.543 57.5018 48.5991C57.6301 48.6132 57.6904 48.7015 57.6904 48.867C57.6904 49.0537 57.6299 49.1454 57.5018 49.1454C56.4403 49.0888 55.5677 49.0644 54.8944 49.0644C54.0752 49.0644 53.1349 49.0888 52.077 49.1454C51.9309 49.1454 51.8562 49.0537 51.8562 48.867C51.8562 48.7013 51.9311 48.6132 52.077 48.5991C52.6256 48.5638 52.9924 48.4827 53.1742 48.349C53.3275 48.2466 53.4021 48.0812 53.4021 47.8553C53.4021 47.524 53.1314 46.932 52.5863 46.0789L50.0821 42.1029L49.2272 43.354L47.4534 46.0788C46.9121 46.8967 46.6414 47.4887 46.6414 47.8551C46.6414 48.1019 46.7587 48.2748 46.9939 48.37C47.2396 48.4758 47.6918 48.5495 48.351 48.5989C48.4828 48.613 48.5502 48.7013 48.5502 48.8668C48.5502 49.0535 48.486 49.1453 48.3616 49.1453C47.3464 49.0886 46.4846 49.0642 45.7722 49.0642C45.2096 49.0642 44.4506 49.0886 43.4998 49.1453C43.3751 49.1453 43.3112 49.0535 43.3112 48.8668C43.3112 48.7011 43.3753 48.613 43.4998 48.5989C44.0623 48.5354 44.4899 48.3593 44.7821 48.0704C45.1096 47.7601 45.6939 47.0026 46.5344 45.8005L48.7359 42.6705C48.8571 42.505 49.0172 42.2792 49.2167 41.9902C49.3985 41.74 49.5303 41.5567 49.6156 41.4301L49.6158 41.4303ZM30.7207 36.5095C30.6964 36.5771 30.6707 36.648 30.6435 36.7222C30.566 36.9334 30.4641 37.2051 30.3387 37.5342L30.339 37.5346C30.1992 37.9055 30.0881 38.2031 29.9986 38.4439C29.9238 38.6458 29.8358 38.8855 29.7554 39.1052L29.7518 39.1139L28.6067 42.2938C28.8278 42.3034 29.0898 42.311 29.3923 42.3164C29.7677 42.3231 30.2328 42.3264 30.7868 42.3264C31.2931 42.3264 31.7169 42.3231 32.0587 42.3164C32.3262 42.3114 32.5589 42.3039 32.7565 42.2944C32.3205 41.0946 31.8662 39.8973 31.4567 38.6885C31.2311 38.0222 30.9929 37.3187 30.7207 36.5093V36.5095ZM30.3914 36.6274C30.478 36.3911 30.5455 36.2006 30.5935 36.0568C30.6051 36.0152 30.636 35.9799 30.6796 35.9649C30.7498 35.9408 30.8261 35.979 30.85 36.0501C31.1309 36.8869 31.4301 37.7705 31.711 38.6002L31.8512 39.014L33.0717 42.374C33.0761 42.3861 33.0788 42.3991 33.0795 42.4127C33.084 42.4878 33.0274 42.552 32.9534 42.5567C32.7256 42.5704 32.4287 42.5811 32.063 42.5884C31.6854 42.5956 31.26 42.5994 30.787 42.5994C30.2694 42.5994 29.8029 42.5956 29.3884 42.5884C28.9882 42.5811 28.6623 42.5704 28.4112 42.5567C28.3983 42.5558 28.3854 42.5531 28.3728 42.5484C28.3031 42.523 28.267 42.4451 28.2924 42.3743L29.4998 39.0212L29.5032 39.0107C29.5545 38.8711 29.6284 38.6702 29.7475 38.3486C29.8526 38.0658 29.9674 37.7575 30.0879 37.438H30.0881L30.0883 37.4372C30.198 37.1499 30.2987 36.8805 30.3914 36.6276V36.6274ZM33.1301 43.3944C32.6623 43.3698 32.24 43.3511 31.8622 43.3385C31.4661 43.3253 31.1079 43.3182 30.7868 43.3182C30.3087 43.3182 29.8552 43.3249 29.4256 43.3379C29.0118 43.3508 28.6065 43.3694 28.2104 43.3935L27.3643 45.6805C27.2032 46.1034 27.0821 46.4761 27.001 46.7981C26.9217 47.1128 26.8821 47.3753 26.8821 47.5844C26.8821 47.7427 26.9083 47.8735 26.961 47.9779C27.0108 48.0771 27.0858 48.1538 27.1858 48.2088L27.1867 48.2093C27.3009 48.269 27.4691 48.3199 27.6914 48.3619C27.9225 48.4058 28.2093 48.4395 28.5519 48.4639L28.561 48.4648C28.6615 48.4769 28.7392 48.5214 28.7937 48.5985C28.8417 48.6671 28.8662 48.7566 28.8662 48.8675C28.8662 48.9882 28.8421 49.0832 28.7948 49.1529L28.7944 49.1534L28.7948 49.1536C28.7364 49.2397 28.6521 49.2824 28.543 49.2824C28.5378 49.2824 28.5328 49.2819 28.528 49.2815C27.757 49.2605 27.1591 49.2446 26.7333 49.2343C26.3197 49.2238 26.067 49.2189 25.9746 49.2189C25.5789 49.2189 25.2069 49.2238 24.8592 49.2343C24.5052 49.2444 24.1603 49.2605 23.8248 49.2817L23.8164 49.282V49.2824C23.7071 49.2824 23.6229 49.2397 23.5644 49.1536C23.562 49.1502 23.5601 49.1467 23.5581 49.1431C23.5149 49.0742 23.4929 48.9826 23.4929 48.8675C23.4929 48.7565 23.5174 48.6671 23.5654 48.5985C23.6205 48.5205 23.6996 48.476 23.8015 48.4646L23.8039 48.4643C24.0751 48.427 24.3064 48.3684 24.4977 48.2889C24.6831 48.2119 24.8306 48.1151 24.9402 47.9989C25.0904 47.837 25.2688 47.5486 25.4744 47.1348C25.6821 46.7163 25.9159 46.1727 26.1738 45.5047L26.1763 45.4985L28.6989 38.8866H28.6987C29.1225 37.7618 29.4679 36.8299 29.7338 36.0908C30.0029 35.3427 30.1965 34.7773 30.3131 34.3941C30.3246 34.3563 30.3507 34.3273 30.3832 34.3114L31.6047 33.7122C31.6236 33.7031 31.6435 33.6988 31.6631 33.6988V33.6982C31.746 33.6982 31.8165 33.7254 31.8737 33.7789C31.9249 33.8271 31.9614 33.8938 31.9823 33.9785V33.9787C32.1992 34.6984 32.4468 35.4764 32.7243 36.3128C33.0031 37.1536 33.3099 38.0459 33.6448 38.9907H33.6449L36.0457 45.6737C36.2672 46.2895 36.4647 46.794 36.6371 47.1862C36.8073 47.573 36.9519 47.8482 37.0709 48.0112L37.0728 48.0141H37.073C37.1537 48.1303 37.3073 48.226 37.5345 48.3011C37.7793 48.3823 38.1035 48.4366 38.5074 48.4641L38.5099 48.4644L38.5101 48.4641C38.6251 48.4744 38.7141 48.5147 38.7775 48.5862C38.8403 48.6566 38.8716 48.7503 38.8716 48.8677C38.8716 48.994 38.8425 49.0923 38.7839 49.1637C38.7189 49.2433 38.6275 49.2826 38.509 49.2826C38.5039 49.2826 38.499 49.282 38.494 49.2817C37.6997 49.2607 37.0732 49.2448 36.614 49.2345C36.1654 49.224 35.8689 49.2191 35.7236 49.2191C35.5944 49.2191 35.3094 49.224 34.8686 49.2345C34.4154 49.2448 33.7896 49.2609 32.9909 49.2819H32.9877V49.2826C32.8784 49.2826 32.7945 49.2399 32.7359 49.1538C32.7336 49.1503 32.7314 49.1469 32.7295 49.1433C32.6864 49.0743 32.6645 48.9828 32.6645 48.8677C32.6645 48.7561 32.6889 48.6655 32.7375 48.5969C32.7932 48.5176 32.8734 48.4728 32.9768 48.4641L32.982 48.4637C33.344 48.436 33.6396 48.398 33.8684 48.3499C34.0852 48.3041 34.238 48.2511 34.3266 48.1902V48.19C34.3829 48.1486 34.4256 48.0917 34.4543 48.0186C34.4865 47.9372 34.5027 47.8339 34.5027 47.7078C34.5027 47.5886 34.4634 47.3856 34.3848 47.0988C34.3041 46.8039 34.1823 46.4229 34.0187 45.9556L34.0166 45.9489L33.1299 43.3944H33.1301ZM31.8708 43.0669C32.2821 43.0808 32.7361 43.1013 33.2336 43.1275C33.2865 43.1302 33.3351 43.1648 33.3535 43.2187L34.27 45.8586L34.2723 45.8651C34.4366 46.335 34.5604 46.7221 34.6436 47.0265C34.7292 47.3391 34.772 47.566 34.772 47.7078C34.772 47.8672 34.749 48.0034 34.7036 48.1189C34.6551 48.2423 34.5818 48.3389 34.4847 48.4102L34.4845 48.41L34.482 48.412C34.3638 48.4945 34.1775 48.5627 33.9235 48.6157C33.6816 48.6669 33.3746 48.7063 33.0031 48.7349L32.9993 48.7355C32.9783 48.7371 32.964 48.7434 32.9565 48.7543C32.9417 48.7753 32.934 48.8135 32.934 48.8675C32.934 48.9294 32.9409 48.9718 32.9543 48.9953L32.9572 48.9993C32.9618 49.0061 32.9724 49.0098 32.9883 49.0098V49.0103C33.7807 48.9893 34.4057 48.9732 34.8638 48.9627C35.3349 48.9517 35.6216 48.9462 35.7241 48.9462C35.8423 48.9462 36.1406 48.9517 36.6199 48.9627C37.0842 48.9732 37.7113 48.9889 38.5017 49.0101L38.5096 49.0098C38.5441 49.0098 38.5667 49.0034 38.5774 48.99C38.5946 48.9692 38.603 48.9283 38.603 48.8675C38.603 48.8196 38.5949 48.7861 38.5785 48.7677C38.5626 48.7499 38.5324 48.7393 38.4874 48.7355V48.7351C38.0624 48.7062 37.7175 48.6475 37.452 48.5598C37.168 48.4657 36.9689 48.336 36.8539 48.1704C36.7239 47.9911 36.5701 47.6995 36.3927 47.2968C36.2172 46.8976 36.0173 46.3872 35.7941 45.7665L33.3933 39.0835H33.3935L33.3933 39.0828C33.0551 38.128 32.7473 37.2335 32.4705 36.3991C32.1944 35.5665 31.9464 34.7863 31.7267 34.0579C31.7249 34.0532 31.7235 34.0485 31.7222 34.0434C31.7146 34.0118 31.7046 33.9903 31.6926 33.979C31.6906 33.9776 31.6885 33.976 31.6858 33.9747L30.5526 34.5303C30.433 34.917 30.244 35.4675 29.9865 36.1834C29.7129 36.9442 29.3673 37.8765 28.9503 38.9831H28.95L26.4268 45.5962L26.4243 45.6037C26.1639 46.2783 25.9266 46.8298 25.7144 47.2571C25.4973 47.6944 25.304 48.0042 25.1362 48.1853L25.1356 48.1856C24.9995 48.33 24.8213 48.448 24.6002 48.5399C24.3875 48.6285 24.1344 48.6931 23.8408 48.7333L23.8315 48.7346C23.8085 48.7371 23.7928 48.7443 23.7846 48.7561C23.7699 48.7765 23.7624 48.8136 23.7624 48.8674C23.7624 48.9292 23.7694 48.9716 23.783 48.9951L23.7856 48.9991C23.7905 49.006 23.8008 49.0096 23.8167 49.0096C24.1446 48.9888 24.4898 48.973 24.8524 48.9625C25.224 48.9515 25.5983 48.9461 25.9752 48.9461C26.0434 48.9461 26.2981 48.9515 26.7403 48.9625C27.166 48.973 27.7645 48.9888 28.5356 49.0099L28.5435 49.0096C28.5594 49.0096 28.5699 49.006 28.5746 48.9991L28.5749 48.9993C28.5901 48.9765 28.5978 48.9327 28.5978 48.8674C28.5978 48.8136 28.5903 48.7765 28.5758 48.7561C28.5678 48.7447 28.553 48.7378 28.5312 48.7349C28.1808 48.7098 27.8845 48.675 27.6427 48.6291C27.3957 48.5822 27.2028 48.5227 27.0646 48.4503L27.0585 48.4471C26.909 48.3649 26.797 48.25 26.722 48.1013C26.6499 47.958 26.6138 47.786 26.6138 47.5842C26.6138 47.3527 26.6563 47.0679 26.7411 46.731C26.824 46.4021 26.9485 46.0192 27.1149 45.5825L27.9875 43.2236C28.0034 43.1706 28.0502 43.1308 28.1077 43.1272C28.5258 43.1004 28.963 43.0801 29.4189 43.0662C29.8715 43.0526 30.3278 43.0454 30.7875 43.0454C31.0932 43.0454 31.4547 43.0528 31.8715 43.0665L31.8708 43.0669ZM30.7227 36.0939C30.6193 36.404 30.4485 36.8691 30.2133 37.4861C29.9533 38.1769 29.7608 38.6988 29.6291 39.0581L28.4183 42.4205C28.9241 42.4487 29.7149 42.4628 30.7868 42.4628C31.7665 42.4628 32.4861 42.4487 32.9456 42.4205L31.7238 39.0581C31.4138 38.1418 31.0791 37.1545 30.7228 36.0937L30.7227 36.0939ZM33.2269 43.2632C32.2259 43.21 31.4136 43.182 30.7868 43.182C29.8395 43.182 28.9487 43.21 28.1154 43.2632L27.2394 45.6317C26.9117 46.4916 26.7478 47.1437 26.7478 47.5842C26.7478 47.9437 26.8724 48.1907 27.1219 48.3278C27.3746 48.4621 27.8486 48.5498 28.543 48.5992C28.6676 48.6133 28.7315 48.7016 28.7315 48.8672C28.7315 49.0539 28.6674 49.1456 28.543 49.1456C26.9899 49.1033 26.135 49.0821 25.9746 49.0821C25.2019 49.0821 24.4823 49.1033 23.8164 49.1456C23.6915 49.1456 23.6276 49.0539 23.6276 48.8672C23.6276 48.7015 23.6917 48.6133 23.8164 48.5992C24.3861 48.5216 24.7922 48.3526 25.0379 48.0916C25.3549 47.75 25.7787 46.9003 26.2986 45.5539L28.8241 38.9344C29.6649 36.7032 30.2062 35.2055 30.4414 34.4333L31.6629 33.8341C31.7592 33.8341 31.8233 33.8942 31.8517 34.0102C32.2896 35.4624 32.8452 37.1367 33.5187 39.0366L35.9193 45.7196C36.3645 46.9564 36.7137 47.75 36.9628 48.0916C37.1585 48.3734 37.6681 48.543 38.4983 48.5992C38.6583 48.6133 38.7368 48.7016 38.7368 48.8672C38.7368 49.0539 38.6619 49.1456 38.5089 49.1456C36.9132 49.1033 35.987 49.0821 35.7234 49.0821C35.4919 49.0821 34.58 49.1033 32.9877 49.1456C32.8631 49.1456 32.7991 49.0539 32.7991 48.8672C32.7991 48.7015 32.8633 48.6099 32.9877 48.5992C33.7253 48.543 34.1989 48.4444 34.4054 48.3C34.559 48.1869 34.637 47.993 34.637 47.7076C34.637 47.4471 34.4731 46.8477 34.1454 45.91L33.2265 43.2632H33.2269ZM14.7038 34.0585C14.9432 34.0652 15.2088 34.0704 15.5012 34.0738C15.7701 34.0771 16.0982 34.0785 16.4872 34.0785C16.7926 34.0785 17.1246 34.0717 17.4828 34.0581C17.8434 34.0442 18.2424 34.0232 18.6801 33.9948L18.6885 33.9942V33.9941C18.8063 33.9941 18.8953 34.0411 18.9564 34.1361C19.0053 34.2126 19.0296 34.3172 19.0296 34.4511C19.0296 34.5649 19.0032 34.6557 18.9494 34.7255C18.8915 34.8006 18.8092 34.8433 18.7017 34.8544L18.6963 34.8545C18.2504 34.8822 17.8973 34.936 17.6369 35.0168C17.3983 35.091 17.2442 35.1844 17.1747 35.298L17.174 35.2989C17.0965 35.4244 17.0378 35.6135 16.9976 35.8664C16.9558 36.129 16.9353 36.4586 16.9353 36.855V37.1157L16.9349 37.1261L17.0274 45.3138C17.0308 45.8575 17.0397 46.3078 17.0533 46.6648C17.0667 47.0185 17.0851 47.2763 17.1078 47.4386C17.1278 47.5558 17.1558 47.662 17.1914 47.7581C17.2258 47.8518 17.2674 47.9361 17.3153 48.0123C17.364 48.0773 17.4251 48.1335 17.498 48.1815C17.5739 48.2312 17.6616 48.2712 17.7609 48.3027C17.8696 48.3313 18.0188 48.3597 18.2093 48.387C18.4018 48.4145 18.6308 48.4406 18.8962 48.4646L18.904 48.4655V48.4648C19.0103 48.4807 19.091 48.5249 19.148 48.5981C19.2025 48.668 19.2291 48.7577 19.2291 48.8675C19.2291 48.9909 19.203 49.0877 19.1496 49.159C19.0876 49.2413 18.9998 49.2824 18.8846 49.2824C18.879 49.2824 18.8735 49.2819 18.8681 49.2813C18.3077 49.254 17.7991 49.2343 17.3414 49.2213C16.8645 49.2073 16.4298 49.201 16.0384 49.201C15.6514 49.201 15.231 49.2073 14.7789 49.2211C14.3425 49.2343 13.8638 49.2542 13.342 49.2817L13.335 49.2819V49.2824C13.2334 49.2824 13.1573 49.2354 13.1073 49.1402V49.14L13.1068 49.1402C13.0721 49.0738 13.0545 48.983 13.0545 48.8675C13.0545 48.7653 13.0725 48.6823 13.1079 48.6175C13.1523 48.5357 13.219 48.4858 13.3066 48.4666C13.3138 48.465 13.3207 48.4643 13.3275 48.4635C13.7687 48.4293 14.1176 48.3715 14.3748 48.2899C14.6111 48.2151 14.762 48.1252 14.8281 48.0195L14.8286 48.0186C14.9052 47.898 14.9636 47.6863 15.004 47.3843C15.0461 47.0702 15.067 46.6622 15.067 46.1605L15.0674 46.1495L15.0075 36.5087H14.9852L11.7758 43.7702L11.7759 43.7703C11.417 44.5715 11.0528 45.4074 10.6837 46.2787C10.3161 47.146 9.9402 48.0566 9.55551 49.0105L9.55283 49.017C9.51408 49.1046 9.45461 49.1713 9.37531 49.2171C9.30013 49.2605 9.2103 49.2824 9.10707 49.2824C9.02724 49.2824 8.95634 49.2562 8.89383 49.2042C8.84008 49.1599 8.79472 49.097 8.75757 49.0168L8.75471 49.0103L8.75435 49.0105C8.36574 48.0409 8.00356 47.1556 7.66781 46.3559C7.33259 45.5572 7.01774 44.8297 6.7227 44.1727C6.72092 44.1691 6.71949 44.1655 6.71824 44.1615L3.3568 36.5087H3.34501L3.28554 45.3149H3.28607V45.6672C3.28607 46.3017 3.31054 46.8178 3.35965 47.2162C3.4068 47.5976 3.47449 47.8645 3.56271 48.0177C3.60629 48.082 3.66254 48.137 3.73095 48.1836C3.80363 48.2329 3.89007 48.2728 3.99026 48.3041C4.09313 48.3324 4.23457 48.3602 4.4162 48.3877C4.59854 48.4152 4.81392 48.4411 5.06252 48.4652C5.17271 48.4757 5.25718 48.5176 5.31683 48.5911C5.37363 48.6613 5.40166 48.7534 5.40166 48.8681C5.40166 48.9926 5.37416 49.0899 5.31844 49.1616C5.25504 49.2428 5.16575 49.283 5.04984 49.283C5.04413 49.283 5.03841 49.2824 5.03287 49.2819C4.53175 49.2547 4.09527 49.2348 3.72219 49.222C3.32804 49.208 2.99354 49.2015 2.72048 49.2015C2.37151 49.2015 1.99522 49.2079 1.59392 49.2216C1.20817 49.2348 0.787229 49.2547 0.331286 49.2822L0.323428 49.2824V49.283C0.211988 49.283 0.128228 49.2403 0.0700077 49.1541C0.0230382 49.0841 0 48.9889 0 48.8681C0 48.757 0.0233954 48.6674 0.071615 48.5987C0.126085 48.5209 0.204844 48.4764 0.309141 48.4652L0.319499 48.4643C0.69204 48.4301 0.992609 48.3711 1.22049 48.2873C1.43176 48.2095 1.57499 48.1131 1.64947 47.9984C1.71912 47.8721 1.77841 47.7335 1.82734 47.5828C1.87753 47.4288 1.91592 47.2658 1.94289 47.0938H1.94271C1.96932 46.9087 1.99236 46.6666 2.01129 46.3679C2.03022 46.0672 2.04522 45.7151 2.05576 45.312L2.24453 36.8771H2.244V36.683C2.244 36.3293 2.22274 36.0354 2.1806 35.8026C2.14006 35.5797 2.08166 35.4143 2.00558 35.3068L2.00361 35.3038C1.92307 35.2044 1.76037 35.118 1.51552 35.0434C1.24514 34.9611 0.885097 34.8981 0.435226 34.8553L0.433262 34.8551L0.433083 34.8553C0.333072 34.8437 0.255385 34.8026 0.200201 34.7306C0.150195 34.6651 0.124657 34.5793 0.124657 34.4731C0.124657 34.336 0.146445 34.2287 0.189306 34.1511C0.246813 34.0469 0.333429 33.995 0.447906 33.995C0.453621 33.995 0.459336 33.9955 0.464694 33.996C1.01368 34.0243 1.47641 34.0451 1.85217 34.059C2.22632 34.0726 2.52296 34.0795 2.74155 34.0795C3.12106 34.0795 3.44931 34.078 3.72773 34.0747C4.03473 34.0713 4.32422 34.0659 4.59765 34.059C4.66015 34.0574 4.71355 34.0995 4.72998 34.1576H4.73016C4.84785 34.5734 4.97697 34.9792 5.11806 35.3743C5.25861 35.7686 5.4122 36.1561 5.57883 36.5368C5.58043 36.5402 5.58186 36.544 5.58311 36.5475L8.50951 43.4022L8.50986 43.402C8.59416 43.5905 8.69435 43.8196 8.81025 44.087C8.93169 44.3676 9.05528 44.6562 9.18065 44.9516C9.18208 44.955 9.18351 44.9585 9.18458 44.9623L9.23423 45.0811C9.40389 45.488 9.53605 45.8052 9.64124 46.0552C9.88876 45.47 10.1027 44.9704 10.2831 44.5561C10.4949 44.07 10.6674 43.6862 10.8001 43.4045L13.557 36.8275L13.5602 36.8201C13.7379 36.4179 13.9117 35.9918 14.0808 35.5424C14.2485 35.0977 14.4096 34.6347 14.5645 34.1527C14.5841 34.0914 14.643 34.0539 14.7039 34.0595L14.7038 34.0585ZM15.499 34.3452C15.2388 34.3425 15.0022 34.338 14.7886 34.3322C14.6411 34.7865 14.4889 35.2218 14.3319 35.6383C14.1633 36.0859 13.9876 36.5163 13.8051 36.9297L11.0469 43.51L11.0467 43.5098L11.0442 43.5151C10.9191 43.7801 10.7474 44.163 10.5288 44.6645C10.3138 45.1584 10.0597 45.7524 9.76732 46.4466C9.755 46.4806 9.72946 46.5097 9.6941 46.5251C9.62588 46.5548 9.54676 46.5229 9.51765 46.4538C9.43782 46.2671 9.25477 45.8275 8.98724 45.1855L8.93759 45.0665L8.93348 45.0578C8.78882 44.7169 8.66577 44.4291 8.56415 44.1944C8.45575 43.944 8.35592 43.7161 8.26484 43.5125L8.26519 43.5123L5.33719 36.6542L5.33309 36.6453C5.16539 36.2627 5.00984 35.8693 4.86589 35.4657C4.73284 35.0928 4.61122 34.7147 4.50067 34.3318C4.25922 34.3378 4.0024 34.3422 3.72987 34.345C3.38966 34.349 3.06051 34.3512 2.74155 34.3512C2.53564 34.3512 2.23578 34.3438 1.8427 34.3293C1.45927 34.3152 0.995109 34.2942 0.451121 34.2663H0.447906C0.437369 34.2663 0.429333 34.2714 0.423618 34.2819C0.403794 34.3177 0.393615 34.3811 0.393615 34.4719C0.393615 34.5166 0.400044 34.547 0.412545 34.5634C0.420582 34.5741 0.437369 34.5808 0.462551 34.5835V34.5839C0.930816 34.6289 1.30746 34.6946 1.59232 34.7811C1.89039 34.8719 2.09737 34.9893 2.21274 35.1328C2.21685 35.1373 2.2206 35.1418 2.22417 35.1469C2.32293 35.2864 2.39651 35.4885 2.4442 35.7523C2.48992 36.0045 2.51295 36.3144 2.51295 36.6817V36.8758H2.5126C2.49635 39.6805 2.36562 42.5086 2.32383 45.3173C2.31293 45.7325 2.29793 46.088 2.27918 46.3838C2.25971 46.6903 2.23614 46.9394 2.20864 47.1308H2.20846L2.2081 47.133C2.17827 47.323 2.13666 47.5012 2.08273 47.6666C2.02933 47.8305 1.96272 47.9848 1.88271 48.1299C1.88039 48.1348 1.87771 48.1395 1.87467 48.1444C1.76752 48.3108 1.57964 48.4431 1.31193 48.5415C1.06333 48.6331 0.74026 48.6969 0.343609 48.7331L0.337537 48.734C0.313784 48.7366 0.298068 48.7438 0.29021 48.7548C0.275923 48.7753 0.268958 48.8125 0.268958 48.8668C0.268958 48.9329 0.276459 48.9768 0.291818 48.9996C0.295925 49.0058 0.306462 49.009 0.323428 49.009C0.770263 48.9823 1.19138 48.9624 1.58553 48.9488C2.00808 48.9345 2.38615 48.9278 2.72048 48.9278C2.97961 48.9278 3.3159 48.9345 3.73059 48.9491C4.11313 48.9625 4.55246 48.9823 5.04752 49.009H5.04984C5.08002 49.009 5.09949 49.0034 5.10824 48.9922C5.12467 48.9712 5.13271 48.9296 5.13271 48.8668C5.13271 48.816 5.12521 48.7811 5.10985 48.7624C5.09752 48.7471 5.07324 48.7375 5.03734 48.734C4.77642 48.7091 4.55657 48.6828 4.37727 48.6559C4.18814 48.6271 4.03509 48.5963 3.91793 48.5641L3.914 48.563C3.78702 48.5238 3.6763 48.4722 3.58164 48.408C3.48342 48.3412 3.40287 48.2613 3.33965 48.1677L3.33554 48.1609C3.22571 47.975 3.14499 47.6707 3.09284 47.2481C3.0423 46.8385 3.01694 46.3114 3.01694 45.6663V45.314H3.01747L3.07802 36.3828L3.07748 36.3718C3.07748 36.2965 3.13784 36.2354 3.21214 36.2354H3.44377V36.2357C3.49503 36.2357 3.54396 36.2659 3.56611 36.3162L6.96326 44.0502L6.96755 44.0591C7.25669 44.7028 7.57244 45.4327 7.9148 46.2485C8.25662 47.063 8.61934 47.949 9.00367 48.9075C9.02242 48.9472 9.04224 48.9757 9.06314 48.9929C9.07617 49.0036 9.09082 49.009 9.10725 49.009C9.16422 49.009 9.20976 48.9994 9.24316 48.9801C9.27102 48.9638 9.29281 48.939 9.30763 48.9057C9.68803 47.962 10.0647 47.0505 10.4372 46.1714C10.8094 45.2926 11.1743 44.4548 11.5314 43.6578H11.5318L14.7722 36.3265C14.7906 36.2735 14.8404 36.2354 14.8991 36.2354H15.1411V36.2357C15.2151 36.2361 15.2751 36.2965 15.2752 36.371L15.336 46.147C15.3363 46.1513 15.3365 46.1555 15.3365 46.1598C15.3365 46.6702 15.3145 47.0901 15.2702 47.4198C15.2243 47.7621 15.1527 48.0107 15.055 48.165C14.9532 48.3269 14.7536 48.4549 14.4553 48.5493C14.1805 48.636 13.8151 48.6977 13.3588 48.7337C13.3524 48.7362 13.3474 48.7407 13.3438 48.7474C13.3306 48.7715 13.324 48.8113 13.324 48.8668C13.324 48.9347 13.3306 48.9821 13.3434 49.0089C13.854 48.9817 14.3305 48.962 14.7722 48.9488C15.2483 48.9345 15.6699 48.9278 16.0389 48.9278C16.4113 48.9278 16.8474 48.9345 17.3492 48.9488C17.8152 48.9624 18.3259 48.9821 18.8817 49.009H18.8851C18.9123 49.009 18.9294 49.0043 18.9369 48.9944C18.9528 48.9728 18.9607 48.9307 18.9607 48.8668C18.9607 48.8183 18.9533 48.7843 18.9385 48.7655C18.926 48.7494 18.9019 48.7391 18.8656 48.7337L18.8658 48.7333C18.5924 48.7087 18.3615 48.6826 18.1731 48.6555C17.9716 48.6267 17.8118 48.5962 17.6932 48.5645V48.5643L17.6884 48.563C17.5617 48.524 17.45 48.4728 17.3533 48.4094C17.2533 48.3443 17.1688 48.2654 17.1001 48.1728L17.1003 48.1726L17.0947 48.1648C17.0342 48.0698 16.9826 47.966 16.9406 47.8524C16.8986 47.7386 16.866 47.6159 16.8433 47.4831L16.8427 47.4795C16.819 47.311 16.7997 47.0424 16.7858 46.6736C16.7722 46.3181 16.7633 45.8653 16.7597 45.3151L16.6672 37.1284C16.6668 37.1241 16.6665 37.1197 16.6665 37.115V36.8543C16.6665 36.4472 16.6886 36.1035 16.7333 35.823C16.7793 35.5334 16.8508 35.3099 16.9476 35.1534C17.0529 34.9821 17.2565 34.8504 17.5594 34.7563C17.8411 34.6689 18.2145 34.6112 18.6801 34.5826C18.709 34.5792 18.7285 34.5707 18.7387 34.5575C18.7535 34.5381 18.761 34.5025 18.761 34.4502C18.761 34.3691 18.7513 34.3134 18.7319 34.283C18.7244 34.2716 18.7101 34.2656 18.6892 34.2656C18.2616 34.2935 17.8627 34.3145 17.4926 34.3288C17.116 34.3431 16.7809 34.3505 16.4875 34.3505C16.157 34.3505 15.828 34.3483 15.4994 34.3443L15.499 34.3452ZM14.692 34.1938C15.1729 34.2079 15.7676 34.2148 16.4872 34.2148C17.0854 34.2148 17.8193 34.1869 18.6885 34.1303C18.8276 34.1303 18.8949 34.2361 18.8949 34.4509C18.8949 34.6168 18.8274 34.7045 18.6885 34.7187C17.7768 34.7753 17.2351 34.9407 17.0608 35.2263C16.8861 35.5084 16.8008 36.0514 16.8008 36.8548C16.8008 36.9676 16.8008 37.0522 16.8008 37.1156L16.8935 45.3144C16.9006 46.4175 16.929 47.1332 16.9753 47.4607C17.0183 47.7109 17.0967 47.9193 17.2067 48.0916C17.3244 48.2504 17.4989 48.3629 17.7268 48.4337C17.9513 48.4938 18.3359 48.5498 18.8846 48.5992C19.0271 48.6206 19.0944 48.7085 19.0944 48.8672C19.0944 49.0539 19.0269 49.1456 18.8846 49.1456C17.7305 49.089 16.7829 49.0646 16.0384 49.0646C15.3011 49.0646 14.4002 49.089 13.335 49.1456C13.2388 49.1456 13.1888 49.0539 13.1888 48.8672C13.1888 48.7083 13.2388 48.6206 13.335 48.5992C14.2396 48.5289 14.7741 48.3597 14.9415 48.0916C15.1158 47.8169 15.2015 47.1717 15.2015 46.1602L15.1406 36.3721H14.8986L11.6534 43.7141C10.9378 45.3107 10.1968 47.059 9.43103 48.9587C9.37746 49.0823 9.26709 49.1456 9.10689 49.1456C9.01063 49.1456 8.93562 49.0821 8.87883 48.9587C8.10589 47.0308 7.42921 45.4164 6.84486 44.1161L3.44359 36.3721H3.21196L3.15142 45.3144C3.15142 45.473 3.15142 45.5892 3.15142 45.6666C3.15142 46.9463 3.25107 47.7534 3.45038 48.0916C3.55753 48.2504 3.72487 48.3629 3.95293 48.4337C4.1701 48.4938 4.53335 48.5498 5.04984 48.5992C5.19611 48.6133 5.26719 48.7016 5.26719 48.8672C5.26719 49.0539 5.19593 49.1456 5.04984 49.1456C4.01348 49.089 3.23678 49.0646 2.72048 49.0646C2.05451 49.0646 1.25299 49.089 0.323428 49.1456C0.195021 49.1456 0.134658 49.0539 0.134658 48.8672C0.134658 48.7015 0.1952 48.6133 0.323428 48.5992C1.09976 48.5289 1.58071 48.3526 1.76234 48.0708C1.91557 47.7959 2.01879 47.4751 2.07576 47.112C2.12934 46.7386 2.16827 46.1394 2.18988 45.3145L2.37865 36.8764V36.6822C2.37865 35.9596 2.28954 35.4733 2.11505 35.2265C1.92271 34.9763 1.36694 34.8073 0.448085 34.7188C0.323428 34.7047 0.259493 34.6237 0.259493 34.4722C0.259493 34.2434 0.323607 34.1305 0.448085 34.1305C1.55249 34.1871 2.31811 34.215 2.74173 34.215C3.44002 34.215 4.05634 34.2081 4.60122 34.194C4.83625 35.0257 5.12128 35.8257 5.45631 36.5905L8.38753 43.4568C8.56219 43.8481 8.78668 44.3663 9.05724 45.0043C9.34228 45.6878 9.53462 46.1497 9.64124 46.4001C10.2397 44.9795 10.6671 43.9998 10.9235 43.4568L13.6804 36.8798C14.0403 36.0653 14.3787 35.1702 14.6921 34.194L14.692 34.1938Z" fill="white"/>
<path id="Vector_4" fill-rule="evenodd" clip-rule="evenodd" d="M1.80411 56.9209H154.761C155.6 56.9209 156.286 57.6158 156.286 58.4653V64.6442C156.286 65.494 155.6 66.1891 154.761 66.1891H1.80411C0.965444 66.1891 0.279297 65.494 0.279297 64.6442V58.4653C0.279297 57.6158 0.965444 56.9209 1.80411 56.9209Z" fill="#EC4646"/>
<path id="Vector_5" d="M45.6486 59.2383L44.3195 63.8725H43.2076L42.2866 60.7372H42.2668L41.3458 63.8725H40.2273L38.9048 59.2383H40.1153L40.8521 62.3211H40.872L41.701 59.2383H42.8722L43.7078 62.3211H43.7276L44.4777 59.2383H45.6489H45.6486ZM55.3664 63.8725H54.1165L53.7545 62.9628H51.9518L51.6096 63.8725H50.3859L52.34 59.2383H53.4321L55.3664 63.8725ZM53.4453 62.066L52.8663 60.4756L52.2743 62.066H53.4455H53.4453ZM63.5975 63.8725H60.6631V59.2383H61.7948V62.8971H63.5977V63.8725H63.5975ZM71.9666 63.8725H69.0322V59.2383H70.1639V62.8971H71.9668V63.8725H71.9666ZM80.9344 60.6652C80.9344 61.0056 80.8455 61.2893 80.6679 61.5161C80.4904 61.7432 80.2688 61.9011 80.0034 61.9907C79.7382 62.0804 79.4323 62.1251 79.0856 62.1251H78.5265V63.8727H77.4013V59.2385H79.1121C79.6646 59.2385 80.1066 59.3508 80.4377 59.5757C80.7689 59.8002 80.9346 60.1635 80.9346 60.6654L80.9344 60.6652ZM79.8093 60.6718C79.8093 60.3184 79.5462 60.1416 79.0197 60.1416H78.5261V61.235H78.9999C79.5394 61.235 79.8093 61.0472 79.8093 60.6719V60.6718ZM90.5338 63.8725H89.2837L88.9219 62.9628H87.119L86.777 63.8725H85.5533L87.5073 59.2383H88.5995L90.5338 63.8725ZM88.6127 62.066L88.0338 60.4756L87.4415 62.066H88.6129H88.6127ZM99.3636 60.6652C99.3636 61.0056 99.2746 61.2893 99.0971 61.5161C98.9196 61.7432 98.698 61.9011 98.4326 61.9907C98.1672 62.0804 97.8613 62.1251 97.5148 62.1251H96.9556V63.8727H95.8305V59.2385H97.5411C98.0938 59.2385 98.5356 59.3508 98.8669 59.5757C99.198 59.8002 99.3637 60.1635 99.3637 60.6654L99.3636 60.6652ZM98.2384 60.6718C98.2384 60.3184 97.9752 60.1416 97.4487 60.1416H96.9553V61.235H97.4291C97.9684 61.235 98.2384 61.0472 98.2384 60.6719V60.6718ZM108.2 63.8725H104.949V59.2383H108.081V60.1872H106.035V61.0578H107.969V61.9545H106.035V62.9167H108.2V63.8723V63.8725ZM117.661 63.8725H116.345L115.339 62.0332H114.957V63.8725H113.851V59.2383H115.628C115.865 59.2383 116.084 59.2623 116.286 59.3103C116.488 59.3582 116.676 59.4349 116.852 59.5395C117.027 59.6441 117.164 59.7901 117.263 59.9781C117.362 60.1655 117.411 60.3861 117.411 60.639C117.411 60.9446 117.325 61.2064 117.154 61.4244C116.983 61.6428 116.747 61.7975 116.444 61.8892L117.661 63.8725ZM116.299 60.6585C116.299 60.3141 116.049 60.1415 115.549 60.1415H114.95V61.2216H115.483C116.027 61.2216 116.299 61.034 116.299 60.6585Z" fill="white"/>
</g>
</g>
</g>
</svg>
