<svg width="101" height="101" viewBox="0 0 101 101" fill="none" xmlns="http://www.w3.org/2000/svg">
<circle cx="50.8049" cy="50.8228" r="50" fill="#D9D9D9"/>
<path d="M18.1792 54.7881C20.8351 52.3482 23.5039 49.9187 26.2503 47.5766C29.7112 44.6255 36.1127 38.703 41.002 38.6283C44.2634 38.5785 44.8593 40.0542 43.7297 42.598C43.0835 44.0533 42.0524 45.9749 41.7789 46.5313C39.2489 51.6824 35.6271 58.9339 35.2534 59.7106C34.3529 63.1096 44.7782 53.186 44.8385 53.1292C48.9689 49.2316 58.0855 40.4642 64.4008 38.8118L64.401 38.8122L64.4101 38.8099C67.0555 38.1764 69.0949 39.053 67.5219 42.2732C64.9276 47.5501 62.5454 52.9209 60.0733 58.2519C58.9249 61.1668 63.2204 60.7969 64.7724 60.6059C70.7631 59.8684 86.0313 55.5248 88.5061 48.1434C90.8618 41.117 79.7353 39.9141 74.2541 39.2836C70.4311 38.8439 72.8634 38.6285 76.7816 38.6285C85.2749 38.6285 89.2609 40.886 90.8102 43.6204C94.8295 50.7152 79.4811 63.0954 61.8142 63.0273C53.2834 62.9947 56.0898 58.2832 58.2101 53.7207C60.0942 49.6664 62.099 45.6557 63.9433 41.5899C58.0259 44.4937 52.0462 50.4926 47.7365 54.631C44.0034 58.2159 39.8692 63.0193 34.1071 63.0273C32.5773 63.0294 31.3689 62.497 31.1651 60.8521C31.0169 59.6572 33.8541 53.4628 36.2529 48.6192C37.3512 46.4013 38.6326 43.7492 39.8418 41.4736C34.6158 43.7359 28.9261 48.1825 23.4719 52.8172C22.406 53.7232 14.6918 60.6093 11.3705 62.6905C11.1587 62.8232 10.6577 63.0271 10.4605 63.0271C8.37412 63.0271 17.5938 55.3258 18.1792 54.7879V54.7881Z" fill="#2E355C"/>
</svg>
