<svg width="8" height="6" viewBox="0 0 8 6" fill="none" xmlns="http://www.w3.org/2000/svg">
<path id="Icon color" d="M7.23151 0.795967C7.26906 0.75811 7.32017 0.736816 7.37349 0.736816C7.42681 0.736816 7.47792 0.75811 7.51547 0.795967L7.9394 1.2199C7.97807 1.25619 8 1.30686 8 1.35988C8 1.41291 7.97807 1.46357 7.9394 1.49986L4.26396 5.1753C4.20776 5.23157 4.13152 5.26322 4.05199 5.26329H3.94801C3.86848 5.26322 3.79224 5.23157 3.73604 5.1753L0.0605984 1.49986C0.0219331 1.46357 0 1.41291 0 1.35988C0 1.30686 0.0219331 1.25619 0.0605984 1.2199L0.484534 0.795967C0.522081 0.75811 0.573193 0.736816 0.626513 0.736816C0.679832 0.736816 0.730943 0.75811 0.768491 0.795967L4 4.02748L7.23151 0.795967Z" fill="#192965"/>
</svg>
