<svg width="6" height="10" viewBox="0 0 6 10" fill="none" xmlns="http://www.w3.org/2000/svg">
<g id="Icon color">
<path d="M0.936554 1.99997C0.894737 1.96242 0.936554 2.05329 0.936554 1.99997C0.936554 1.94665 0.894737 1.03752 0.936554 0.999973L1.93655 0.999973C1.87798 0.999973 1.97664 0.961308 1.93655 0.999973C1.89647 0.961308 1.99513 0.999973 1.93655 0.999973L5.93655 4.99997C5.93648 4.92045 5.99871 5.05617 5.93655 4.99997C5.93648 5.0795 5.99871 4.94377 5.93655 4.99997L1.93655 8.99997C1.89647 9.03864 1.99513 8.99997 1.93655 8.99997C1.87798 8.99997 1.97664 9.03864 1.93655 8.99997H0.936554C0.894737 8.96242 0.936554 8.05329 0.936554 7.99997C0.894737 8.03752 0.936554 7.94665 0.936554 7.99997L4.93655 4.99997L0.936554 1.99997Z" fill="#192965"/>
</g>
</svg>
