<svg width="118" height="94" viewBox="0 0 118 94" fill="none" xmlns="http://www.w3.org/2000/svg">
<g id="Group 1000002381">
<path id="Intersect" d="M43.624 32.4113L33.1316 32.5725L28.0245 25.328C22.7093 26.9209 17.8298 29.6897 13.7682 33.4174L17.5971 41.3883L12.2084 50.2411L2.98357 51.0911C1.58927 56.3866 1.51771 61.9401 2.77276 67.266L11.901 67.8284L16.9152 76.3659L12.8476 84.4161C16.913 88.1468 21.8421 90.8617 27.2051 92.3213L32.5638 84.8962L43.0549 84.735L48.1587 91.9748C53.474 90.3808 58.3534 87.6109 62.4145 83.8819L58.5888 75.9176L63.9758 67.0676L73.1921 66.2184C74.5873 60.9225 74.6596 55.3684 73.4049 50.0419L64.2844 49.48L59.2712 40.9441L63.3376 32.8962C59.2733 29.1641 54.3451 26.4476 48.9827 24.9863L43.624 32.4113Z" stroke="#192965" stroke-width="3.0135" stroke-linecap="round" stroke-linejoin="round"/>
<path id="Polygon (inner)" d="M26.5717 52.115C29.002 48.1224 33.3597 45.6492 38.0922 45.5765L38.5176 45.5699C43.2162 45.4977 47.5859 47.9333 49.9355 51.9339C52.2851 55.9345 52.2459 60.8724 49.833 64.8364L49.6145 65.1953C47.1842 69.1879 42.8265 71.6612 38.094 71.7339L37.6686 71.7404C32.97 71.8126 28.6003 69.3771 26.2507 65.3765C23.9011 61.3758 23.9403 56.438 26.3532 52.4739L26.5717 52.115Z" stroke="#192965" stroke-width="3.0135" stroke-linecap="round" stroke-linejoin="round"/>
<path id="Intersect_2" d="M110.482 29.9041L110.371 22.9546L115.406 19.5246C114.299 15.9373 112.366 12.645 109.76 9.90877L104.22 12.4803L98.1526 8.9114L97.562 2.71589C93.8666 1.7697 89.9889 1.72146 86.2722 2.57381L85.8812 8.70445L80.0315 12.0245L74.4367 9.29287C71.8279 12.0315 69.9322 15.3574 68.9189 18.977L74.0792 22.5759L74.1895 29.5244L69.1581 32.9521C70.2654 36.5395 72.1994 39.8318 74.8066 42.5678L80.3415 39.9984L86.4073 43.5663L86.9974 49.7561C90.693 50.703 94.5711 50.7517 98.2882 49.8997L98.6789 43.7741L104.528 40.4545L110.121 43.1855C112.731 40.4476 114.628 37.1223 115.642 33.5031L110.482 29.9041Z" stroke="#192965" stroke-width="3.0135" stroke-linecap="round" stroke-linejoin="round"/>
<path id="Polygon (inner)_2" d="M96.8155 18.5163C99.5849 20.1452 101.3 23.0662 101.351 26.2383L101.355 26.523C101.405 29.6725 99.7159 32.6014 96.941 34.1764C94.1661 35.7513 90.7411 35.725 87.9915 34.1077L87.7429 33.9615C84.9736 32.3326 83.2581 29.4117 83.2077 26.2395L83.2032 25.9548C83.1532 22.8054 84.8426 19.8764 87.6175 18.3015C90.3924 16.7265 93.8174 16.7528 96.567 18.3701L96.8155 18.5163Z" stroke="#192965" stroke-width="3.0135" stroke-linecap="round" stroke-linejoin="round"/>
</g>
</svg>
