<svg width="127" height="95" viewBox="0 0 127 95" fill="none" xmlns="http://www.w3.org/2000/svg">
<g id="Group 1000002381">
<g id="Vector">
<path d="M34.437 45.0949C33.7142 48.5417 31.4917 51.484 28.3779 53.1163C24.9634 54.9062 20.8906 54.9062 17.4761 53.1163C14.3623 51.484 12.1398 48.5417 11.4171 45.0949L11.1665 43.8999C10.4227 40.3525 11.2209 36.6555 13.3614 33.7337L13.7673 33.1798C15.9083 30.2573 19.3096 28.5311 22.927 28.5311C26.5444 28.5311 29.9458 30.2573 32.0868 33.1798L32.4926 33.7337C34.6331 36.6555 35.4313 40.3525 34.6875 43.8999L34.437 45.0949Z" stroke="#192965" stroke-width="3.0135" stroke-linecap="round" stroke-linejoin="round"/>
<path d="M1.70801 77.6279C1.70801 79.6211 3.32015 81.2369 5.30882 81.2369H27.3843C28.8037 74.9165 32.6653 69.391 38.1181 65.8956C37.1367 65.1939 36.0568 64.6091 34.8946 64.1645L34.0809 63.8533C26.8976 61.1058 18.9564 61.1058 11.7732 63.8533L10.9595 64.1645C5.38855 66.2953 1.70801 71.6515 1.70801 77.6279Z" stroke="#192965" stroke-width="3.0135" stroke-linecap="round" stroke-linejoin="round"/>
<path d="M121.563 81.2374H99.4879C98.0686 74.9169 94.2071 69.3913 88.7543 65.8958C89.7356 65.1942 90.8155 64.6094 91.9775 64.165L92.7912 63.8537C99.9745 61.1063 107.916 61.1063 115.099 63.8537L115.913 64.165C121.484 66.2957 125.164 71.6519 125.164 77.6283C125.164 79.6215 123.552 81.2374 121.563 81.2374Z" stroke="#192965" stroke-width="3.0135" stroke-linecap="round" stroke-linejoin="round"/>
<path d="M92.4352 45.0954C93.1579 48.5421 95.3804 51.4844 98.4942 53.1167C101.909 54.9067 105.981 54.9067 109.396 53.1167C112.51 51.4844 114.732 48.5421 115.455 45.0954L115.706 43.9003C116.449 40.3529 115.651 36.6559 113.511 33.7341L113.105 33.1802C110.964 30.2577 107.563 28.5315 103.945 28.5315C100.328 28.5315 96.9263 30.2577 94.7853 33.1802L94.3795 33.7341C92.239 36.6559 91.4408 40.3529 92.1846 43.9003L92.4352 45.0954Z" stroke="#192965" stroke-width="3.0135" stroke-linecap="round" stroke-linejoin="round"/>
<path d="M93.9143 92.8378H32.9579C29.5487 92.8378 26.785 90.0678 26.785 86.6508C26.785 76.4104 33.1051 67.2377 42.6598 63.6106L44.2638 63.0017C56.6172 58.3123 70.255 58.3123 82.6083 63.0017L84.2123 63.6106C93.767 67.2377 100.087 76.4104 100.087 86.6508C100.087 90.0678 97.3234 92.8378 93.9143 92.8378Z" stroke="#192965" stroke-width="3.0135" stroke-linecap="round" stroke-linejoin="round"/>
<path d="M54.0637 44.6532C59.9397 47.7103 66.9324 47.7103 72.8084 44.6532C78.2129 41.8414 82.0765 36.7509 83.3379 30.7802L83.7327 28.9115C85.0275 22.783 83.6407 16.3921 79.9234 11.3562L79.2863 10.493C75.5683 5.45614 69.6873 2.48486 63.4361 2.48486C57.1848 2.48486 51.3039 5.45614 47.5858 10.4931L46.9487 11.3562C43.2314 16.3922 41.8446 22.783 43.1394 28.9115L43.5342 30.7802C44.7956 36.751 48.6592 41.8414 54.0637 44.6532Z" stroke="#192965" stroke-width="3.0135" stroke-linecap="round" stroke-linejoin="round"/>
</g>
</g>
</svg>
