<svg width="100" height="94" viewBox="0 0 100 94" fill="none" xmlns="http://www.w3.org/2000/svg">
<g id="Group 1000002381">
<path id="Star" d="M46.4158 4.14084C47.599 1.24439 51.7701 1.24439 52.9533 4.14085L63.4364 29.8033C63.9402 31.0367 65.1178 31.8778 66.4668 31.9677L94.5337 33.8385C97.7016 34.0497 98.9905 37.9493 96.5539 39.9506L74.9659 57.6817C73.9283 58.5339 73.4785 59.8948 73.8084 61.1838L80.6716 88.0025C81.4462 91.0294 78.0718 93.4395 75.3827 91.7799L51.5574 77.0759C50.4123 76.3691 48.9567 76.3691 47.8116 77.0759L23.9864 91.7799C21.2973 93.4395 17.9228 91.0294 18.6974 88.0024L25.5606 61.1838C25.8905 59.8948 25.4407 58.5339 24.4031 57.6817L2.81509 39.9506C0.378509 37.9493 1.66745 34.0497 4.83529 33.8385L32.9022 31.9677C34.2512 31.8778 35.4288 31.0367 35.9327 29.8033L46.4158 4.14084Z" stroke="#192965" stroke-width="3.0135" stroke-linecap="round" stroke-linejoin="round"/>
</g>
</svg>
