<svg width="94" height="95" viewBox="0 0 94 95" fill="none" xmlns="http://www.w3.org/2000/svg">
<g id="Group 1000002382">
<path id="Polygon" d="M29.6136 5.92371C40.6579 1.33858 53.0671 1.33858 64.1114 5.92371C75.1556 10.5088 83.9302 19.3035 88.5049 30.373C93.0796 41.4425 93.0796 53.8801 88.5049 64.9496C83.9302 76.0191 75.1556 84.8138 64.1114 89.3989C53.0671 93.984 40.6579 93.984 29.6136 89.3989C18.5694 84.8138 9.79475 76.0191 5.22007 64.9496C0.645392 53.8801 0.645392 41.4425 5.22007 30.373C9.79475 19.3035 18.5694 10.5088 29.6136 5.92371Z" stroke="#192965" stroke-width="3.0135" stroke-linecap="round" stroke-linejoin="round"/>
<path id="Intersect" d="M5.22864 30.3573C4.3123 32.5746 3.57951 34.8468 3.03027 37.1518L3.47488 37.6512C4.65075 38.9719 6.24269 39.8488 7.9854 40.1358L9.67917 40.4147C10.465 40.5442 11.1755 40.9596 11.6748 41.5814C12.6645 42.8144 12.6215 44.5834 11.5729 45.7665L11.4432 45.9129C10.8543 46.5774 10.5419 47.4429 10.5705 48.3313L10.6702 51.4379C10.7383 53.5589 11.4748 55.6039 12.774 57.2796C14.141 59.0426 14.883 61.2117 14.883 63.4445V69.1642C14.883 70.325 15.0897 71.4764 15.4932 72.5643L16.3495 74.8731C16.4584 75.1666 16.6513 75.4215 16.904 75.6057C17.9538 76.3712 19.4268 75.6195 19.4268 74.3183V69.719C19.4268 68.7062 19.8165 67.7324 20.5149 67.0004L30.8696 56.147C31.7548 55.2192 32.2488 53.9849 32.2488 52.7012V52.0747C32.2488 50.267 31.0769 48.669 29.3555 48.1295C28.6421 47.9059 28.0028 47.4922 27.5058 46.9326L26.8334 46.1755C25.4376 44.6038 23.4669 43.6646 21.3696 43.5715L20.6853 43.5411C18.5693 43.4472 16.5833 42.4913 15.1873 40.8947L14.5851 40.2059C14.0073 39.5451 13.2538 39.0626 12.4127 38.8149L10.8682 38.3599C9.81665 38.0501 9.09446 37.0829 9.09446 35.9843C9.09446 34.6168 10.2005 33.5083 11.5649 33.5083H13.6991C14.094 33.5083 14.4681 33.6856 14.7186 33.9915C15.5368 34.9905 17.1518 34.3404 17.0533 33.0518L17.0453 32.9474C17.016 32.5641 17.1506 32.1864 17.4154 31.9083L26.7904 22.0644C27.4321 21.3907 27.66 20.4219 27.3864 19.5318C27.0881 18.5615 26.2481 17.858 25.2424 17.7362L23.6741 17.5463C23.3421 17.5061 23.0336 17.3542 22.7988 17.1155C21.9403 16.2424 20.4556 16.7328 20.2833 17.9465L20.1372 18.9756C20.0085 19.8819 19.2812 20.5843 18.3728 20.6794L17.2585 20.7962C16.1932 20.9078 15.1372 20.5138 14.404 19.7313L13.2631 18.5136C13.1081 18.3482 12.9819 18.1654 12.8845 17.9716" stroke="#192965" stroke-width="3.0135" stroke-linecap="round" stroke-linejoin="round"/>
<path id="Intersect_2" d="M20.335 11.1289C21.3186 10.4108 22.3327 9.73154 23.3751 9.09326L25.1973 11.5989C25.8484 12.4942 25.2302 13.7543 24.1251 13.7841C23.7978 13.7929 23.478 13.6841 23.2237 13.4774L20.335 11.1289Z" stroke="#192965" stroke-width="3.0135" stroke-linecap="round" stroke-linejoin="round"/>
<path id="Intersect_3" d="M32.3469 4.87918C33.1335 4.61077 33.9257 4.36477 34.7225 4.14121L40.0124 3.83037C43.4989 3.62551 46.4888 6.29701 46.6845 9.79194C46.7854 11.5956 46.1124 13.3564 44.8349 14.6308L41.3655 18.0918C39.5828 19.8701 36.6538 19.7196 35.0511 17.7769C34.3899 16.9755 34.0429 15.9556 34.0804 14.9164C34.1209 13.7963 33.7175 12.7056 32.9584 11.8825L31.773 10.5973C30.9699 9.7265 30.6136 8.53245 30.8079 7.36272C30.9786 6.33501 31.5487 5.4557 32.3469 4.87918Z" stroke="#192965" stroke-width="3.0135" stroke-linecap="round" stroke-linejoin="round"/>
<path id="Intersect_4" d="M73.8829 11.4805C73.8266 11.5322 73.7713 11.5851 73.7168 11.6392L71.6954 13.6493C71.2922 14.0503 71.1424 14.6413 71.3056 15.1866C71.6285 16.2648 72.9582 16.6436 73.7986 15.8969L75.6959 14.2113C76.129 13.8265 76.7952 13.8827 77.158 14.3346C77.4729 14.7269 77.4536 15.2912 77.1127 15.661L75.4191 17.4978C75.1432 17.797 74.9739 18.1795 74.9377 18.5853C74.8542 19.5211 74.0823 20.2444 73.1452 20.2649L70.7441 20.3176C69.647 20.3417 68.596 20.7645 67.7868 21.5075L65.0194 24.0486L63.4823 27.3734C63.1413 28.111 62.5089 28.6728 61.7373 28.9235L60.5967 29.2942C59.8942 29.5225 59.4607 30.228 59.5734 30.9596C59.6777 31.6359 60.2231 32.1572 60.9022 32.2294L62.05 32.3515C62.94 32.4461 63.8257 32.1382 64.4661 31.5116L65.3205 30.6757C66.3807 29.6384 67.811 29.0696 69.2923 29.0961L69.3255 29.0967M86.5457 26.2061C86.2955 26.1556 86.0366 26.1387 85.7752 26.1585L84.8866 26.2258C83.2995 26.3459 81.9018 27.3183 81.2345 28.7665L80.5401 30.2734L78.8038 30.3779C78.1229 30.4189 77.4809 30.7097 77.0002 31.1948C76.5408 31.6584 75.9333 31.9452 75.2841 32.005L72.0733 32.3003M72.0733 32.3003L69.3255 29.0967M72.0733 32.3003C71.1826 31.4037 69.3255 29.0967 69.3255 29.0967" stroke="#192965" stroke-width="3.0135" stroke-linecap="round" stroke-linejoin="round"/>
<path id="Intersect_5" d="M88.5553 30.458C87.979 30.9886 87.1262 31.0861 86.4451 30.6979L85.7214 30.2855C85.1893 29.9822 84.5759 29.8532 83.967 29.9166L80.5403 30.2735L82.393 32.383C83.4674 33.6062 83.4058 35.4564 82.2525 36.6051C81.6507 37.2044 80.8287 37.5279 79.9808 37.4991L77.391 37.4109C77.0425 37.399 76.717 37.5849 76.5494 37.8914C76.3313 38.2903 75.8563 38.4714 75.4288 38.3186L71.1784 36.7996C70.7568 36.649 70.4565 36.2723 70.4029 35.8269C70.3295 35.2173 69.8031 34.7653 69.1908 34.7861L65.1137 34.9249C64.8599 34.9335 64.6169 34.8214 64.4585 34.6224C64.1344 34.2153 63.5157 34.2191 63.1966 34.6302L60.8807 37.6139C60.4487 38.1705 60.1805 38.8369 60.1063 39.5381L59.7544 42.862C59.4575 45.6667 60.4362 48.4564 62.4191 50.4576L63.6937 51.744C64.6047 52.6634 65.8395 53.1875 67.1322 53.2035C69.7977 53.2365 71.9547 55.3863 72.0025 58.0577L72.0403 60.1721C72.0613 61.3479 72.6064 62.4524 73.526 63.1827C74.4311 63.9013 74.9742 64.9832 75.0105 66.1399L75.1563 70.782C75.1823 71.6077 75.4574 72.4106 75.9408 73.0797C76.6929 74.1208 77.8926 74.7552 79.1747 74.7833C80.3281 74.8085 81.4387 74.3451 82.2336 73.5071L83.7139 71.9464C85.2898 70.2849 86.1719 68.0821 86.1792 65.7896L86.1992 59.5508C86.205 57.728 86.9176 55.9788 88.1865 54.6729L89.4174 53.4061C90.3656 52.4302 90.7354 51.0282 90.3922 49.71C90.2239 49.0634 89.8921 48.4711 89.429 47.9903L83.6415 41.9824C83.2276 41.5528 83.3014 40.8527 83.7956 40.5192C84.1835 40.2576 84.7031 40.3147 85.0251 40.6545L88.029 43.8243C88.8866 44.7293 90.062 45.2643 91.3062 45.3159L91.8864 45.34" stroke="#192965" stroke-width="3.0135" stroke-linecap="round" stroke-linejoin="round"/>
<path id="Intersect_6" d="M65.0186 24.0477L59.3729 23.8733C57.5798 23.8179 56.1911 22.2812 56.3131 20.4873C56.374 19.5927 56.8097 18.7658 57.5125 18.211L57.7742 18.0045C59.9898 16.2556 63.2677 17.3575 63.9832 20.0916L65.0186 24.0477Z" stroke="#192965" stroke-width="3.0135" stroke-linecap="round" stroke-linejoin="round"/>
</g>
</svg>
