<svg width="21" height="21" viewBox="0 0 21 21" fill="none" xmlns="http://www.w3.org/2000/svg">
<path d="M9.81779 6.73199C7.94862 6.73199 6.59194 9.16381 6.59194 11.0331C6.59194 12.9024 7.94862 14.259 9.81779 14.259C11.687 14.259 14.1189 12.9024 14.1189 11.0331C14.1189 9.16381 11.687 6.73199 9.81779 6.73199ZM20.5706 11.0331C20.5706 9.62732 20.6496 8.13524 20.5706 6.73199C20.4917 5.10207 19.6119 3.62273 18.4201 2.43085C17.2257 1.23643 15.7487 0.359231 14.1189 0.280282C12.7132 0.201333 11.2209 0.280282 9.81779 0.280282C8.41209 0.280282 7.99509 0.201333 6.59194 0.280282C4.96214 0.359231 3.48259 1.23897 2.2908 2.43085C1.09647 3.62528 0.219178 5.10207 0.140234 6.73199C0.0612909 8.13779 0.140234 9.62986 0.140234 11.0331C0.140234 12.4364 0.0612909 12.8557 0.140234 14.259C0.219178 15.8889 1.09901 17.3682 2.2908 18.5601C3.48514 19.7545 4.96214 20.6317 6.59194 20.7107C7.99764 20.7896 8.41464 20.7107 9.81779 20.7107C11.2235 20.7107 12.7158 20.7896 14.1189 20.7107C15.7487 20.6317 17.2283 19.752 18.4201 18.5601C19.6144 17.3657 20.4917 15.8889 20.5706 14.259C20.6521 12.8557 20.5706 12.4389 20.5706 11.0331V11.0331ZM9.81779 15.3343C6.92745 15.3343 5.51665 13.9237 5.51665 11.0331C5.51665 8.14256 6.92745 5.6567 9.81779 5.6567C12.7081 5.6567 15.1942 8.14256 15.1942 11.0331C15.1942 13.9237 12.7081 15.3343 9.81779 15.3343ZM16.2695 6.73199C15.5947 6.73199 14.1189 5.25631 14.1189 4.58142C14.1189 3.90653 15.5947 3.50613 16.2695 3.50613C16.9443 3.50613 17.3448 3.90653 17.3448 4.58142C17.345 4.74167 17.406 5.50861 17.3448 5.6567C17.2836 5.8048 16.3828 5.54338 16.2695 5.6567C16.1562 5.77002 16.4176 5.59547 16.2695 5.6567C16.1214 5.71794 16.4297 6.73219 16.2695 6.73199V6.73199Z" fill="#1E1E1E"/>
</svg>
