<svg width="25" height="25" viewBox="0 0 25 25" fill="none" xmlns="http://www.w3.org/2000/svg">
<g id="mdi:youtube">
<path id="Vector" d="M10.2871 15.5347L15.4771 12.5347L10.2871 9.53467V15.5347ZM21.8471 7.70467C21.9771 8.17467 22.0671 8.80467 22.1271 9.60467C22.1971 10.4047 22.2271 11.0947 22.2271 11.6947L22.2871 12.5347C22.2871 14.7247 22.1271 16.3347 21.8471 17.3647C21.5971 18.2647 21.0171 18.8447 20.1171 19.0947C19.6471 19.2247 18.7871 19.3147 17.4671 19.3747C16.1671 19.4447 14.9771 19.4747 13.8771 19.4747L12.2871 19.5347C8.09711 19.5347 5.48711 19.3747 4.45711 19.0947C3.55711 18.8447 2.97711 18.2647 2.72711 17.3647C2.59711 16.8947 2.50711 16.2647 2.44711 15.4647C2.37711 14.6647 2.34711 13.9747 2.34711 13.3747L2.28711 12.5347C2.28711 10.3447 2.44711 8.73467 2.72711 7.70467C2.97711 6.80467 3.55711 6.22467 4.45711 5.97467C4.92711 5.84467 5.78711 5.75467 7.10711 5.69467C8.40711 5.62467 9.59711 5.59467 10.6971 5.59467L12.2871 5.53467C16.4771 5.53467 19.0871 5.69467 20.1171 5.97467C21.0171 6.22467 21.5971 6.80467 21.8471 7.70467Z" fill="#282728"/>
</g>
</svg>
